<?xml version="1.0" encoding="UTF-8" standalone="no"?>
<svg
   xmlns:dc="http://purl.org/dc/elements/1.1/"
   xmlns:cc="http://creativecommons.org/ns#"
   xmlns:rdf="http://www.w3.org/1999/02/22-rdf-syntax-ns#"
   xmlns:svg="http://www.w3.org/2000/svg"
   xmlns="http://www.w3.org/2000/svg"
   xmlns:xlink="http://www.w3.org/1999/xlink"
   xmlns:sodipodi="http://sodipodi.sourceforge.net/DTD/sodipodi-0.dtd"
   xmlns:inkscape="http://www.inkscape.org/namespaces/inkscape"
   width="1024"
   height="1024"
   version="1.1"
   viewBox="0 0 270.928 270.928"
   id="svg90"
   sodipodi:docname="AddressManager.svg"
   inkscape:version="0.92.4 (5da689c313, 2019-01-14)"
   inkscape:export-filename="/home/bertrand/Desktop/BertrandDekoninck/RikIcons/PNG1024/AppIcons/AddressManager.png"
   inkscape:export-xdpi="96"
   inkscape:export-ydpi="96">
  <metadata
     id="metadata94">
    <rdf:RDF>
      <cc:Work
         rdf:about="">
        <dc:format>image/svg+xml</dc:format>
        <dc:type
           rdf:resource="http://purl.org/dc/dcmitype/StillImage" />
        <dc:title></dc:title>
        <cc:license
           rdf:resource="http://creativecommons.org/licenses/by/4.0/" />
      </cc:Work>
      <cc:License
         rdf:about="http://creativecommons.org/licenses/by/4.0/">
        <cc:permits
           rdf:resource="http://creativecommons.org/ns#Reproduction" />
        <cc:permits
           rdf:resource="http://creativecommons.org/ns#Distribution" />
        <cc:requires
           rdf:resource="http://creativecommons.org/ns#Notice" />
        <cc:requires
           rdf:resource="http://creativecommons.org/ns#Attribution" />
        <cc:permits
           rdf:resource="http://creativecommons.org/ns#DerivativeWorks" />
      </cc:License>
    </rdf:RDF>
  </metadata>
  <sodipodi:namedview
     pagecolor="#ffffff"
     bordercolor="#666666"
     borderopacity="1"
     objecttolerance="10"
     gridtolerance="10"
     guidetolerance="10"
     inkscape:pageopacity="0"
     inkscape:pageshadow="2"
     inkscape:window-width="1226"
     inkscape:window-height="672"
     id="namedview92"
     showgrid="false"
     inkscape:zoom="0.42382812"
     inkscape:cx="512"
     inkscape:cy="512"
     inkscape:window-x="52"
     inkscape:window-y="26"
     inkscape:window-maximized="0"
     inkscape:current-layer="svg90" />
  <defs
     id="defs32">
    <linearGradient
       id="linearGradient1103">
      <stop
         stop-opacity=".75"
         offset="0"
         id="stop2" />
      <stop
         stop-opacity=".8"
         offset=".7"
         id="stop4" />
      <stop
         stop-opacity=".5"
         offset="1"
         id="stop6" />
    </linearGradient>
    <linearGradient
       id="linearGradient928"
       x1="2.6458001"
       x2="14.189"
       y1="3.2565999"
       y2="14.287"
       gradientUnits="userSpaceOnUse"
       gradientTransform="translate(0,253.995)">
      <stop
         stop-color="#6b99ca"
         offset="0"
         id="stop9"
         style="stop-color:#ca7b6b;stop-opacity:1" />
      <stop
         stop-color="#4676b0"
         offset="1"
         id="stop11"
         style="stop-color:#b05f46;stop-opacity:1" />
    </linearGradient>
    <linearGradient
       id="linearGradient1033"
       x1="14.552"
       x2="14.552"
       y1="7.4081998"
       y2="6.0853"
       gradientUnits="userSpaceOnUse"
       gradientTransform="translate(0,253.995)">
      <stop
         stop-color="#5ac8fa"
         offset="0"
         id="stop14" />
      <stop
         stop-color="#3e7790"
         offset="1"
         id="stop16" />
    </linearGradient>
    <linearGradient
       id="linearGradient1041"
       x1="14.816"
       x2="14.816"
       y1="10.054"
       y2="8.7311001"
       gradientUnits="userSpaceOnUse"
       gradientTransform="translate(0,253.995)">
      <stop
         stop-color="#ff9500"
         offset="0"
         id="stop19" />
      <stop
         stop-color="#915400"
         offset="1"
         id="stop21" />
    </linearGradient>
    <linearGradient
       id="linearGradient1049"
       x1="14.287"
       x2="14.287"
       y1="12.7"
       y2="11.377"
       gradientUnits="userSpaceOnUse"
       gradientTransform="translate(0,253.995)">
      <stop
         stop-color="#4cd964"
         offset="0"
         id="stop24" />
      <stop
         stop-color="#2c7e3a"
         offset="1"
         id="stop26" />
    </linearGradient>
    <radialGradient
       id="radialGradient1105"
       cx="2.1166"
       cy="6.0853"
       r="0.52916002"
       gradientUnits="userSpaceOnUse"
       xlink:href="#linearGradient1103"
       gradientTransform="translate(0,253.995)" />
    <radialGradient
       id="radialGradient1111"
       cx="2.1166"
       cy="6.0853"
       r="0.52916002"
       gradientTransform="translate(0,257.4345)"
       gradientUnits="userSpaceOnUse"
       xlink:href="#linearGradient1103" />
    <radialGradient
       id="radialGradient1115"
       cx="2.1166"
       cy="6.0853"
       r="0.52916002"
       gradientTransform="translate(0,260.874)"
       gradientUnits="userSpaceOnUse"
       xlink:href="#linearGradient1103" />
  </defs>
  <g
     id="g951"
     transform="matrix(16.729437,0,0,16.516072,-3.5004953,-4203.7393)">
    <g
       transform="translate(0,253.995)"
       style="shape-rendering:auto"
       id="g44">
      <path
         inkscape:connector-curvature="0"
         id="path34"
         style="color:#000000;font-variant-ligatures:normal;font-variant-position:normal;font-variant-caps:normal;font-variant-numeric:normal;font-variant-alternates:normal;font-feature-settings:normal;text-indent:0;text-decoration:none;text-decoration-line:none;text-decoration-style:solid;text-decoration-color:#000000;text-transform:none;text-orientation:mixed;dominant-baseline:auto;white-space:normal;shape-padding:0;opacity:0.01000001;isolation:auto;mix-blend-mode:normal;solid-color:#000000;color-rendering:auto;image-rendering:auto"
         stop-color="#000000"
         dominant-baseline="auto"
         d="m 4.3693,0.52916 c -2.1142,0 -3.8402,1.7835 -3.8402,3.9682 v 8.4675 c 0,2.1846 1.726,3.9682 3.8402,3.9682 h 8.1944 c 2.1142,0 3.8402,-1.7835 3.8402,-3.9682 v -8.4675 c 0,-2.1846 -1.726,-3.9682 -3.8402,-3.9682 z m 0.25704,0.52089 h 7.6808 c 1.8443,0 3.3291,1.5342 3.3291,3.44 v 7.9368 c 0,1.9058 -1.4847,3.44 -3.3291,3.44 h -7.6808 c -1.8443,0 -3.3291,-1.5342 -3.3291,-3.44 v -7.9368 c 0,-1.9058 1.4847,-3.44 3.3291,-3.44 z" />
      <path
         inkscape:connector-curvature="0"
         id="path36"
         style="color:#000000;font-variant-ligatures:normal;font-variant-position:normal;font-variant-caps:normal;font-variant-numeric:normal;font-variant-alternates:normal;font-feature-settings:normal;text-indent:0;text-decoration:none;text-decoration-line:none;text-decoration-style:solid;text-decoration-color:#000000;text-transform:none;text-orientation:mixed;dominant-baseline:auto;white-space:normal;shape-padding:0;opacity:0.01000001;isolation:auto;mix-blend-mode:normal;solid-color:#000000;color-rendering:auto;image-rendering:auto"
         stop-color="#000000"
         dominant-baseline="auto"
         d="m 4.3587,0.79373 c -1.9668,0 -3.5639,1.6528 -3.5639,3.6876 v 8.4996 c 0,2.0348 1.5971,3.6876 3.5639,3.6876 h 8.2162 c 1.9668,0 3.5644,-1.6528 3.5644,-3.6876 v -8.4996 c 0,-2.0348 -1.5976,-3.6876 -3.5644,-3.6876 z m 0.27222,0.25631 h 7.6718 c 1.8422,0 3.3251,1.5342 3.3251,3.44 v 7.9368 c 0,1.9058 -1.483,3.44 -3.3251,3.44 h -7.6718 c -1.8422,0 -3.3251,-1.5342 -3.3251,-3.44 v -7.9368 c 0,-1.9058 1.483,-3.44 3.3251,-3.44 z" />
      <path
         inkscape:connector-curvature="0"
         id="path38"
         style="color:#000000;font-variant-ligatures:normal;font-variant-position:normal;font-variant-caps:normal;font-variant-numeric:normal;font-variant-alternates:normal;font-feature-settings:normal;text-indent:0;text-decoration:none;text-decoration-line:none;text-decoration-style:solid;text-decoration-color:#000000;text-transform:none;text-orientation:mixed;dominant-baseline:auto;white-space:normal;shape-padding:0;opacity:0.02999998;isolation:auto;mix-blend-mode:normal;solid-color:#000000;color-rendering:auto;image-rendering:auto"
         stop-color="#000000"
         dominant-baseline="auto"
         d="m 4.3097,1.0583 c -1.8657,0 -3.3751,1.5383 -3.3751,3.439 v 8.4675 c 0,1.9007 1.57,3.439 3.4357,3.439 h 8.1996 c 1.8657,0 3.4274,-1.5383 3.4274,-3.439 V 4.4973 c 0,-1.9007 -1.51,-3.439 -3.3756,-3.439 h -0.09688 c 1.794,0.086515 3.2138,1.5819 3.2138,3.4318 v 7.9368 c 0,1.9058 -1.5059,3.44 -3.3766,3.44 h -7.7905 c -1.8707,0 -3.3766,-1.5342 -3.3766,-3.44 V 4.4901 c 0,-1.8498 1.4199,-3.3451 3.2138,-3.4318 z" />
      <path
         inkscape:connector-curvature="0"
         id="path40"
         style="color:#000000;font-variant-ligatures:normal;font-variant-position:normal;font-variant-caps:normal;font-variant-numeric:normal;font-variant-alternates:normal;font-feature-settings:normal;text-indent:0;text-decoration:none;text-decoration-line:none;text-decoration-style:solid;text-decoration-color:#000000;text-transform:none;text-orientation:mixed;dominant-baseline:auto;white-space:normal;shape-padding:0;opacity:0.02999998;isolation:auto;mix-blend-mode:normal;solid-color:#000000;color-rendering:auto;image-rendering:auto"
         stop-color="#000000"
         dominant-baseline="auto"
         d="m 4,46.969 v 2.0312 c 0,6.6479 5.8957,12 12.544,12 h 30.961 c 6.6479,0 12.495,-5.3521 12.495,-12 V 47.008 C 59.97883,54.1929 54.19,59.971 47,59.971 H 17.002 C 9.7988,59.971 4,54.1723 4,46.969 Z"
         transform="scale(0.26458)" />
      <path
         inkscape:connector-curvature="0"
         id="path42"
         style="color:#000000;font-variant-ligatures:normal;font-variant-position:normal;font-variant-caps:normal;font-variant-numeric:normal;font-variant-alternates:normal;font-feature-settings:normal;text-indent:0;text-decoration:none;text-decoration-line:none;text-decoration-style:solid;text-decoration-color:#000000;text-transform:none;text-orientation:mixed;dominant-baseline:auto;white-space:normal;shape-padding:0;opacity:0.05;isolation:auto;mix-blend-mode:normal;solid-color:#000000;color-rendering:auto;image-rendering:auto"
         stop-color="#000000"
         dominant-baseline="auto"
         d="m 1.0583,11.906 v 0.59234 c 0,1.9386 1.5729,3.4993 3.3318,3.4993 h 8.1603 c 1.7589,0 3.3243,-1.5608 3.3243,-3.4993 v -0.58095 c -0.0056,2.0952 -1.5372,3.7801 -3.4395,3.7801 H 4.4984 c -1.9058,0 -3.44,-1.691 -3.44,-3.7915 z" />
    </g>
    <path
       style="fill:url(#linearGradient1049)"
       inkscape:connector-curvature="0"
       id="path46"
       d="m 7.4082,268.547 c -1.026,0 -1.852,-0.82601 -1.852,-1.852 v -1.852 c 0,-0.29315 0.236,-0.52916 0.52916,-0.52916 h 9.7894 c 0.29315,0 0.52916,0.236 0.52916,0.52916 v 1.852 c 0,1.026 -0.82601,1.852 -1.852,1.852 z" />
    <rect
       style="fill:url(#linearGradient1041)"
       id="rect48"
       ry="0.52916002"
       rx="0.52916002"
       height="4.2333002"
       width="10.848"
       y="261.66779"
       x="5.5560999" />
    <rect
       style="fill:url(#linearGradient1033)"
       id="rect50"
       ry="0.52916002"
       rx="0.52916002"
       height="4.2333002"
       width="10.848"
       y="259.022"
       x="5.5560999" />
    <path
       style="fill:#c4c2ba"
       inkscape:connector-curvature="0"
       id="path52"
       d="m 7.4082,256.3762 c -1.026,0 -1.852,0.82601 -1.852,1.852 v 1.852 c 0,0.29315 0.236,0.52916 0.52916,0.52916 h 9.7894 c 0.29315,0 0.52916,-0.236 0.52916,-0.52916 v -1.852 c 0,-1.026 -0.82601,-1.852 -1.852,-1.852 z" />
    <rect
       style="opacity:1;fill:url(#linearGradient928)"
       id="rect54"
       ry="3.4401"
       rx="3.4401"
       height="14.817"
       width="14.817"
       y="255.045"
       x="1.0583" />
    <path
       style="opacity:0.02999998;stroke-width:0.26457"
       inkscape:connector-curvature="0"
       id="path56"
       d="m 4.1863,255.0717 c -0.021,2.2e-4 -0.04202,0.002 -0.06304,0.003 -0.50059,0.0538 -0.96622,0.21659 -1.3782,0.46042 -0.07639,0.0658 -0.16042,0.11572 -0.24546,0.15864 -0.23256,0.16592 -0.44418,0.35914 -0.62838,0.5767 0.09692,0.0326 0.22798,0.0371 0.39274,0.007 0.44082,-0.0799 0.57332,0.0181 0.55138,0.40928 -0.01587,0.28313 -0.20753,0.62801 -0.42582,0.76583 -0.54683,0.34531 -0.79215,0.31962 -0.69659,-0.0723 0.04434,-0.18189 0.03033,-0.24078 -0.03101,-0.13074 -0.06134,0.11004 -0.19061,0.15167 -0.28731,0.092 -0.09671,-0.0597 -0.20602,0.67616 -0.24288,1.6355 -0.04508,1.1733 0.04154,1.8133 0.26458,1.9549 0.48103,0.30543 0.51741,0.27442 0.33848,-0.2894 -0.47161,-1.4859 -0.34861,-1.9769 0.32607,-1.3022 0.23198,0.23198 0.40507,0.22397 0.71415,-0.0326 0.44407,-0.36856 0.57361,-1.2008 0.14573,-0.93638 -0.14436,0.0892 -0.4718,0.0396 -0.7276,-0.11007 -0.37372,-0.21873 -0.29612,-0.25443 0.39481,-0.18138 0.53482,0.0565 0.85988,-0.0269 0.85988,-0.22065 0,-0.46188 0.72241,-1.3658 0.92759,-1.1606 0.09747,0.0975 -0.08738,0.53506 -0.41081,0.97254 -0.33869,0.45812 -0.51818,0.97776 -0.42322,1.2252 0.11223,0.29247 0.06026,0.37126 -0.16278,0.24649 -0.18023,-0.10081 -0.13062,0.0262 0.11007,0.28215 0.62377,0.66341 1.1054,0.25467 0.93534,-0.79321 -0.08513,-0.52461 0.0053,-1.0717 0.23047,-1.3932 0.31948,-0.45611 0.31731,-0.57369 -0.01757,-0.8516 -0.21375,-0.17739 -0.56895,-0.25345 -0.78908,-0.16898 -0.45987,0.17647 -0.50749,-0.0525 -0.12971,-0.62372 0.22304,-0.33723 0.33628,-0.30152 0.75344,0.23667 0.52321,0.67502 1.093,0.56951 1.093,-0.20257 0,-0.36636 -0.67643,-0.56387 -1.3782,-0.55654 z m 8.6743,0.0109 c -0.26343,0.0382 -0.31707,0.17649 -0.22944,0.51159 0.12706,0.48587 -0.20974,0.67415 -1.0196,0.56998 -0.09353,-0.012 -0.23117,0.21233 -0.30591,0.49815 -0.07475,0.28583 -0.0078,0.51934 0.14831,0.51934 0.15614,0 0.20718,0.0765 0.11369,0.17001 -0.09349,0.0935 -0.35681,0.0146 -0.58549,-0.17518 -0.33141,-0.27503 -0.34644,-0.3892 -0.07286,-0.56276 0.18879,-0.11975 0.22406,-0.21756 0.07855,-0.21756 -0.3535,0 -0.97654,0.40505 -0.94826,0.6165 0.06583,0.49188 -0.0031,0.69815 -0.23357,0.69815 -0.14095,0 -0.18314,-0.20836 -0.09353,-0.46302 0.13333,-0.3789 0.09807,-0.40258 -0.19482,-0.13074 -0.29649,0.27519 -0.20136,0.46622 0.55604,1.1136 0.50283,0.42981 0.80252,0.78628 0.66558,0.79218 -0.29657,0.0128 0.67645,0.78414 1.0046,0.79633 0.1247,0.005 0.15301,-0.18358 0.06304,-0.41806 -0.11105,-0.2894 -0.04806,-0.38227 0.19533,-0.28887 0.25812,0.099 0.32438,-0.0409 0.23668,-0.49971 -0.07503,-0.39248 0.0022,-0.63716 0.20154,-0.63716 0.17808,0 0.25664,0.17499 0.17466,0.38862 -0.08197,0.21361 -0.01643,0.47008 0.14521,0.56998 0.17129,0.10586 0.21971,0.062 0.11627,-0.10542 -0.09762,-0.15794 -0.05466,-0.36343 0.0956,-0.45629 0.15031,-0.0929 0.21542,-0.26228 0.14469,-0.37671 -0.07073,-0.11444 0.1541,-0.15392 0.49971,-0.0879 0.42132,0.0805 0.6151,0.003 0.58755,-0.23667 -0.04712,-0.40909 0.11858,-0.49318 0.95085,-0.48008 0.58927,0.009 0.58858,0.0138 -0.06614,0.40825 l -0.66145,0.39843 0.66145,-0.14469 c 0.65378,-0.14305 0.65454,-0.14111 0.06614,0.16175 -0.32742,0.16852 -0.5953,0.46645 -0.5953,0.66248 0,0.19604 -0.1786,0.35657 -0.39687,0.35657 -0.21827,0 -0.39687,0.12734 -0.39687,0.28268 0,0.15578 -0.22229,0.21144 -0.49609,0.12454 -0.35173,-0.11164 -0.53681,-0.004 -0.63457,0.36999 -0.07739,0.29596 -0.01455,0.50281 0.14262,0.47077 0.15409,-0.0314 0.36401,0.2403 0.46664,0.60409 0.18215,0.64565 0.19688,0.63761 0.62682,-0.3421 0.42986,-0.97948 1.0636,-1.4877 1.4159,-1.1353 0.09651,0.0965 -0.08718,0.24418 -0.40825,0.32813 -0.70344,0.18396 -0.74527,0.49082 -0.12092,0.88986 0.40978,0.26191 0.39573,0.28172 -0.12299,0.1726 -0.41449,-0.0872 -0.63362,0.0268 -0.74879,0.38965 -0.1147,0.36139 -0.31305,0.46545 -0.67076,0.35192 -0.57144,-0.18137 -0.66947,0.13616 -0.19017,0.61547 0.19371,0.19372 0.41237,0.22219 0.5612,0.0734 0.13414,-0.13414 0.42775,-0.17345 0.65214,-0.0873 0.2578,0.0989 0.34104,0.0487 0.22634,-0.13694 -0.16268,-0.26323 0.76122,-1.3839 1.141,-1.3839 0.08411,0 0.15122,-0.82732 0.14883,-1.8386 -0.0016,-0.66571 -0.05655,-1.208 -0.14469,-1.6149 -0.11778,-0.28318 -0.27363,-0.54533 -0.45889,-0.78392 -0.10473,0.002 -0.2172,0.0868 -0.33382,0.2713 -0.20042,0.31699 -0.25043,0.32223 -0.25373,0.0269 -0.0018,-0.16304 0.13447,-0.40901 0.31988,-0.60718 -0.05095,-0.0516 -0.10556,-0.0995 -0.15968,-0.14779 -0.38819,0.17285 -0.45487,0.12731 -0.40618,-0.23667 0.0036,-0.0269 -0.0012,-0.055 -0.01034,-0.0827 -0.42607,-0.27641 -0.91721,-0.46 -1.4469,-0.52503 z m -3.8608,0.0424 c -3.1205,0.0219 -3.1707,0.0315 -3.1707,0.62682 0,0.33271 -0.13733,0.68965 -0.30488,0.79321 -0.21109,0.13046 -0.15486,0.29765 0.18293,0.54466 0.4532,0.33139 0.43759,0.35657 -0.22427,0.35657 -0.3916,0 -0.71209,0.11906 -0.71209,0.26458 0,0.14552 0.29765,0.26458 0.66145,0.26458 0.3638,0 0.66145,-0.11906 0.66145,-0.26458 0,-0.14552 0.20836,-0.27818 0.46302,-0.29506 0.44095,-0.0292 0.44095,-0.0367 0,-0.15193 -0.31056,-0.0812 -0.46302,-0.38121 -0.46302,-0.91105 0,-0.48135 0.10767,-0.72307 0.27596,-0.61906 0.15189,0.0939 0.46878,0.0115 0.70434,-0.18293 0.36311,-0.29969 0.40719,-0.29305 0.28887,0.0434 -0.21862,0.62168 0.27815,1.3248 0.92293,1.3064 l 0.58599,-0.017 -0.59531,-0.23926 c -0.34356,-0.13809 -0.5953,-0.46638 -0.5953,-0.77667 0,-0.58705 0.38615,-0.7181 0.68627,-0.23254 0.10559,0.17086 0.07385,0.23453 -0.07235,0.14417 -0.14375,-0.0888 -0.26148,-0.004 -0.26148,0.18758 0,0.20731 0.19572,0.29763 0.48214,0.22272 0.26514,-0.0693 0.43084,-0.20928 0.36792,-0.31109 -0.1573,-0.25453 1.2324,-0.20162 1.6412,0.0625 0.22115,0.14289 0.33215,0.0555 0.33485,-0.26458 0.0034,-0.40581 0.04299,-0.41864 0.26045,-0.0822 0.22798,0.35276 0.25944,0.35276 0.27956,0 0.01753,-0.30712 0.06335,-0.29397 0.20257,0.0568 0.12076,0.30429 0.29945,0.37912 0.54414,0.22789 0.8752,-0.54091 -0.10316,-0.7753 -3.1466,-0.75395 z m -4.2772,0.20464 c 0.15475,0 0.35986,0.12695 0.45579,0.28215 0.28474,0.46074 -0.03968,0.55866 -0.40256,0.12144 -0.20868,-0.25145 -0.22866,-0.40359 -0.05323,-0.40359 z m 8.8351,0.0196 c 0.03427,0.001 0.06283,0.0112 0.0832,0.0315 0.08146,0.0814 -0.06566,0.2293 -0.3266,0.32866 -0.37708,0.14358 -0.40714,0.1135 -0.14779,-0.14779 0.1346,-0.13561 0.28837,-0.21541 0.39118,-0.21239 z m -10.507,0.24494 c 0.07275,0 0.13229,0.0595 0.13229,0.13229 0,0.0728 -0.05953,0.13229 -0.13229,0.13229 -0.07276,0 -0.13229,-0.0595 -0.13229,-0.13229 0,-0.0727 0.05953,-0.13229 0.13229,-0.13229 z m 10.583,0.26458 c 0.07276,0 0.13229,0.0595 0.13229,0.13229 0,0.0728 -0.05953,0.13229 -0.13229,0.13229 -0.07276,0 -0.13229,-0.0595 -0.13229,-0.13229 0,-0.0727 0.05953,-0.13229 0.13229,-0.13229 z m -3.5665,0.0631 c -0.07378,0.006 -0.17817,0.0227 -0.31522,0.0481 -0.33861,0.0627 -0.65267,0.12303 -0.69762,0.13384 -0.04497,0.0108 -0.0078,0.1387 0.08217,0.28421 0.22092,0.35745 0.36443,0.33424 0.8325,-0.13384 0.26601,-0.26601 0.31953,-0.34975 0.09818,-0.33229 z m 4.1356,0.26614 c 0.03842,-0.0175 0.06344,0.0611 0.07183,0.23409 0.01149,0.23683 -0.15792,0.57848 -0.37621,0.75964 -0.21827,0.18115 -0.39687,0.25124 -0.39687,0.15554 0,-0.0957 -0.23813,-0.0467 -0.52916,0.10904 -0.40073,0.21447 -0.534,0.20067 -0.54982,-0.0568 -0.01149,-0.18701 -0.14064,-0.0126 -0.2868,0.38756 -0.14615,0.40018 -0.40436,0.72394 -0.57411,0.71934 -0.50606,-0.0138 -1.2929,-0.71815 -1.0025,-0.89761 0.14528,-0.0898 0.382,0.0463 0.52554,0.30281 0.3189,0.56983 0.63097,0.31292 0.63097,-0.51934 0,-0.60623 1.1686,-1.452 1.5022,-1.0873 0.08336,0.0911 0.0026,0.21874 -0.17931,0.28371 -0.50196,0.17927 -0.39512,0.4899 0.16846,0.4899 0.32726,0 0.44841,-0.13193 0.35192,-0.38343 -0.08927,-0.23263 -0.03398,-0.31427 0.14004,-0.2067 0.15781,0.0975 0.34694,0.0278 0.42063,-0.15503 0.03229,-0.0801 0.06015,-0.12487 0.0832,-0.13539 z m -7.5921,0.20154 c -0.15513,-0.002 -0.25218,0.082 -0.25218,0.26303 0,0.14552 0.1786,0.26458 0.39687,0.26458 0.21827,0 0.39687,0.11906 0.39687,0.26458 0,0.14552 0.18551,0.26458 0.41237,0.26458 0.22686,0 0.33377,0.12723 0.23771,0.28268 -0.09606,0.15544 -0.3411,0.21867 -0.54466,0.14056 -0.20355,-0.0781 -0.36999,-0.0267 -0.36999,0.1142 0,0.35443 0.62216,0.32197 0.9963,-0.0522 0.23537,-0.23537 0.34946,-0.20391 0.47852,0.13229 0.0931,0.24261 0.32051,0.44079 0.5054,0.44079 0.18489,0 0.48445,0.1786 0.66558,0.39687 0.2077,0.25026 0.22496,0.39687 0.04754,0.39687 -0.15475,0 -0.36062,-0.12846 -0.45786,-0.28577 -0.09722,-0.15731 -0.45166,-0.2171 -0.78755,-0.13281 -0.36441,0.0915 -0.67169,0.0198 -0.76223,-0.17725 -0.0835,-0.18164 -0.0808,-0.0475 0.0062,0.29818 0.10643,0.4228 0.0622,0.5693 -0.13488,0.44751 -0.16111,-0.0996 -0.29249,-0.33766 -0.29249,-0.52916 0,-0.54855 -1.6161,-0.76408 -2.1001,-0.28008 -0.36589,0.36589 -0.3203,0.38973 0.45011,0.23564 0.53355,-0.10671 0.85626,-0.0658 0.85626,0.10852 0,0.1539 0.23813,0.35515 0.52916,0.44751 0.69259,0.21982 0.67642,0.53797 -0.02997,0.59118 -0.30747,0.0232 -0.49336,-0.0239 -0.41288,-0.10438 0.08046,-0.0805 0.0081,-0.29413 -0.16071,-0.47489 -0.33435,-0.35792 -1.2485,-0.23571 -1.2485,0.16691 0,0.13713 0.10123,0.18675 0.22531,0.11007 0.12408,-0.0767 0.45151,0.0313 0.72759,0.24029 0.27609,0.20898 0.69577,0.38398 0.93222,0.38862 0.64748,0.0127 0.58197,1.3312 -0.06614,1.3312 -0.27291,0 -0.49609,0.18545 -0.49609,0.41237 0,0.22686 -0.11907,0.33901 -0.26458,0.24908 -0.15065,-0.0931 -0.26458,0.13476 -0.26458,0.52916 0,0.39441 0.11393,0.62227 0.26458,0.52916 0.14551,-0.0899 0.26458,-0.32805 0.26458,-0.52916 0,-0.50879 0.48849,-0.75879 0.87126,-0.44595 0.21634,0.17681 0.42915,0.1415 0.66042,-0.10955 0.19697,-0.21383 0.22493,-0.37052 0.06614,-0.37052 -0.15125,0 -0.27493,-0.12146 -0.27493,-0.26974 0,-0.15865 0.29948,-0.20006 0.7276,-0.10077 0.71156,0.16502 0.71593,0.15885 0.19844,-0.28112 -0.44211,-0.37589 -0.45301,-0.426 -0.06615,-0.30437 0.25465,0.0801 0.46302,0.0304 0.46302,-0.11059 0,-0.14095 -0.27799,-0.25631 -0.61753,-0.25631 -0.7046,0 -0.84097,-0.6964 -0.25166,-1.2857 0.31138,-0.31138 0.34337,-0.25274 0.21497,0.39377 -0.14212,0.71558 -0.13286,0.72516 0.15968,0.16433 0.17078,-0.32742 0.41155,-0.5953 0.53485,-0.5953 0.36083,0 0.25738,0.79144 -0.10645,0.8144 -0.26457,0.0167 -0.26457,0.0478 0,0.15451 0.18189,0.0734 0.33991,0.3321 0.35139,0.57464 0.01512,0.31914 0.06053,0.34112 0.16433,0.0801 0.12109,-0.30448 0.17916,-0.30448 0.37205,0 0.1772,0.27969 0.22944,0.25333 0.23254,-0.11782 0.0022,-0.26324 0.12268,-0.40515 0.2682,-0.31522 0.30694,0.1897 0.35996,1.6221 0.06615,1.7864 -0.25045,0.14006 0.33311,-0.0142 0.85988,-0.22737 0.21827,-0.0883 0.39687,-0.0288 0.39687,0.13229 0,0.16108 -0.11488,0.293 -0.25528,0.293 -0.1404,0 -0.37711,0.22867 -0.52657,0.50797 -0.25943,0.48476 -0.23632,0.48963 0.51934,0.11265 0.43539,-0.2172 0.788,-0.53517 0.7834,-0.7064 -0.01165,-0.43111 -0.65304,-1.2371 -0.98442,-1.2371 -0.15028,0 -0.34575,-0.1884 -0.43407,-0.41857 -0.25604,-0.66722 -0.17155,-0.80903 0.19482,-0.3271 0.41692,0.54842 1.8081,0.74926 1.912,0.27596 0.04073,-0.18553 0.01351,-0.2153 -0.06046,-0.0661 -0.24002,0.48397 -0.59171,0.28646 -0.48421,-0.2718 0.08477,-0.44016 0.0043,-0.51082 -0.42478,-0.37465 -0.29112,0.0924 -0.70233,0.0245 -0.91362,-0.15089 -0.27106,-0.22496 -0.38446,-0.23176 -0.38446,-0.0222 0,0.16333 -0.23813,0.29712 -0.52916,0.29712 -0.29104,0 -0.52863,-0.11906 -0.52863,-0.26458 0,-0.14552 0.08878,-0.23481 0.19792,-0.19844 0.08635,0.0288 0.17705,-0.004 0.22996,-0.0723 -0.01031,0.003 -0.02043,0.006 -0.03152,0.006 -0.07276,0 -0.13229,-0.0595 -0.13229,-0.13229 0,-0.0728 0.05953,-0.13229 0.13229,-0.13229 0.04276,0 0.07913,0.022 0.10335,0.0537 0.12458,-0.53969 -0.10971,-0.93201 -0.72141,-1.1911 -0.461,-0.19528 -0.70841,-0.47093 -0.64129,-0.71468 0.08166,-0.29659 0.04973,-0.31234 -0.12661,-0.063 -0.17878,0.25274 -0.38703,0.17262 -0.85988,-0.33072 -0.39555,-0.42105 -0.81475,-0.66047 -1.0733,-0.66301 z m 3.4226,2.9625 c -0.01101,0.0477 -0.02052,0.0947 -0.03721,0.14469 -0.0076,0.0228 -0.02066,0.0419 -0.03462,0.0599 0.05734,-0.0145 0.10077,-0.0644 0.10077,-0.12609 0,-0.03 -0.01195,-0.0563 -0.02894,-0.0786 z m -8.5695,-1.6412 c 0.07276,0 0.13229,0.0595 0.13229,0.13229 0,0.0728 -0.05953,0.13229 -0.13229,0.13229 -0.07276,0 -0.13229,-0.0595 -0.13229,-0.13229 0,-0.0728 0.05953,-0.13229 0.13229,-0.13229 z m 14.022,0.52916 c 0.07276,0 0.13229,0.0595 0.13229,0.13229 0,0.0727 -0.05953,0.13229 -0.13229,0.13229 -0.07276,0 -0.13229,-0.0595 -0.13229,-0.13229 0,-0.0728 0.05953,-0.13229 0.13229,-0.13229 z m -1.4888,0.0687 c -0.06034,-0.004 -0.13048,-0.003 -0.21032,0.003 -0.2994,0.0226 -0.49506,0.22034 -0.47542,0.48111 h 5.29e-4 c 0.027,0.35851 0.12388,0.38645 0.5085,0.14624 0.5431,-0.33919 0.59909,-0.60176 0.17673,-0.62994 z m -9.8953,0.0656 c 0.02894,0.0124 0.05635,0.0884 0.08527,0.22479 0.05725,0.27011 -0.01135,0.60615 -0.15244,0.74723 -0.16566,0.16566 -0.2023,-0.008 -0.10387,-0.49093 0.07056,-0.3461 0.12281,-0.50175 0.17105,-0.48111 z m 10.855,0.13022 c 0.07276,0 0.13229,0.0595 0.13229,0.13229 0,0.0728 -0.05953,0.13229 -0.13229,0.13229 -0.07276,0 -0.13229,-0.0595 -0.13229,-0.13229 0,-0.0728 0.05953,-0.13229 0.13229,-0.13229 z m -13.096,0.0155 c 0.06394,0 0.12771,0.0243 0.17622,0.0729 0.09701,0.097 0.01781,0.17622 -0.17622,0.17622 -0.19402,0 -0.27323,-0.0792 -0.17622,-0.17622 0.0485,-0.0485 0.11228,-0.0729 0.17622,-0.0729 z m 0.39687,0.51366 c 0.07276,0 0.13229,0.0595 0.13229,0.13229 0,0.0728 -0.05953,0.13229 -0.13229,0.13229 -0.07275,0 -0.13229,-0.0595 -0.13229,-0.13229 0,-0.0728 0.05953,-0.13229 0.13229,-0.13229 z m 11.052,0.83663 c 0.02936,-6.7e-4 0.07992,0.0202 0.15089,0.0641 0.168,0.10383 0.3054,0.24123 0.3054,0.3054 0,0.22069 -0.2337,0.11637 -0.42219,-0.18862 -0.0731,-0.11828 -0.08303,-0.17978 -0.03411,-0.18086 z m 1.8009,0.0873 c 0.14231,-0.0156 0.24288,0.0369 0.24288,0.14262 0,0.14095 -0.1786,0.25631 -0.39687,0.25631 -0.21827,0 -0.39687,-0.0467 -0.39687,-0.10387 0,-0.0572 0.1786,-0.17255 0.39687,-0.25631 0.05457,-0.0209 0.10656,-0.0336 0.15399,-0.0388 z m -10.391,0.13436 c -0.23853,0 -0.47333,0.11933 -0.52194,0.26511 -0.05864,0.17592 -0.39388,0.17757 -0.99683,0.005 -1.1721,-0.33615 -1.315,-0.16179 -0.54207,0.66092 0.4582,0.48773 0.54562,0.74215 0.32916,0.95857 -0.39475,0.39475 -1.7397,0.057 -1.496,-0.37568 0.12653,-0.22462 0.06996,-0.21907 -0.18552,0.0186 -0.31284,0.29104 -0.30871,0.37867 0.02739,0.59118 0.25986,0.16429 0.28244,0.25106 0.06614,0.25373 -0.20192,0.002 -0.29731,0.28903 -0.24753,0.7436 0.10747,0.98167 0.37946,1.3813 0.92241,1.356 0.27545,-0.0129 0.32041,-0.0718 0.11679,-0.15399 -0.43939,-0.17729 -0.4056,-0.89439 0.07183,-1.5255 0.4368,-0.57737 0.66457,-0.4681 0.72603,0.34779 0.02316,0.30747 0.14893,0.55914 0.27905,0.55914 0.13011,0 0.16361,-0.20836 0.07493,-0.46301 -0.15356,-0.44095 -0.1439,-0.44095 0.19947,0 0.19829,0.25465 0.52588,0.4722 0.72812,0.48368 0.24789,0.0141 0.26461,0.0627 0.05167,0.14934 -0.17367,0.0707 -0.25359,0.29019 -0.17777,0.48783 0.07583,0.19762 -0.10506,0.60271 -0.40203,0.89968 -0.54879,0.54879 -0.52725,0.61216 0.31109,0.91106 0.34927,0.12452 0.45349,0.0497 0.39687,-0.28421 -0.04297,-0.25345 0.09827,-0.46302 0.32038,-0.47593 0.74392,-0.0433 0.79017,0.17198 0.16278,0.75344 -0.62269,0.57708 -0.69193,0.70479 -0.69193,1.2743 0,0.19352 -0.15633,0.17047 -0.44804,-0.0661 -0.30416,-0.24673 -0.38356,-0.25676 -0.24856,-0.032 0.31744,0.52839 -0.07878,0.93968 -0.53794,0.55861 -0.31506,-0.26148 -0.4392,-0.25206 -0.62372,0.0465 -0.14405,0.23308 -0.11171,0.44825 0.0863,0.57411 0.2185,0.1389 0.22439,0.20287 0.0186,0.20567 -0.16408,0.002 -0.46175,-0.19769 -0.66145,-0.44389 -0.30996,-0.38211 -0.30826,-0.41449 0.0124,-0.22117 0.28694,0.17297 0.33258,0.11543 0.1943,-0.24494 -0.15145,-0.39467 -0.06822,-0.4505 0.50694,-0.34054 0.57184,0.10931 0.6656,0.0478 0.55758,-0.36536 -0.14066,-0.53789 0.33221,-0.67288 0.78186,-0.22324 0.18814,0.18814 0.27336,0.14689 0.27336,-0.13229 0,-0.22312 -0.12115,-0.40565 -0.26924,-0.40565 -0.2659,0 -2.5528,-1.0467 -2.5528,-1.1684 0,-0.0346 0.35718,-0.0103 0.79374,0.0537 0.6021,0.0884 0.79374,0.0132 0.79374,-0.31056 0,-0.23479 0.13192,-0.42685 0.293,-0.42685 0.16286,0 0.21876,0.19259 0.12609,0.43407 -0.14075,0.36681 -0.10281,0.3811 0.24494,0.0925 0.4332,-0.35956 0.42809,-0.82655 -0.0093,-0.83716 -0.14188,-0.003 -0.46381,-0.11609 -0.71519,-0.25063 -0.35493,-0.18995 -0.42277,-0.15515 -0.30334,0.15607 0.20392,0.53141 -0.58861,0.82231 -1.095,0.40203 -0.32787,-0.27212 -0.39325,-0.22971 -0.39325,0.2527 0,0.64804 0.46055,1.6386 0.89193,1.9187 0.1559,0.10123 0.19634,0.27133 0.08992,0.37774 -0.10642,0.10642 -0.35112,-0.022 -0.54363,-0.28524 -0.33599,-0.45952 -0.35102,-0.45894 -0.37258,0.0191 -0.0046,0.10261 -2.4e-5,0.20924 0.01137,0.31728 0.15635,0.70045 0.52503,1.3173 1.0356,1.7833 0.59583,0.1759 1.0729,-0.0864 0.83507,-0.47127 -0.1019,-0.16487 -0.05532,-0.21145 0.10955,-0.10955 0.15794,0.0976 0.36576,0.051 0.46145,-0.10387 0.0957,-0.15486 0.41981,-0.24643 0.72037,-0.20309 0.40523,0.0584 0.70632,-0.20717 1.1653,-1.0283 0.67986,-1.2164 0.58589,-2.0569 -0.20722,-1.8495 -0.27082,0.0708 -0.5593,0.0213 -0.64079,-0.11059 -0.08149,-0.13185 -0.02233,-0.23978 0.13177,-0.23978 0.1541,0 0.28059,-0.12598 0.28059,-0.28008 0,-0.15411 -0.10231,-0.21733 -0.22738,-0.14004 -0.34591,0.21378 -0.1226,-1.1912 0.24339,-1.5312 0.24637,-0.22885 0.2849,-0.15038 0.16588,0.34054 -0.18674,0.77022 0.21446,1.6107 0.76892,1.6107 0.23738,0 0.32559,0.12556 0.21446,0.3054 -0.11267,0.18231 -0.07321,0.23408 0.09818,0.12816 0.15794,-0.0976 0.35525,-0.0681 0.4382,0.0661 0.08296,0.13423 0.39555,0.18011 0.69505,0.1018 0.39867,-0.10425 0.58366,0.007 0.69039,0.41497 l 0.14573,0.55758 0.47749,-0.58858 c 0.26249,-0.32377 0.57345,-0.49273 0.6909,-0.37568 0.11745,0.11705 0.03836,0.3235 -0.1757,0.45889 -0.34059,0.21542 -0.33959,0.24714 0.0078,0.25425 0.32842,0.007 0.33377,0.0476 0.03204,0.23874 -0.20054,0.12702 -0.28292,0.36324 -0.18293,0.52503 0.11153,0.18046 -0.03449,0.29456 -0.37827,0.29456 -0.33006,0 -0.48889,0.11621 -0.38602,0.28268 0.09606,0.15541 0.33263,0.22182 0.52554,0.14779 0.40854,-0.15677 1.034,0.49175 0.81543,0.84541 -0.08181,0.13237 -0.4478,0.18305 -0.81337,0.11317 -0.36557,-0.0699 -0.59951,-0.23234 -0.51985,-0.3612 0.36184,-0.58546 -0.23708,-0.73828 -0.93791,-0.23926 -0.41243,0.29366 -0.88028,0.53432 -1.0397,0.53432 -0.43635,0 -0.34835,-0.45042 0.12351,-0.63147 0.22746,-0.0873 0.33218,-0.29043 0.23254,-0.45164 -0.12045,-0.19489 -0.36671,-0.10819 -0.73432,0.25941 -0.43285,0.43285 -0.48288,0.62248 -0.23202,0.87332 0.17623,0.17624 0.32038,0.47998 0.32038,0.67489 0,0.2898 -0.06765,0.29241 -0.36949,0.0134 -0.203,-0.18763 -0.31464,-0.43037 -0.24856,-0.5395 0.06607,-0.10914 -0.06932,-0.19844 -0.30075,-0.19844 -0.23142,0 -0.50106,0.20836 -0.59893,0.46302 -0.15058,0.39182 -0.20634,0.36128 -0.36224,-0.19844 -0.1749,-0.6279 -0.18528,-0.63126 -0.21032,-0.0661 -0.0145,0.32742 -0.15233,0.5953 -0.30644,0.5953 -0.15411,0 -0.20147,-0.12796 -0.1049,-0.28421 0.09657,-0.15626 -0.07006,-0.13079 -0.37052,0.0568 -0.2149,0.13421 -0.32747,0.24449 -0.34829,0.33951 0.30776,0.16453 0.64399,0.28191 0.9994,0.34673 1.342,0.0728 3.6494,-0.11295 3.7425,-0.39274 0.0605,-0.18189 -0.08872,-0.33072 -0.33125,-0.33072 -0.24253,0 -0.39348,-0.14139 -0.33588,-0.31419 0.15463,-0.46389 0.73275,-0.58377 0.73275,-0.15193 0,0.26418 0.29352,0.3556 1.0144,0.31625 0.70018,-0.0382 1.0144,0.0548 1.0144,0.30025 0,0.19553 -0.12916,0.27463 -0.2868,0.17622 -0.42391,-0.26468 -1.4774,-0.27971 -1.4774,-0.0212 0,0.12304 0.26789,0.23694 0.59531,0.25321 0.32742,0.0163 1,0.0758 1.4945,0.13229 0.49442,0.0565 1.06,-0.031 1.2568,-0.1943 0.26451,-0.21952 0.35761,-0.21956 0.35761,0 0,0.235 0.65518,0.31398 1.3146,0.24133 0.43777,-0.0673 0.84705,-0.21533 1.2133,-0.43047 -0.06895,0.008 -0.17936,0.0276 -0.34467,0.0589 -0.32726,0.0621 -0.65698,0.0133 -0.73225,-0.10852 -0.07527,-0.12179 -0.41264,-0.17121 -0.74982,-0.11007 -0.4079,0.074 -0.61287,-0.016 -0.61287,-0.26871 0,-0.28625 0.1196,-0.31609 0.48524,-0.1204 0.52749,0.28231 0.56668,0.23398 0.324,-0.39843 -0.08833,-0.23017 -0.39952,-0.41857 -0.69193,-0.41857 -0.39817,0 -0.49754,0.13041 -0.39584,0.51934 0.07471,0.28569 -0.03041,0.65716 -0.23357,0.82578 -0.30691,0.25471 -0.34215,0.16984 -0.20774,-0.50228 0.14513,-0.72564 0.10438,-0.79408 -0.39687,-0.66301 -0.32231,0.0843 -0.55914,0.0211 -0.55914,-0.14934 0,-0.27223 0.42878,-0.39714 1.2568,-0.36639 0.18189,0.007 0.33072,-0.26217 0.33072,-0.5979 0,-0.89899 0.27821,-1.4679 0.62322,-1.2749 0.2157,0.1207 0.21343,0.073 -0.0072,-0.16588 -0.17052,-0.1846 -0.2537,-0.48244 -0.185,-0.66145 0.06864,-0.17902 -0.17878,-0.52424 -0.54987,-0.76739 -0.58716,-0.38473 -0.67489,-0.38994 -0.67489,-0.0393 0,0.22163 0.10788,0.40306 0.23978,0.40306 0.13185,0 0.19046,0.26789 0.1297,0.5953 -0.06074,0.32742 -0.03978,0.44584 0.04703,0.26303 0.0868,-0.18278 0.26255,-0.26799 0.39015,-0.18913 0.38428,0.23749 -0.32549,1.4474 -0.84904,1.4474 -0.50921,0 -0.65891,-0.3919 -0.24701,-0.64648 0.13185,-0.0815 0.17851,-0.38282 0.10335,-0.67023 -0.10387,-0.39719 -0.24442,-0.46545 -0.58496,-0.28318 -0.25463,0.13628 -0.60777,0.14131 -0.81803,0.0114 -0.43164,-0.26675 -0.8702,-0.075 -0.64854,0.28371 0.08372,0.13546 0.02646,0.24649 -0.12764,0.24649 -0.26256,0 -0.42619,-0.8643 -0.27543,-1.4552 0.14688,-0.57591 0.23137,-1.5577 0.09556,-1.1105 -0.12092,0.39811 -0.21754,0.42227 -0.58549,0.14521 -0.37208,-0.28019 -0.38917,-0.27424 -0.11007,0.0388 0.36467,0.40893 0.44492,1.0588 0.13074,1.0588 -0.10999,0 -0.36353,-0.36935 -0.56326,-0.82062 -0.24879,-0.56205 -0.42743,-0.71635 -0.56739,-0.4899 -0.19988,0.32342 -0.07175,0.55908 0.86764,1.5942 0.25467,0.28061 0.37372,0.50842 0.26458,0.50643 -0.71619,-0.013 -1.3665,-0.39751 -1.6226,-0.95964 -0.16387,-0.35967 -0.3996,-0.59126 -0.52347,-0.51469 -0.12388,0.0766 -0.16895,-0.15531 -0.10025,-0.51469 0.07251,-0.3793 9.52e-4,-0.6532 -0.17053,-0.6532 -0.16248,0 -0.37293,-0.0298 -0.46817,-0.0661 -0.09526,-0.0364 -0.20561,0.15317 -0.24494,0.42116 -0.11064,0.75387 -0.28646,0.79303 -0.88314,0.19637 -0.69241,-0.69241 -0.69905,-0.91648 -0.02222,-0.73947 0.29088,0.0761 0.59546,0.0306 0.67695,-0.10128 0.08149,-0.13185 0.37951,-0.23978 0.66198,-0.23978 0.28244,0 0.51366,-0.12598 0.51366,-0.28008 0,-0.1541 -0.14883,-0.19459 -0.33072,-0.0899 -0.19215,0.11057 -0.23868,0.0893 -0.11059,-0.0507 0.12126,-0.13247 0.29985,-0.25114 0.39687,-0.26406 0.09701,-0.0129 0.44285,-0.13411 0.76842,-0.26924 0.58266,-0.24183 0.58369,-0.2509 0.06614,-0.57411 -0.31279,-0.19534 -0.52554,-0.22022 -0.52554,-0.0615 0,0.14675 -0.12435,0.26664 -0.27596,0.26664 -0.1516,0 -0.53495,0.24193 -0.85213,0.53742 -0.68108,0.63452 -1.3408,0.58234 -1.4754,-0.11627 -0.07225,-0.37517 0.01381,-0.45619 0.34882,-0.32763 0.24486,0.094 0.70024,-0.008 1.0118,-0.22582 0.44783,-0.31366 0.47561,-0.39687 0.13281,-0.39687 z m 0.71312,0 c -0.07276,0 -0.13229,0.0595 -0.13229,0.13229 0,0.0728 0.05953,0.13229 0.13229,0.13229 0.07275,0 0.13229,-0.0595 0.13229,-0.13229 0,-0.0728 -0.05953,-0.13229 -0.13229,-0.13229 z m 2.1166,0 c 0.07276,0 0.13229,0.0595 0.13229,0.13229 0,0.0728 -0.05953,0.13229 -0.13229,0.13229 -0.07276,0 -0.13229,-0.0595 -0.13229,-0.13229 0,-0.0728 0.05953,-0.13229 0.13229,-0.13229 z m 4.2328,0.26458 c 0.07276,0 0.13229,0.0595 0.13229,0.13229 0,0.0728 -0.05953,0.13229 -0.13229,0.13229 -0.07276,0 -0.13229,-0.0595 -0.13229,-0.13229 0,-0.0728 0.05953,-0.13229 0.13229,-0.13229 z m 3.9708,0.72037 c -0.01871,-0.005 -0.03861,0.0188 -0.05891,0.0734 -0.21595,0.58036 -1.0527,1.3229 -1.4909,1.3229 -0.50019,0 -0.73699,0.65206 -0.36999,1.0191 0.20977,0.2098 0.20816,0.46765 -0.0052,0.93585 -0.23433,0.51429 -0.21694,0.67579 0.08372,0.79115 0.21222,0.0814 0.35007,0.004 0.31472,-0.17622 -0.03463,-0.17666 0.08579,-0.29114 0.26768,-0.25476 0.18189,0.0364 0.33072,-0.0529 0.33072,-0.19844 0,-0.14552 -0.12598,-0.26458 -0.28008,-0.26458 -0.1541,0 -0.20798,-0.11688 -0.11989,-0.25941 0.23364,-0.37803 1.1709,0.27506 1.0072,0.70174 -0.07348,0.1915 -0.22625,0.29098 -0.34004,0.22066 -0.11378,-0.0703 -0.35398,0.0489 -0.53382,0.26561 -0.17982,0.21667 -0.21614,0.39428 -0.08061,0.39428 0.13552,0 0.47717,0.18744 0.75964,0.4165 0.28246,0.22907 0.37605,0.34782 0.20774,0.26406 -0.19943,-0.0992 -0.25766,0.0322 -0.16743,0.37724 0.08279,0.31657 0.008,0.52969 -0.18552,0.52969 -0.17802,0 -0.26244,-0.15992 -0.18758,-0.35501 0.07486,-0.19509 0.01711,-0.52252 -0.12867,-0.7276 -0.20631,-0.29022 -0.23054,-0.26495 -0.108,0.11265 0.10397,0.32041 0.04543,0.44537 -0.17312,0.36896 -0.18199,-0.0636 -0.29596,-0.3113 -0.25321,-0.55086 0.04521,-0.25329 -0.09708,-0.43563 -0.34004,-0.43563 -0.33104,0 -0.3612,0.10606 -0.14418,0.51159 0.36753,0.68672 0.35589,0.7281 -0.25476,0.8878 -0.64621,0.16899 -0.97725,-0.27326 -0.52038,-0.69505 0.25542,-0.23581 0.28934,-0.23022 0.14624,0.0232 -0.10269,0.18189 -0.0516,0.33072 0.11317,0.33072 0.37864,0 0.23086,-0.84803 -0.17104,-0.98183 -0.16453,-0.0548 -0.37636,0.20786 -0.47077,0.58393 -0.09439,0.37607 -0.28715,0.61232 -0.42838,0.52503 -0.56326,-0.34811 -0.21034,0.59972 0.52194,1.4015 h 5.29e-4 c 0.70032,0.76673 1.5914,1.2128 1.219,0.61028 -0.08225,-0.13309 1.32e-4,-0.31205 0.18293,-0.3979 0.1828,-0.0858 0.01099,-0.11386 -0.3819,-0.062 -0.77556,0.10237 -1.1473,-0.373 -0.66714,-0.85316 0.43706,-0.43706 0.93495,-0.36335 1.5746,0.23254 0.40293,0.37536 0.45759,0.5304 0.18758,0.53329 -0.32461,0.004 -0.32324,0.0398 0.0093,0.25011 0.09076,0.0574 0.17709,0.0858 0.2558,0.092 0.14034,-0.16756 0.26437,-0.3489 0.37102,-0.54157 -0.02467,-0.087 -0.07043,-0.17748 -0.14314,-0.26511 -0.21667,-0.26106 -0.19466,-0.3099 0.09043,-0.2005 0.30914,0.11863 0.37838,-0.2777 0.38189,-2.1895 0.0041,-2.2465 -0.01866,-2.3363 -0.60462,-2.3848 -0.33485,-0.0277 -0.60925,0.0638 -0.60925,0.20309 0,0.13932 -0.17788,0.18472 -0.39531,0.10128 -0.57448,-0.22045 -0.21236,-0.62528 0.55914,-0.62528 0.45876,0 0.6003,-0.10136 0.46248,-0.33072 -0.13501,-0.22472 -0.05509,-0.21417 0.24908,0.0325 0.40637,0.32964 0.44579,0.26863 0.42685,-0.66145 -0.0086,-0.42261 -0.05342,-0.68746 -0.10955,-0.70124 z m -13.363,0.0734 c -0.14551,0 -0.26458,0.1786 -0.26458,0.39687 0,0.21827 0.11907,0.39687 0.26458,0.39687 0.14551,0 0.26458,-0.1786 0.26458,-0.39687 0,-0.21827 -0.11907,-0.39687 -0.26458,-0.39687 z m 1.4552,0 c -0.07276,0 -0.13229,0.0595 -0.13229,0.13229 0,0.0727 0.05953,0.13229 0.13229,0.13229 0.07276,0 0.13229,-0.0595 0.13229,-0.13229 0,-0.0728 -0.05953,-0.13229 -0.13229,-0.13229 z m 5.644,0.26458 c -0.26423,0 -0.29054,0.37091 -0.04393,0.61753 0.24524,0.24524 0.26458,0.22895 0.26458,-0.22065 0,-0.21827 -0.09939,-0.39687 -0.22065,-0.39687 z m 0.68108,0.0475 c -0.06325,-0.01 -0.108,0.0715 -0.108,0.21704 0,0.19402 0.07972,0.27323 0.17673,0.17622 0.09701,-0.097 0.09701,-0.25542 0,-0.35242 -0.02425,-0.0242 -0.04765,-0.0377 -0.06873,-0.0408 z m 2.5109,0.6139 -0.25683,0.63354 c -0.14121,0.34853 -0.2245,0.64621 -0.185,0.66145 0.03951,0.0152 0.30996,0.16979 0.60099,0.34313 0.29104,0.17334 0.61846,0.32213 0.7276,0.33073 0.35229,0.0276 0.21077,-0.52591 -0.17208,-0.67283 -0.20393,-0.0783 -0.44807,-0.40147 -0.5426,-0.71881 z m -10.673,0.39687 c 0.06417,0 0.11679,0.11906 0.11679,0.26458 0,0.14552 -0.12598,0.26458 -0.28008,0.26458 -0.1541,0 -0.20672,-0.11906 -0.11679,-0.26458 0.08993,-0.14552 0.21591,-0.26458 0.28008,-0.26458 z m 2.8948,0 c 0.07275,0 0.13229,0.0595 0.13229,0.13229 0,0.0728 -0.05953,0.13229 -0.13229,0.13229 -0.07276,0 -0.13229,-0.0595 -0.13229,-0.13229 0,-0.0728 0.05953,-0.13229 0.13229,-0.13229 z m 4.0716,0 c -0.1294,0 -0.23512,0.35028 -0.23512,0.77824 0,0.42796 -0.13578,0.86147 -0.30128,0.96376 -0.18557,0.11468 -0.0081,0.30974 0.46302,0.509 0.63301,0.2677 0.84335,0.2545 1.2263,-0.078 0.35057,-0.30445 0.39047,-0.48746 0.16588,-0.75807 -0.16282,-0.19619 -0.19207,-0.36052 -0.06511,-0.36536 0.29797,-0.0114 -0.94212,-1.0495 -1.2537,-1.0495 z m 1.4841,0.26458 c -0.07276,0 -0.13229,0.0595 -0.13229,0.13229 0,0.0728 0.05953,0.13229 0.13229,0.13229 0.07275,0 0.13229,-0.0595 0.13229,-0.13229 0,-0.0728 -0.05953,-0.13229 -0.13229,-0.13229 z m -0.93378,0.32297 c 0.19891,-0.009 0.30292,0.24309 0.51469,1.1255 0.03405,0.14188 -0.06568,0.30078 -0.22221,0.35295 -0.16553,0.0552 -0.21582,-0.0849 -0.11989,-0.33485 0.10811,-0.28172 0.03962,-0.40341 -0.19843,-0.35295 -0.43293,0.0917 -0.49468,-0.62867 -0.06614,-0.77152 0.03286,-0.011 0.06357,-0.0178 0.09198,-0.0191 z m 5.5485,0.20619 c 0.13693,0 0.32244,0.11906 0.41237,0.26458 0.08993,0.14552 -0.02222,0.26458 -0.24908,0.26458 -0.22686,0 -0.41237,-0.11906 -0.41237,-0.26458 0,-0.14552 0.11215,-0.26458 0.24908,-0.26458 z m -3.1543,0.40669 c -0.15964,0.003 -0.29083,0.0381 -0.36536,0.11265 -0.18949,0.18949 -0.13541,0.28464 0.17518,0.30747 0.24738,0.0182 0.56864,0.0628 0.71416,0.0992 0.14552,0.0364 0.39108,0.081 0.54517,0.0992 0.15411,0.0182 0.20509,0.1539 0.11369,0.30178 -0.0914,0.14789 -0.26426,0.20813 -0.38446,0.13384 -0.12021,-0.0743 -0.28707,0.043 -0.37052,0.26045 -0.10111,0.26349 0.01279,0.39531 0.34107,0.39531 0.52286,0 0.92209,-0.66854 0.65629,-1.0986 -0.21336,-0.34523 -0.9463,-0.62084 -1.4252,-0.61132 z m -5.399,0.21342 c -0.09487,-0.016 -0.16175,0.0426 -0.16175,0.15813 0,0.1541 0.11907,0.28008 0.26458,0.28008 0.14551,0 0.26458,-0.0526 0.26458,-0.11679 0,-0.0642 -0.11907,-0.19015 -0.26458,-0.28008 -0.03638,-0.0225 -0.07121,-0.036 -0.10283,-0.0413 z m -0.84801,0.22117 c 0.02108,0.003 0.04448,0.0166 0.06873,0.0408 0.09701,0.097 0.09701,0.25542 0,0.35242 -0.09701,0.097 -0.17622,0.0178 -0.17622,-0.17622 0,-0.14552 0.04424,-0.22655 0.10749,-0.21704 z m -2.0918,0.21704 c 0.07275,0 0.13229,0.0595 0.13229,0.13229 0,0.0728 -0.05953,0.13229 -0.13229,0.13229 -0.07276,0 -0.13229,-0.0595 -0.13229,-0.13229 0,-0.0728 0.05953,-0.13229 0.13229,-0.13229 z m 10.847,0.52916 c -0.07276,0 -0.13229,0.0595 -0.13229,0.13229 0,0.0728 0.05953,0.13229 0.13229,0.13229 0.07276,0 0.13229,-0.0595 0.13229,-0.13229 0,-0.0728 -0.05953,-0.13229 -0.13229,-0.13229 z m -5.5557,0.26458 c 0.07276,0 0.13229,0.0595 0.13229,0.13229 0,0.0728 -0.05953,0.13229 -0.13229,0.13229 -0.07276,0 -0.13229,-0.0595 -0.13229,-0.13229 0,-0.0728 0.05953,-0.13229 0.13229,-0.13229 z m 6.3494,0.26458 c 0.07276,0 0.13229,0.0595 0.13229,0.13229 0,0.0728 -0.05953,0.13229 -0.13229,0.13229 -0.07275,0 -0.13229,-0.0595 -0.13229,-0.13229 0,-0.0728 0.05953,-0.13229 0.13229,-0.13229 z m -5.2326,0.12506 c 0.03653,-0.002 0.07226,0.006 0.10542,0.0269 0.13264,0.082 0.17312,0.25986 0.0894,0.39531 -0.2488,0.40256 -0.64661,0.27982 -0.48214,-0.14883 0.06258,-0.16308 0.17772,-0.26659 0.28731,-0.27336 z m -5.3501,0.13952 c -0.07275,0 -0.13229,0.0595 -0.13229,0.13229 0,0.0728 0.05953,0.13229 0.13229,0.13229 0.07276,0 0.13229,-0.0595 0.13229,-0.13229 0,-0.0728 -0.05953,-0.13229 -0.13229,-0.13229 z m 0.93894,0.3979 c 0.12553,-0.007 0.15126,0.0848 0.07751,0.27699 -0.08092,0.21086 -0.25349,0.38343 -0.38343,0.38343 -0.38036,0 -0.27119,-0.45899 0.14728,-0.61959 0.06406,-0.0246 0.1168,-0.0383 0.15864,-0.0408 z m 2.0954,0.0233 c -0.05538,-0.002 -0.11268,0.007 -0.16846,0.0289 -0.29503,0.11321 -0.31469,0.20366 -0.07648,0.35089 0.17698,0.10938 0.22975,0.34496 0.11782,0.52606 -0.15295,0.24749 -0.26204,0.22212 -0.44389,-0.10283 -0.13261,-0.23696 -0.37245,-0.43047 -0.53329,-0.43047 -0.16084,0 -0.08034,0.23403 0.1788,0.52038 0.36314,0.40126 0.5847,0.45981 0.96685,0.25528 0.55324,-0.29609 0.5575,-0.30702 0.34157,-0.8697 -0.06497,-0.16931 -0.21678,-0.27334 -0.38293,-0.27852 z m 2.2272,0.46198 c 0.09488,-0.0183 0.16175,0.0345 0.16175,0.14366 0,0.14551 -0.11907,0.33845 -0.26458,0.42838 -0.14551,0.0899 -0.26406,0.0442 -0.26406,-0.10128 0,-0.14551 0.11855,-0.33795 0.26406,-0.42788 0.03638,-0.0225 0.07121,-0.0368 0.10283,-0.0429 z m -1.2929,0.17518 c -0.07276,0 -0.13229,0.0595 -0.13229,0.13229 0,0.0727 0.05953,0.13229 0.13229,0.13229 0.07275,0 0.13229,-0.0595 0.13229,-0.13229 0,-0.0728 -0.05953,-0.13229 -0.13229,-0.13229 z m 1.9999,0.26458 c 0.1541,0 0.2062,0.11907 0.11627,0.26458 -0.08993,0.14551 -0.21591,0.26458 -0.28008,0.26458 -0.06417,0 -0.11679,-0.11907 -0.11679,-0.26458 0,-0.14551 0.1265,-0.26458 0.28059,-0.26458 z m 1.9844,0 c 0.06417,0 0.11627,0.11907 0.11627,0.26458 0,0.14551 -0.12598,0.26458 -0.28008,0.26458 -0.1541,0 -0.20672,-0.11907 -0.11679,-0.26458 0.08993,-0.14551 0.21643,-0.26458 0.28059,-0.26458 z m -6.8947,0.26458 c -0.07276,0 -0.13229,0.0595 -0.13229,0.13229 0,0.0727 0.05953,0.13229 0.13229,0.13229 0.07276,0 0.13229,-0.0595 0.13229,-0.13229 0,-0.0728 -0.05953,-0.13229 -0.13229,-0.13229 z m -0.81803,0.0475 c 0.02108,0.003 0.04396,0.0161 0.06821,0.0403 0.09701,0.097 0.09701,0.25593 0,0.35295 -0.09701,0.097 -0.17622,0.0178 -0.17622,-0.17622 0,-0.14552 0.04475,-0.22655 0.108,-0.21704 z m -3.4152,0.21704 c 0.07276,0 0.13229,0.0595 0.13229,0.13229 0,0.0728 -0.05953,0.13229 -0.13229,0.13229 -0.07276,0 -0.13229,-0.0595 -0.13229,-0.13229 0,-0.0728 0.05953,-0.13229 0.13229,-0.13229 z m 12.054,0 c -0.13693,0 -0.32295,0.11906 -0.41288,0.26458 -0.08993,0.14551 0.02222,0.26458 0.24908,0.26458 0.22686,0 0.41237,-0.11907 0.41237,-0.26458 0,-0.14552 -0.11163,-0.26458 -0.24856,-0.26458 z m -4.35,0.26458 c -0.07276,0 -0.20566,0.11907 -0.29559,0.26458 -0.08993,0.14551 -0.10428,0.26458 -0.03152,0.26458 0.07276,0 0.20617,-0.11907 0.29609,-0.26458 0.08993,-0.14551 0.10377,-0.26458 0.03101,-0.26458 z m 0.87798,0.83869 c 0.01993,0.002 0.04198,0.007 0.06615,0.0155 0.1729,0.0576 0.3615,0.24629 0.4191,0.41909 0.15873,0.47619 -0.38803,0.37602 -0.57258,-0.1049 -0.08652,-0.22546 -0.05215,-0.34618 0.08733,-0.32969 z m 4.5143,0.23512 c -0.06394,0 -0.12771,0.0238 -0.17622,0.0723 -0.09701,0.097 -0.01781,0.17673 0.17622,0.17673 0.02874,0 0.04936,-0.005 0.07286,-0.008 0.0458,-0.038 0.08855,-0.0796 0.13229,-0.11989 -0.0065,-0.0157 -0.01129,-0.0314 -0.02842,-0.0486 -0.04851,-0.0485 -0.11279,-0.0724 -0.17673,-0.0724 z m -9.6566,0.24908 c 0.07275,0 0.13229,0.0595 0.13229,0.13229 0,0.0727 -0.05953,0.13229 -0.13229,0.13229 -0.07276,0 -0.13229,-0.0595 -0.13229,-0.13229 0,-0.0728 0.05953,-0.13229 0.13229,-0.13229 z" />
    <path
       style="fill:#ffffff;stroke-width:0.26458001"
       inkscape:connector-curvature="0"
       id="path58"
       d="m 8.46656,257.69912 a 4.76244,4.76244 0 0 0 -4.76244,4.76244 4.76244,4.76244 0 0 0 2.2840662,4.06183 4.76244,4.76244 0 0 0 0.021188,0.0119 4.76244,4.76244 0 0 0 0.3880859,0.21136 4.76244,4.76244 0 0 0 0.058911,0.0264 4.76244,4.76244 0 0 0 0.3741426,0.15709 4.76244,4.76244 0 0 0 0.089915,0.03 4.76244,4.76244 0 0 0 0.3519178,0.10852 4.76244,4.76244 0 0 0 0.144175,0.032 4.76244,4.76244 0 0 0 0.3147179,0.063 4.76244,4.76244 0 0 0 0.1767315,0.0217 4.76244,4.76244 0 0 0 0.3038436,0.03 4.76244,4.76244 0 0 0 0.2547615,0.009 4.76244,4.76244 0 0 0 3.520766,-1.56319 4.76244,4.76244 0 0 0 0.04444,-0.0481 c -3.44e-4,-5.3e-4 -6.87e-4,-10e-4 -10e-4,-0.002 a 4.76244,4.76244 0 0 0 1.198362,-3.14956 4.76244,4.76244 0 0 0 -4.7624401,-4.76244 z m 0,0.52916 a 4.23328,4.23328 0 0 1 4.23328,4.23328 4.23328,4.23328 0 0 1 -0.989079,2.71856 c -0.728469,-0.85608 -1.8350215,-1.39577 -3.2442804,-1.39577 -1.4076979,0 -2.5136423,0.53813 -3.2421633,1.39267 a 4.23328,4.23328 0 0 1 -0.9911431,-2.71565 4.23328,4.23328 0 0 1 4.23328,-4.23328 z m 0,1.3229 a 1.58748,1.71977 0 0 0 -1.58748,1.71977 1.58748,1.71977 0 0 0 1.58748,1.71977 1.58748,1.71977 0 0 0 1.58748,-1.71977 1.58748,1.71977 0 0 0 -1.58748,-1.71977 z" />
    <path
       style="opacity:0.2;stroke-width:0.26458001"
       inkscape:connector-curvature="0"
       id="path60"
       d="m 8.4660308,263.78446 c -1.4075656,0 -2.5131395,0.53829 -3.2416341,1.39267 a 4.23328,4.23328 0 0 0 0.034107,0.0388 c 0.7284946,-0.83243 1.8209718,-1.35545 3.2075033,-1.35545 1.3882248,0 2.482104,0.52387 3.210678,1.35804 a 4.23328,4.23328 0 0 0 0.03411,-0.0382 C 10.982324,264.324 9.8754009,263.78447 8.4659832,263.78447 Z" />
    <path
       style="opacity:0.2;stroke-width:0.26458001"
       inkscape:connector-curvature="0"
       id="path62"
       d="m 8.46656,259.55118 a 1.58748,1.71977 0 0 0 -1.58748,1.71977 1.58748,1.71977 0 0 0 1.58748,1.71977 1.58748,1.71977 0 0 0 1.58748,-1.71977 1.58748,1.71977 0 0 0 -1.58748,-1.71977 z m 0,0.0992 a 1.5367336,1.6521963 0 0 1 1.536839,1.65206 1.5367336,1.6521963 0 0 1 -1.536839,1.65259 1.5367336,1.6521963 0 0 1 -1.5368394,-1.65259 1.5367336,1.6521963 0 0 1 1.5368394,-1.65206 z" />
    <path
       style="opacity:0.2;stroke-width:0.26458001"
       inkscape:connector-curvature="0"
       id="path64"
       d="m 8.46656,257.69912 a 4.76244,4.76244 0 0 0 -4.76244,4.76244 4.76244,4.76244 0 0 0 4.76244,4.76244 4.76244,4.76244 0 0 0 4.76244,-4.76244 4.76244,4.76244 0 0 0 -4.76244,-4.76244 z m 0,0.11627 a 4.686241,4.686241 0 0 1 4.686506,4.68651 4.686241,4.686241 0 0 1 -4.686506,4.6865 4.686241,4.686241 0 0 1 -4.6865055,-4.6865 4.686241,4.686241 0 0 1 4.6865055,-4.68651 z" />
    <path
       style="opacity:0.2;stroke-width:0.26458001"
       inkscape:connector-curvature="0"
       id="path66"
       d="m 8.46656,258.20288 a 4.2586797,4.2586797 0 0 0 -4.2586797,4.25868 4.2586797,4.2586797 0 0 0 0.9771998,2.71142 l 0.00103,-0.002 c 0.014322,0.002 0.02369,0.004 0.03824,0.006 a 4.23328,4.23328 0 0 1 -0.9911431,-2.71565 4.23328,4.23328 0 0 1 4.23328,-4.23328 4.23328,4.23328 0 0 1 4.23328,4.23328 4.23328,4.23328 0 0 1 -0.98908,2.71856 c 0.0078,-0.004 0.01293,-0.008 0.02067,-0.0129 l 0.0088,0.0124 a 4.2586797,4.2586797 0 0 0 0.98494,-2.71799 4.2586797,4.2586797 0 0 0 -4.2586799,-4.25868 z" />
    <path
       style="opacity:0.15;fill:#ffffff;stroke-width:1.00000656"
       inkscape:connector-curvature="0"
       id="path68"
       d="m 4.4983892,255.04507 c -1.9058227,0 -3.4400692,1.53422 -3.4400692,3.44006 v 0.27284 c 0,-1.90582 1.53422,-3.44007 3.4400692,-3.44007 H 12.43526 c 1.905823,0 3.440069,1.53422 3.440069,3.44007 v -0.27284 c 0,-1.90582 -1.53422,-3.44006 -3.440069,-3.44006 z" />
    <path
       style="opacity:0.15"
       inkscape:connector-curvature="0"
       id="path70"
       d="m 4.4983,269.87 c -1.9058,0 -3.44,-1.5342 -3.44,-3.44 v -0.27285 c 0,1.9058 1.5342,3.44 3.44,3.44 h 7.9368 c 1.9058,0 3.44,-1.5342 3.44,-3.44 V 266.43 c 0,1.9058 -1.5342,3.44 -3.44,3.44 z" />
    <circle
       style="opacity:0.75;fill:url(#radialGradient1105)"
       id="circle72"
       r="0.52916002"
       cy="260.08029"
       cx="2.1166" />
    <path
       style="fill:#ffffff;stroke:#000000;stroke-width:0.105832;stroke-linecap:round;stroke-linejoin:round;stroke-opacity:0.35"
       inkscape:connector-curvature="0"
       id="path74"
       d="m 1.0862332,258.06398 a 1.3229,1.3229 0 0 0 -0.82421963,1.22524 1.3229,1.3229 0 0 0 1.32290003,1.3229 1.3229,1.3229 0 0 0 0.2651091,-0.0269 0.13229,0.13229 0 0 0 0.00207,0 0.13229,0.13229 0 0 0 0.13229,-0.13229 0.13229,0.13229 0 0 0 -0.13229,-0.13229 v -0.005 a 1.0609129,1.0609129 0 0 1 -0.2671765,0.0346 1.0609129,1.0609129 0 0 1 -1.06091286,-1.06091 1.0609129,1.0609129 0 0 1 0.54053696,-0.92447 c 0.00348,-0.10134 0.00972,-0.20187 0.021704,-0.30075 z" />
    <path
       style="fill:#ffffff;stroke:#000000;stroke-width:0.105832;stroke-linecap:round;stroke-linejoin:round;stroke-opacity:0.35"
       inkscape:connector-curvature="0"
       id="path76"
       d="m 1.2045534,257.49037 a 1.3229,1.3229 0 0 0 -0.94256628,1.2671 1.3229,1.3229 0 0 0 1.32289998,1.3229 1.3229,1.3229 0 0 0 0.2671729,-0.0274 v -0.002 a 0.13229,0.13229 0 0 0 0.13229,-0.13229 0.13229,0.13229 0 0 0 -0.13229,-0.13229 v -0.003 a 1.0609129,1.0609129 0 0 1 -0.013952,0.003 0.13229,0.13229 0 0 0 -0.032557,0.008 1.0609129,1.0609129 0 0 1 -0.2206545,0.0238 1.0609129,1.0609129 0 0 1 -1.06091274,-1.06092 1.0609129,1.0609129 0 0 1 0.60252804,-0.95651 c 0.021129,-0.10549 0.047545,-0.20886 0.07803,-0.31056 z" />
    <circle
       style="opacity:0.75;fill:url(#radialGradient1111)"
       id="circle78"
       r="0.52916002"
       cy="263.51981"
       cx="2.1166" />
    <path
       style="fill:#ffffff;stroke:#000000;stroke-width:0.105832;stroke-linecap:round;stroke-linejoin:round;stroke-opacity:0.35"
       inkscape:connector-curvature="0"
       id="path80"
       d="m 1.05832,261.51542 a 1.3229,1.3229 0 0 0 -0.79633288,1.21334 1.3229,1.3229 0 0 0 1.32289998,1.3229 1.3229,1.3229 0 0 0 0.2671729,-0.0274 v -5.3e-4 a 0.13229,0.13229 0 0 0 0.13229,-0.13229 0.13229,0.13229 0 0 0 -0.13229,-0.13229 v -0.004 a 1.0609129,1.0609129 0 0 1 -0.2671729,0.0346 1.0609129,1.0609129 0 0 1 -1.06091287,-1.06091 1.0609129,1.0609129 0 0 1 0.53431927,-0.92138 v -0.29196 z" />
    <path
       style="fill:#ffffff;stroke:#000000;stroke-width:0.105832;stroke-linecap:round;stroke-linejoin:round;stroke-opacity:0.35"
       inkscape:connector-curvature="0"
       id="path82"
       d="m 1.05832,260.98362 a 1.3229,1.3229 0 0 0 -0.79633288,1.21333 1.3229,1.3229 0 0 0 1.32289998,1.3229 1.3229,1.3229 0 0 0 0.2671729,-0.0274 v -0.002 a 0.13229,0.13229 0 0 0 0.13229,-0.13229 0.13229,0.13229 0 0 0 -0.13229,-0.13229 v -0.003 a 1.0609129,1.0609129 0 0 1 -0.01912,0.005 1.0609129,1.0609129 0 0 1 -0.0031,5.3e-4 0.13229,0.13229 0 0 0 -0.017053,0.004 1.0609129,1.0609129 0 0 1 -0.00413,0.001 1.0609129,1.0609129 0 0 1 -0.2237601,0.0243 1.0609129,1.0609129 0 0 1 -1.06091288,-1.06092 1.0609129,1.0609129 0 0 1 0.53431928,-0.92137 v -0.29196 z" />
    <circle
       style="opacity:0.75;fill:url(#radialGradient1115)"
       id="circle84"
       r="0.52916002"
       cy="266.95901"
       cx="2.1166" />
    <path
       style="fill:#ffffff;stroke:#000000;stroke-width:0.105832;stroke-linecap:round;stroke-linejoin:round;stroke-opacity:0.35"
       inkscape:connector-curvature="0"
       id="path86"
       d="m 1.05832,264.95496 a 1.3229,1.3229 0 0 0 -0.79633288,1.21334 1.3229,1.3229 0 0 0 1.32289998,1.3229 1.3229,1.3229 0 0 0 0.2671729,-0.0274 v -0.002 a 0.13229,0.13229 0 0 0 0.13229,-0.13229 0.13229,0.13229 0 0 0 -0.13229,-0.13229 v -0.003 a 1.0609129,1.0609129 0 0 1 -0.016536,0.004 0.13229,0.13229 0 0 0 -0.022737,0.005 1.0609129,1.0609129 0 0 1 -0.00413,0.001 1.0609129,1.0609129 0 0 1 -0.2237553,0.0243 1.0609129,1.0609129 0 0 1 -1.06091288,-1.06091 1.0609129,1.0609129 0 0 1 0.53431928,-0.92138 v -0.29196 z" />
    <path
       style="fill:#ffffff;stroke:#000000;stroke-width:0.105832;stroke-linecap:round;stroke-linejoin:round;stroke-opacity:0.35"
       inkscape:connector-curvature="0"
       id="path88"
       d="m 1.05832,264.42316 a 1.3229,1.3229 0 0 0 -0.79633288,1.21333 1.3229,1.3229 0 0 0 1.32289998,1.3229 1.3229,1.3229 0 0 0 0.2671729,-0.0274 v -0.002 a 0.13229,0.13229 0 0 0 0.13229,-0.13229 0.13229,0.13229 0 0 0 -0.13229,-0.13229 v -0.003 a 1.0609129,1.0609129 0 0 1 -0.016536,0.004 0.13229,0.13229 0 0 0 -0.025838,0.006 0.13229,0.13229 0 0 0 -0.00103,0 1.0609129,1.0609129 0 0 1 -0.2237553,0.0243 1.0609129,1.0609129 0 0 1 -1.06091287,-1.06091 1.0609129,1.0609129 0 0 1 0.53431927,-0.92137 v -0.29197 z" />
  </g>
</svg>
