<?xml version="1.0" encoding="UTF-8" standalone="no"?>
<svg
   xmlns:dc="http://purl.org/dc/elements/1.1/"
   xmlns:cc="http://creativecommons.org/ns#"
   xmlns:rdf="http://www.w3.org/1999/02/22-rdf-syntax-ns#"
   xmlns:svg="http://www.w3.org/2000/svg"
   xmlns="http://www.w3.org/2000/svg"
   xmlns:sodipodi="http://sodipodi.sourceforge.net/DTD/sodipodi-0.dtd"
   xmlns:inkscape="http://www.inkscape.org/namespaces/inkscape"
   width="1024"
   height="1024"
   version="1.1"
   viewBox="0 0 270.928 270.928"
   id="svg64"
   sodipodi:docname="GSPdf.svg"
   inkscape:version="0.92.4 (5da689c313, 2019-01-14)"
   inkscape:export-filename="/home/bertrand/Desktop/BertrandDekoninck/RikIcons/PNG1024/AppIcons/GSPdf.png"
   inkscape:export-xdpi="96"
   inkscape:export-ydpi="96">
  <metadata
     id="metadata68">
    <rdf:RDF>
      <cc:Work
         rdf:about="">
        <dc:format>image/svg+xml</dc:format>
        <dc:type
           rdf:resource="http://purl.org/dc/dcmitype/StillImage" />
        <dc:title></dc:title>
        <cc:license
           rdf:resource="http://creativecommons.org/licenses/by/4.0/" />
      </cc:Work>
      <cc:License
         rdf:about="http://creativecommons.org/licenses/by/4.0/">
        <cc:permits
           rdf:resource="http://creativecommons.org/ns#Reproduction" />
        <cc:permits
           rdf:resource="http://creativecommons.org/ns#Distribution" />
        <cc:requires
           rdf:resource="http://creativecommons.org/ns#Notice" />
        <cc:requires
           rdf:resource="http://creativecommons.org/ns#Attribution" />
        <cc:permits
           rdf:resource="http://creativecommons.org/ns#DerivativeWorks" />
      </cc:License>
    </rdf:RDF>
  </metadata>
  <sodipodi:namedview
     pagecolor="#ffffff"
     bordercolor="#666666"
     borderopacity="1"
     objecttolerance="10"
     gridtolerance="10"
     guidetolerance="10"
     inkscape:pageopacity="0"
     inkscape:pageshadow="2"
     inkscape:window-width="1224"
     inkscape:window-height="672"
     id="namedview66"
     showgrid="false"
     inkscape:zoom="0.42382812"
     inkscape:cx="474.86057"
     inkscape:cy="399.51402"
     inkscape:window-x="54"
     inkscape:window-y="28"
     inkscape:window-maximized="0"
     inkscape:current-layer="layer2" />
  <defs
     id="defs14">
    <linearGradient
       id="linearGradient991"
       x1="4"
       x2="8"
       y1="31.969999"
       y2="31.969999"
       gradientUnits="userSpaceOnUse"
       gradientTransform="matrix(4.5154667,0,0,4.5154646,-9.0299117,-13.545781)">
      <stop
         stop-color="#1e170b"
         stop-opacity=".45"
         offset="0"
         id="stop2" />
      <stop
         stop-opacity=".15"
         offset=".48612"
         id="stop4" />
      <stop
         stop-opacity=".35"
         offset="1"
         id="stop6" />
    </linearGradient>
    <linearGradient
       id="linearGradient889"
       x1="7.2828369"
       x2="6.6107998"
       y1="18.372484"
       y2="2.3944399"
       gradientUnits="userSpaceOnUse"
       gradientTransform="matrix(17.066546,0,0,17.066538,-9.0299117,-13.545781)">
      <stop
         stop-color="#ce1921"
         offset="0"
         id="stop9"
         style="stop-color:#1500c9;stop-opacity:1" />
      <stop
         style="stop-color:#8d8fc1;stop-opacity:1"
         id="stop4131"
         offset="0.57405931"
         stop-color="#ce1921" />
      <stop
         stop-color="#f44"
         offset="1"
         id="stop11"
         style="stop-color:#44b0fd;stop-opacity:1;" />
    </linearGradient>
    <linearGradient
       id="linearGradient889-5"
       x1="7.2828369"
       x2="6.6107998"
       y1="18.372484"
       y2="2.3944399"
       gradientUnits="userSpaceOnUse"
       gradientTransform="matrix(17.066546,0,0,17.066538,-9.2499194,-14.682759)">
      <stop
         stop-color="#ce1921"
         offset="0"
         id="stop9-5"
         style="stop-color:#1500c9;stop-opacity:1" />
      <stop
         stop-color="#f44"
         offset="1"
         id="stop11-9"
         style="stop-color:#44b0fd;stop-opacity:1;" />
    </linearGradient>
    <linearGradient
       id="linearGradient991-8"
       x1="4"
       x2="8"
       y1="31.969999"
       y2="31.969999"
       gradientUnits="userSpaceOnUse"
       gradientTransform="matrix(4.5154667,0,0,4.5154646,-9.02991,-13.545823)">
      <stop
         stop-color="#1e170b"
         stop-opacity=".45"
         offset="0"
         id="stop2-3" />
      <stop
         stop-opacity=".15"
         offset=".48612"
         id="stop4-8" />
      <stop
         stop-opacity=".35"
         offset="1"
         id="stop6-5" />
    </linearGradient>
    <linearGradient
       id="linearGradient991-8-2"
       x1="4"
       x2="8"
       y1="31.969999"
       y2="31.969999"
       gradientUnits="userSpaceOnUse"
       gradientTransform="matrix(4.5154667,0,0,4.5154646,76.534039,-10.14165)">
      <stop
         stop-color="#1e170b"
         stop-opacity=".45"
         offset="0"
         id="stop2-3-2" />
      <stop
         stop-opacity=".15"
         offset=".48612"
         id="stop4-8-2" />
      <stop
         stop-opacity=".35"
         offset="1"
         id="stop6-5-7" />
    </linearGradient>
    <linearGradient
       id="linearGradient991-8-2-0"
       x1="4"
       x2="8"
       y1="31.969999"
       y2="31.969999"
       gradientUnits="userSpaceOnUse"
       gradientTransform="matrix(4.5154667,0,0,4.5154646,-9.1795154,-14.618749)">
      <stop
         stop-color="#1e170b"
         stop-opacity=".45"
         offset="0"
         id="stop2-3-2-3" />
      <stop
         stop-opacity=".15"
         offset=".48612"
         id="stop4-8-2-4" />
      <stop
         stop-opacity=".35"
         offset="1"
         id="stop6-5-7-6" />
    </linearGradient>
    <filter
       inkscape:label="Matte Ridge"
       inkscape:menu="Ridges"
       inkscape:menu-tooltip="Soft pastel ridge"
       style="color-interpolation-filters:sRGB;"
       id="filter4443">
      <feGaussianBlur
         stdDeviation="0.5"
         result="result1"
         id="feGaussianBlur4417" />
      <feBlend
         in="SourceGraphic"
         mode="normal"
         result="result5"
         in2="result1"
         id="feBlend4419" />
      <feGaussianBlur
         stdDeviation="3"
         result="result6"
         in="result5"
         id="feGaussianBlur4421" />
      <feComposite
         operator="xor"
         in="result6"
         in2="result6"
         result="result8"
         id="feComposite4423" />
      <feComposite
         operator="in"
         result="fbSourceGraphic"
         in="result6"
         in2="result8"
         id="feComposite4425" />
      <feColorMatrix
         result="fbSourceGraphicAlpha"
         in="fbSourceGraphic"
         values="0 0 0 -1 0 0 0 0 -1 0 0 0 0 -1 0 0 0 0 1 0 "
         id="feColorMatrix4427" />
      <feGaussianBlur
         result="result0"
         in="fbSourceGraphic"
         stdDeviation="0.5"
         id="feGaussianBlur4429" />
      <feSpecularLighting
         specularExponent="55"
         specularConstant="2"
         surfaceScale="2"
         lighting-color="rgb(255,255,255)"
         result="result1"
         in="result0"
         id="feSpecularLighting4433">
        <fePointLight
           z="20000"
           y="-10000"
           x="-5000"
           id="fePointLight4431" />
      </feSpecularLighting>
      <feComposite
         operator="arithmetic"
         result="result2"
         in="result1"
         in2="fbSourceGraphicAlpha"
         k1="1"
         id="feComposite4435" />
      <feComposite
         k3="1"
         k2="0.5"
         operator="arithmetic"
         result="result4"
         in="fbSourceGraphic"
         in2="result2"
         id="feComposite4437" />
      <feComposite
         operator="over"
         in="result9"
         in2="result4"
         result="result91"
         id="feComposite4439" />
      <feBlend
         mode="screen"
         in2="result91"
         id="feBlend4441" />
    </filter>
  </defs>
  <g
     inkscape:groupmode="layer"
     id="layer1"
     inkscape:label="Fond"
     sodipodi:insensitive="true">
    <g
       id="g4374">
      <path
         d="M 65.538952,-4.514894 C 29.456857,-4.514894 -1e-6,25.923277 -1e-6,63.208542 V 207.71944 c 0,37.28356 29.456858,67.72345 65.538953,67.72345 H 205.38905 c 36.08209,0 65.53895,-30.43818 65.53895,-67.72345 V 63.208542 c 0,-37.283559 -29.45686,-67.723436 -65.53895,-67.723436 z m 4.38678,8.889789 H 201.01046 c 31.47584,0 56.81625,26.183484 56.81625,58.708893 V 198.53748 c 0,32.52541 -25.3387,58.7089 -56.81625,58.7089 H 69.925732 c -31.47583,0 -56.816237,-26.18349 -56.816237,-58.7089 V 63.083788 c 0,-32.525409 25.338697,-58.708893 56.816237,-58.708893 z"
         dominant-baseline="auto"
         stop-color="#000000"
         style="color:#000000;font-variant-ligatures:normal;font-variant-position:normal;font-variant-caps:normal;font-variant-numeric:normal;font-variant-alternates:normal;font-feature-settings:normal;text-indent:0;text-decoration:none;text-decoration-line:none;text-decoration-style:solid;text-decoration-color:#000000;text-transform:none;text-orientation:mixed;dominant-baseline:auto;white-space:normal;shape-padding:0;opacity:0.01000001;isolation:auto;mix-blend-mode:normal;solid-color:#000000;stroke-width:17.06654167;color-rendering:auto;image-rendering:auto;shape-rendering:auto"
         id="path16"
         inkscape:connector-curvature="0" />
      <path
         d="M 65.358042,4e-4 C 31.791561,4e-4 4.534581,28.207975 4.534581,62.934965 V 207.9937 c 0,34.72701 27.25698,62.93458 60.823461,62.93458 H 205.5802 c 33.56649,0 60.83201,-28.20757 60.83201,-62.93458 V 62.934965 C 266.41221,28.207975 239.14669,4e-4 205.5802,4e-4 Z m 4.64586,4.374325 H 200.93503 c 31.43999,0 56.74797,26.183482 56.74797,58.708891 V 198.53732 c 0,32.52539 -25.30968,58.70888 -56.74797,58.70888 H 70.003902 c -31.44,0 -56.747976,-26.18349 -56.747976,-58.70888 V 63.083616 c 0,-32.525409 25.309686,-58.708891 56.747976,-58.708891 z"
         dominant-baseline="auto"
         stop-color="#000000"
         style="color:#000000;font-variant-ligatures:normal;font-variant-position:normal;font-variant-caps:normal;font-variant-numeric:normal;font-variant-alternates:normal;font-feature-settings:normal;text-indent:0;text-decoration:none;text-decoration-line:none;text-decoration-style:solid;text-decoration-color:#000000;text-transform:none;text-orientation:mixed;dominant-baseline:auto;white-space:normal;shape-padding:0;opacity:0.01000001;isolation:auto;mix-blend-mode:normal;solid-color:#000000;stroke-width:17.06654167;color-rendering:auto;image-rendering:auto;shape-rendering:auto"
         id="path18"
         inkscape:connector-curvature="0" />
      <path
         d="m 64.521782,4.515694 c -31.841053,0 -57.601298,26.253456 -57.601298,58.691824 V 207.71842 c 0,32.43838 26.794475,58.69182 58.635528,58.69182 H 205.49486 c 31.84107,0 58.49389,-26.25344 58.49389,-58.69182 V 63.207518 c 0,-32.438368 -25.77049,-58.691824 -57.60984,-58.691824 h -1.65341 c 30.6174,1.476512 54.84847,26.997558 54.84847,58.568946 v 135.45369 c 0,32.52542 -25.7005,58.70889 -57.6269,58.70889 H 68.990152 c -31.926393,0 -57.626906,-26.18347 -57.626906,-58.70889 V 63.08464 c 0,-31.569682 24.23279,-57.089277 54.848466,-58.568946 z"
         dominant-baseline="auto"
         stop-color="#000000"
         style="color:#000000;font-variant-ligatures:normal;font-variant-position:normal;font-variant-caps:normal;font-variant-numeric:normal;font-variant-alternates:normal;font-feature-settings:normal;text-indent:0;text-decoration:none;text-decoration-line:none;text-decoration-style:solid;text-decoration-color:#000000;text-transform:none;text-orientation:mixed;dominant-baseline:auto;white-space:normal;shape-padding:0;opacity:0.02999998;isolation:auto;mix-blend-mode:normal;solid-color:#000000;stroke-width:17.06654167;color-rendering:auto;image-rendering:auto;shape-rendering:auto"
         id="path20"
         inkscape:connector-curvature="0" />
      <path
         d="m 9.031957,198.54103 v 9.17181 c 0,30.01835 26.621836,54.18558 56.642015,54.18558 H 205.47734 c 30.01837,0 56.42075,-24.16723 56.42075,-54.18558 v -8.99571 c -0.0956,32.44317 -26.23486,58.53397 -58.70107,58.53397 H 67.742052 c -32.525808,0 -58.710095,-26.18383 -58.710095,-58.71007 z"
         dominant-baseline="auto"
         stop-color="#000000"
         style="color:#000000;font-variant-ligatures:normal;font-variant-position:normal;font-variant-caps:normal;font-variant-numeric:normal;font-variant-alternates:normal;font-feature-settings:normal;text-indent:0;text-decoration:none;text-decoration-line:none;text-decoration-style:solid;text-decoration-color:#000000;text-transform:none;text-orientation:mixed;dominant-baseline:auto;white-space:normal;shape-padding:0;opacity:0.02999998;isolation:auto;mix-blend-mode:normal;solid-color:#000000;stroke-width:4.51546574;color-rendering:auto;image-rendering:auto;shape-rendering:auto"
         id="path22"
         inkscape:connector-curvature="0" />
      <path
         d="m 9.031616,189.64837 v 10.1092 c 0,33.08519 26.84397,59.72093 56.862316,59.72093 H 205.16207 c 30.01835,0 56.73433,-26.63745 56.73433,-59.72093 v -9.91481 c -0.0956,35.75781 -26.23471,64.51322 -58.70039,64.51322 H 67.742242 c -32.525426,0 -58.70892,-28.85952 -58.70892,-64.70778 z"
         dominant-baseline="auto"
         stop-color="#000000"
         style="color:#000000;font-variant-ligatures:normal;font-variant-position:normal;font-variant-caps:normal;font-variant-numeric:normal;font-variant-alternates:normal;font-feature-settings:normal;text-indent:0;text-decoration:none;text-decoration-line:none;text-decoration-style:solid;text-decoration-color:#000000;text-transform:none;text-orientation:mixed;dominant-baseline:auto;white-space:normal;shape-padding:0;opacity:0.05;isolation:auto;mix-blend-mode:normal;solid-color:#000000;stroke-width:17.06654167;color-rendering:auto;image-rendering:auto;shape-rendering:auto"
         id="path24"
         inkscape:connector-curvature="0" />
      <path
         style="opacity:0.25;fill:#ffffff;stroke-width:17.06665421"
         inkscape:connector-curvature="0"
         id="path32"
         d="m 67.742052,4.375237 c -32.525808,0 -58.710095,26.183824 -58.710095,58.709916 v 4.656435 C 9.031957,35.215837 35.215792,9.0315 67.742052,9.0315 H 203.19703 c 32.52582,0 58.71009,26.183824 58.71009,58.710088 v -4.656435 c 0,-32.52575 -26.18384,-58.709916 -58.71009,-58.709916 z" />
      <path
         style="opacity:0.25;stroke-width:17.06654167"
         inkscape:connector-curvature="0"
         id="path34"
         d="m 67.740532,257.38546 c -32.525423,0 -58.708916,-26.18348 -58.708916,-58.70889 v -4.65661 c 0,32.52542 26.183493,58.70891 58.708916,58.70891 H 203.19429 c 32.52543,0 58.70892,-26.18349 58.70892,-58.70891 v 4.65661 c 0,32.52541 -26.18349,58.70889 -58.70892,58.70889 z" />
    </g>
  </g>
  <g
     inkscape:groupmode="layer"
     id="layer2"
     inkscape:label="Bleu"
     style="display:inline">
    <rect
       x="8.8116093"
       y="3.237072"
       width="252.87502"
       height="252.87491"
       rx="58.710629"
       ry="58.710598"
       id="rect28"
       style="opacity:0.98999999;fill:url(#linearGradient889-5);stroke-width:17.06654167" />
    <path
       d="M 26.944214,19.635158 C 15.821264,30.306523 8.882344,45.308693 8.882344,62.011886 V 197.46674 c 0,16.70268 6.93892,31.70536 18.06187,42.37671 V 19.633281 Z"
       id="path30"
       inkscape:connector-curvature="0"
       style="opacity:0.5;fill:url(#linearGradient991-8-2-0);stroke-width:4.51546574" />
  </g>
  <g
     inkscape:groupmode="layer"
     id="layer3"
     inkscape:label="Texture"
     style="display:inline">
    <path
       d="m 62.372863,5.1363197 c -0.358395,0.00375 -0.717133,0.034133 -1.075875,0.0512 -8.543169,0.9181795 -16.490038,3.6966118 -23.521112,7.8579443 -1.303714,1.122978 -2.737816,1.974939 -4.189155,2.707434 -3.968996,2.83168 -7.580618,6.129277 -10.724276,9.842273 1.65409,0.556369 3.890831,0.633168 6.702715,0.119466 7.523276,-1.363617 9.784594,0.308904 9.410152,6.984993 -0.270846,4.832049 -3.54182,10.717957 -7.267276,13.070067 -9.332499,5.893075 -13.519264,5.454635 -11.888385,-1.235617 0.75673,-3.104234 0.517628,-4.109282 -0.529234,-2.23128 -1.046862,1.878002 -3.253054,2.588482 -4.903389,1.57012 -1.650505,-1.018871 -3.516048,11.53971 -4.145121,27.912323 -0.7693592,20.02417 0.708944,30.946767 4.515465,33.363407 8.20952,5.21263 8.830401,4.6834 5.776684,-4.93909 -8.048752,-25.359166 -5.949567,-33.738837 5.564889,-22.224042 3.959097,3.959097 6.913146,3.822392 12.188244,-0.556368 7.578743,-6.290044 9.789542,-20.4935 2.486937,-15.980768 -2.463725,1.522335 -8.051996,0.675836 -12.417618,-1.878512 -6.37811,-3.732965 -5.053746,-4.342241 6.738043,-3.095527 9.127531,0.964257 14.675181,-0.459091 14.675181,-3.765733 0,-7.882692 12.329044,-23.309478 15.830759,-19.807424 1.663475,1.663987 -1.491276,9.13162 -7.011108,16.59789 -5.78027,7.818522 -8.843543,16.68698 -7.222904,20.909922 1.915549,4.991451 1.028429,6.336125 -2.778094,4.206731 -3.075903,-1.720477 -2.229232,0.447145 1.878516,4.815325 C 61.1125,90.753166 69.332263,83.77739 66.429925,65.893705 64.97705,56.940429 66.520375,47.603496 70.363252,42.116603 75.81567,34.332384 75.778637,32.325702 70.063393,27.58274 66.415419,24.555307 60.353381,23.257226 56.596522,24.698836 48.74813,27.710568 47.93542,23.802843 54.38299,14.054096 c 3.806523,-5.7553467 5.739139,-5.1459005 12.858619,4.039137 8.929387,11.520254 18.653734,9.719564 18.653734,-3.457169 0,-6.2524939 -11.544152,-9.623306 -23.521112,-9.4982083 z M 210.41324,5.3223451 c -4.49584,0.6519417 -5.41129,3.0120733 -3.91575,8.7310689 2.16847,8.292117 -3.57954,11.505405 -17.40105,9.727584 -1.59624,-0.204799 -3.94528,3.623738 -5.22083,8.501697 -1.27572,4.878127 -0.13312,8.863335 2.53114,8.863335 2.66477,0 3.53585,1.30559 1.9403,2.901483 -1.59556,1.595721 -6.08952,0.249169 -9.9923,-2.989717 -5.65602,-4.693809 -5.91253,-6.642297 -1.24346,-9.604365 3.22199,-2.043718 3.82393,-3.712996 1.34057,-3.712996 -6.03302,0 -16.66616,6.9128 -16.18352,10.521519 1.12349,8.394691 -0.0529,11.915006 -3.98623,11.915006 -2.40553,0 -3.12557,-3.555986 -1.59624,-7.90215 2.27548,-6.466511 1.67372,-6.870646 -3.3249,-2.23128 -5.06006,4.696543 -3.43652,7.956764 9.48968,19.005298 8.58157,7.33537 13.69624,13.419077 11.35915,13.51977 -5.06142,0.218452 11.54467,13.382555 17.14505,13.590595 2.1282,0.08533 2.61153,-3.133073 1.07588,-7.134836 -1.89524,-4.939057 -0.82022,-6.524025 3.33361,-4.930008 4.40521,1.689585 5.53604,-0.698023 4.03931,-8.528322 -1.28051,-6.698274 0.0375,-10.874115 3.43959,-10.874115 3.03921,0 4.37996,2.986473 2.98084,6.632399 -1.39894,3.645582 -0.2804,8.022638 2.47824,9.727585 2.92332,1.806664 3.74969,1.056418 1.98432,-1.799155 -1.66603,-2.69549 -0.93285,-6.202492 1.63156,-7.787291 2.56528,-1.585482 3.67648,-4.476212 2.46936,-6.429134 -1.20711,-1.953095 2.62996,-2.626883 8.52833,-1.500151 7.19047,1.373857 10.49763,0.0512 10.02745,-4.039136 -0.80418,-6.981752 2.02375,-8.416876 16.22772,-8.193305 10.0568,0.153598 10.04503,0.235519 -1.12895,6.967416 l -11.28867,6.799819 11.28867,-2.469358 c 11.15777,-2.441368 11.17074,-2.408258 1.12895,2.760513 -5.58793,2.876055 -10.15971,7.960688 -10.15971,11.306241 0,3.345726 -3.04809,6.085416 -6.7732,6.085416 -3.72512,0 -6.7732,2.173253 -6.7732,4.824368 0,2.658626 -3.79373,3.608549 -8.46655,2.125467 -6.00281,-1.905309 -9.16149,-0.06827 -10.82992,6.314448 -1.32078,5.051013 -0.24831,8.581226 2.43404,8.034415 2.62978,-0.53589 6.21239,4.101088 7.96393,10.309761 3.10867,11.019 3.36006,10.88179 10.69765,-5.838499 7.33623,-16.716332 18.15198,-25.389888 24.16452,-19.375641 1.6471,1.646922 -1.48786,4.167307 -6.96741,5.600045 -12.00529,3.139558 -12.71919,8.376596 -2.06369,15.186829 6.99353,4.469936 6.75374,4.808016 -2.09902,2.945706 -7.07391,-1.48822 -10.8137,0.45739 -12.77925,6.64998 -1.95754,6.16768 -5.34269,7.94362 -11.44756,6.00606 -9.75251,-3.09536 -11.42554,2.32378 -3.24555,10.50394 3.30614,3.30613 7.03774,3.79201 9.57775,1.25268 2.28931,-2.2893 7.30022,-2.96019 11.12978,-1.48991 4.39975,1.68788 5.82037,0.83114 3.86284,-2.33709 -2.77639,-4.49242 12.9914,-23.618407 19.47293,-23.618407 1.43547,0 2.58097,-14.119487 2.54001,-31.378537 -0.0273,-11.361366 -0.96511,-20.616377 -2.46936,-27.560751 -2.01009,-4.832903 -4.66991,-9.306896 -7.83166,-13.378801 -1.78738,0.03413 -3.70686,1.481375 -5.69716,4.630152 -3.42047,5.409921 -4.27397,5.499349 -4.33029,0.459088 -0.0307,-2.782527 2.29494,-6.980383 5.45924,-10.362459 -0.86954,-0.880634 -1.80154,-1.698121 -2.72518,-2.522264 -6.62506,2.949951 -7.76306,2.172741 -6.93209,-4.039137 0.0614,-0.45909 -0.0205,-0.93866 -0.1763,-1.411403 C 227.83494,9.5664518 219.45287,6.433206 210.41307,5.3233691 Z M 144.52272,6.0459663 C 91.266527,6.4197235 90.409786,6.5835622 90.409786,16.743611 c 0,5.678208 -2.343749,11.769938 -5.203248,13.537349 -3.602576,2.226499 -2.642924,5.079855 3.121984,9.29546 7.734558,5.655681 7.468149,6.085416 -3.827514,6.085416 -6.683262,0 -12.152917,2.031942 -12.152917,4.515465 0,2.483521 5.079858,4.515465 11.288667,4.515465 6.208808,0 11.288668,-2.031944 11.288668,-4.515465 0,-2.483523 3.555983,-4.747568 7.902174,-5.035652 7.5255,-0.498343 7.5255,-0.626343 0,-2.592921 -5.30021,-1.385802 -7.902174,-6.505934 -7.902174,-15.548469 0,-8.214978 1.837553,-12.340302 4.709688,-10.565211 2.592246,1.602548 8.000496,0.196265 12.020676,-3.121981 6.19703,-5.1146688 6.94933,-5.0013471 4.93001,0.740688 -3.73108,10.609924 4.74706,22.609748 15.75123,22.295725 l 10.00083,-0.290131 -10.15972,-4.08334 c -5.86338,-2.35689 -10.15971,-7.959493 -10.15971,-13.255069 0,-10.0189083 6.59024,-12.2554782 11.71226,-3.968653 1.80205,2.915989 1.26036,4.002615 -1.23477,2.460483 -2.45332,-1.515508 -4.46256,-0.06827 -4.46256,3.201341 0,3.538064 3.34026,5.079514 8.22846,3.80106 4.52503,-1.182711 7.35296,-3.571685 6.27913,-5.30923 -2.68457,-4.343946 21.03281,-3.440955 28.00961,1.066659 3.77427,2.438638 5.66866,0.947193 5.71474,-4.515465 0.058,-6.9257686 0.73369,-7.1447324 4.44498,-1.402868 3.89083,6.020391 4.42774,6.020391 4.77112,0 0.29918,-5.2414737 1.08117,-5.0170484 3.45717,0.969378 2.06096,5.193177 5.11058,6.470266 9.28659,3.889294 C 213.1618,9.6814803 196.46458,5.6812544 144.52186,6.045625 Z M 71.525652,9.5384626 c 2.640879,0 6.141568,2.1665964 7.778761,4.8153214 4.859531,7.863236 -0.677198,9.534392 -6.870308,2.07256 -3.561446,-4.29138 -3.902434,-6.8878814 -0.908453,-6.8878814 z M 222.31033,9.8729669 c 0.58487,0.017065 1.07229,0.1911451 1.41993,0.5375961 1.39024,1.389215 -1.12059,3.913354 -5.57393,5.609085 -6.43545,2.450414 -6.94848,1.937052 -2.52244,-2.522262 2.29716,-2.314392 4.92148,-3.6763016 6.67609,-3.6247604 z M 42.992095,14.053243 c 1.241591,0 2.257732,1.015458 2.257732,2.257731 0,1.242444 -1.015969,2.257733 -2.257732,2.257733 -1.241763,0 -2.257735,-1.015459 -2.257735,-2.257733 0,-1.240737 1.015972,-2.257731 2.257735,-2.257731 z m 180.615285,4.515464 c 1.24177,0 2.25774,1.015459 2.25774,2.257732 0,1.242444 -1.01597,2.257732 -2.25774,2.257732 -1.24176,0 -2.25773,-1.015459 -2.25773,-2.257732 0,-1.242444 1.01597,-2.257732 2.25773,-2.257732 z m -60.86783,1.076898 c -1.25917,0.102399 -3.04075,0.38741 -5.37972,0.820901 -5.7789,1.070071 -11.13865,2.099696 -11.90596,2.284185 -0.76749,0.184319 -0.13312,2.367129 1.40235,4.850481 3.77035,6.100434 6.21957,5.704318 14.2079,-2.284186 4.53988,-4.539869 5.45328,-5.969021 1.6756,-5.67104 z m 70.5804,4.542088 c 0.6557,-0.298664 1.08271,1.042766 1.22589,3.995106 0.1961,4.041868 -2.69514,9.872652 -6.4206,12.964424 -3.72512,3.091606 -6.7732,4.287798 -6.7732,2.654531 0,-1.633267 -4.06406,-0.797007 -9.03093,1.860934 -6.83908,3.660261 -9.11354,3.424744 -9.38353,-0.969377 -0.1961,-3.191614 -2.40041,-0.215038 -4.89469,6.614305 -2.49427,6.829687 -6.90103,12.35515 -9.79807,12.276645 -8.6367,-0.23552 -22.06534,-12.256336 -17.10922,-15.319095 2.47943,-1.532577 6.51943,0.790181 8.96916,5.167917 5.44252,9.725027 10.76848,5.340462 10.76848,-8.863335 0,-10.346248 19.94396,-24.780613 25.63736,-18.556447 1.42267,1.556468 0.0444,3.733135 -3.0602,4.841948 -8.56672,3.059517 -6.74333,8.360898 2.87503,8.360898 5.5852,0 7.65281,-2.251589 6.00606,-6.543824 -1.52353,-3.970189 -0.57992,-5.363501 2.39,-3.527654 2.69327,1.663988 5.92106,0.47445 7.1787,-2.645825 0.55108,-1.36703 1.02655,-2.131099 1.41994,-2.310639 z m -129.57092,3.439591 c -2.64755,-0.03413 -4.303871,1.399456 -4.303871,4.489012 0,2.483521 3.048101,4.515465 6.773241,4.515465 3.7251,0 6.77319,2.031942 6.77319,4.515462 0,2.483524 3.16601,4.515465 7.0379,4.515465 3.87172,0 5.6963,2.171377 4.05689,4.824371 -1.63941,2.652821 -5.8214,3.73194 -9.29546,2.398871 -3.47407,-1.332897 -6.31445,-0.455675 -6.31445,1.948999 0,6.048894 10.61812,5.494912 17.00339,-0.890874 4.01696,-4.016949 5.96408,-3.480036 8.16669,2.257732 1.58889,4.140513 5.47,7.522761 8.62543,7.522761 3.15543,0 8.26789,3.048083 11.35915,6.773197 3.54472,4.271072 3.83929,6.773198 0.81134,6.773198 -2.64087,0 -6.15453,-2.192369 -7.81408,-4.877107 -1.65921,-2.684735 -7.70828,-3.705144 -13.44076,-2.266606 -6.21922,1.561588 -11.46343,0.337917 -13.00864,-3.025043 -1.42505,-3.099967 -1.37897,-0.810662 0.10582,5.088901 1.81639,7.21573 1.06154,9.715978 -2.30194,7.637447 -2.74942,-1.69983 -4.99179,-5.762689 -4.99179,-9.030933 0,-9.361848 -27.58128,-13.040198 -35.841489,-4.779995 -6.244477,6.244477 -5.466414,6.651343 7.681653,4.021558 9.105856,-1.821168 14.613401,-1.122975 14.613401,1.852063 0,2.626538 4.064075,6.061181 9.030965,7.637447 11.82012,3.751564 11.54415,9.181284 -0.51148,10.089396 -5.24746,0.395944 -8.419986,-0.407892 -7.04647,-1.781407 1.37319,-1.373854 0.13824,-5.01978 -2.742765,-8.104727 -5.706201,-6.108455 -21.307582,-4.022754 -21.307582,2.848575 0,2.340334 1.727645,3.187177 3.845262,1.878516 2.117617,-1.309006 7.705716,0.53418 12.41762,4.100915 4.711901,3.566567 11.874425,6.553212 15.909805,6.632231 11.05025,0.216745 9.93222,22.718996 -1.12878,22.718996 -4.65764,0 -8.466575,3.16499 -8.466575,7.03773 0,3.87172 -2.032113,5.78573 -4.515467,4.25094 -2.571075,-1.5889 -4.515465,2.29988 -4.515465,9.03092 0,6.73122 1.94439,10.62 4.515465,9.03093 2.483354,-1.53428 4.515467,-5.59867 4.515467,-9.03093 0,-8.68328 8.336865,-12.94991 14.869435,-7.61082 3.69217,3.01754 7.3241,2.41492 11.27108,-1.86964 3.3616,-3.64933 3.83878,-6.32349 1.12896,-6.32349 -2.58132,0 -4.69211,-2.0729 -4.69211,-4.60353 0,-2.70761 5.11109,-3.41433 12.41762,-1.71979 12.14387,2.81632 12.21845,2.71102 3.38668,-4.79775 -7.54529,-6.41513 -7.73131,-7.27034 -1.12878,-5.19454 4.346,1.36703 7.90199,0.51882 7.90199,-1.88739 0,-2.40554 -4.74433,-4.37435 -10.53911,-4.37435 -12.02509,0 -14.35245,-11.885137 -4.29497,-21.942448 5.31419,-5.314178 5.86014,-4.313398 3.6688,6.72029 -2.4255,12.212474 -2.26746,12.375972 2.72519,2.804544 2.91462,-5.587925 7.02373,-10.15971 9.12804,-10.15971 6.15812,0 4.39259,13.507142 -1.81674,13.89899 -4.51529,0.285011 -4.51529,0.815779 0,2.636949 3.10424,1.252685 5.80109,5.667798 5.99702,9.807145 0.25804,5.44661 1.03304,5.82174 2.80454,1.36704 2.06659,-5.196457 3.05765,-5.196457 6.34961,0 3.02419,4.77333 3.91575,4.32345 3.96866,-2.0108 0.0375,-4.492615 2.09372,-6.914526 4.57724,-5.379732 5.23841,3.237532 6.14328,27.683662 1.12896,30.487692 -4.27432,2.39034 5.68503,-0.24235 14.67518,-3.88042 3.72511,-1.50698 6.7732,-0.49152 6.7732,2.25773 0,2.74908 -1.96061,5.0005 -4.35675,5.0005 -2.39614,0 -6.43597,3.9026 -8.98673,8.66929 -4.42758,8.27317 -4.03317,8.35628 8.86334,1.92254 7.4306,-3.70685 13.44844,-9.1335 13.36993,-12.0558 -0.19882,-7.35756 -11.14514,-21.11302 -16.80065,-21.11302 -2.56476,0 -5.90076,-3.21533 -7.40807,-7.14355 -4.36972,-11.387148 -2.92777,-13.807353 3.3249,-5.582479 7.11538,9.359659 30.85802,12.787299 32.63124,4.709689 0.69512,-3.166359 0.23057,-3.674431 -1.03185,-1.128102 -4.09631,8.259722 -10.09844,4.888912 -8.26379,-4.638687 1.44673,-7.512006 0.0734,-8.717929 -7.24953,-6.393978 -4.96841,1.576949 -11.98634,0.418131 -15.59233,-2.57517 -4.62606,-3.839288 -6.56141,-3.95534 -6.56141,-0.378876 0,2.787476 -4.06406,5.070809 -9.03093,5.070809 -4.96705,0 -9.02189,-2.031942 -9.02189,-4.515465 0,-2.483524 1.51517,-4.007393 3.37781,-3.386513 1.4737,0.491518 3.02163,-0.06827 3.92462,-1.235617 -0.17595,0.0512 -0.34867,0.102397 -0.53793,0.102397 -1.24177,0 -2.25774,-1.015458 -2.25774,-2.25773 0,-1.242445 1.01597,-2.257732 2.25774,-2.257732 0.72976,0 1.35047,0.375463 1.76382,0.916472 2.12615,-9.210639 -1.87237,-15.906183 -12.31197,-20.327953 -7.86768,-3.332753 -12.09012,-8.037145 -10.94461,-12.197115 1.39365,-5.061763 0.84872,-5.330561 -2.16079,-1.07519 -3.05116,4.313396 -6.60527,2.946025 -14.67519,-5.644417 -6.75067,-7.185865 -13.90495,-11.271936 -18.31752,-11.315285 z m 58.41196,50.559617 c -0.1879,0.814076 -0.35038,1.616202 -0.63505,2.469358 -0.1297,0.389118 -0.35259,0.715089 -0.59084,1.022288 0.9786,-0.247465 1.7198,-1.099087 1.7198,-2.15192 0,-0.511998 -0.20395,-0.960847 -0.49391,-1.341429 z M 15.909193,50.177301 c 1.241762,0 2.257733,1.015459 2.257733,2.257733 0,1.240736 -1.015971,2.257732 -2.257733,2.257732 -1.241762,0 -2.257732,-1.015459 -2.257732,-2.257732 0,-1.242446 1.01597,-2.257733 2.257732,-2.257733 z m 239.307137,9.030927 c 1.24176,0 2.25774,1.015459 2.25774,2.257735 0,1.240737 -1.01598,2.25773 -2.25774,2.25773 -1.24176,0 -2.25773,-1.015459 -2.25773,-2.25773 0,-1.242445 1.01597,-2.257735 2.25773,-2.257735 z m -25.40867,1.172473 c -1.0298,-0.06827 -2.22684,-0.0512 -3.58944,0.0512 -5.10972,0.385702 -8.44896,3.760441 -8.11377,8.210881 h 0.009 c 0.4608,6.118525 2.11421,6.595364 8.67834,2.495813 9.26884,-5.7888 10.2244,-10.269963 3.01617,-10.750897 z M 60.929037,61.500266 c 0.493903,0.211625 0.961699,1.508683 1.455261,3.836388 0.977061,4.609843 -0.193703,10.34488 -2.601623,12.752629 -2.827245,2.827242 -3.452562,-0.136533 -1.772702,-8.378478 1.204216,-5.906728 2.095943,-8.563134 2.919233,-8.21088 z m 185.257383,2.222403 c 1.24177,0 2.25774,1.015459 2.25774,2.257733 0,1.242445 -1.01597,2.257732 -2.25774,2.257732 -1.24176,0 -2.25773,-1.015459 -2.25773,-2.257732 0,-1.242443 1.01597,-2.257733 2.25773,-2.257733 z M 22.682905,63.987203 c 1.091235,0 2.179569,0.416422 3.007467,1.244149 1.655625,1.655455 0.303955,3.007465 -3.007467,3.007465 -3.311251,0 -4.663092,-1.351669 -3.007467,-3.007465 0.827728,-0.827727 1.916232,-1.244149 3.007467,-1.244149 z m 6.7732,8.766396 c 1.241762,0 2.257734,1.015459 2.257734,2.257733 0,1.240739 -1.015972,2.257732 -2.257734,2.257732 -1.241591,0 -2.257733,-1.015459 -2.257733,-2.257732 0,-1.242443 1.015971,-2.257733 2.257733,-2.257733 z M 218.0756,87.031978 c 0.50108,-0.01143 1.36396,0.344743 2.57517,1.093965 2.86718,1.77202 5.21213,4.11696 5.21213,5.21212 0,3.766415 -3.98845,1.986035 -7.20533,-3.21909 -1.24756,-2.018631 -1.41703,-3.068223 -0.58214,-3.086653 z m 30.73515,1.489909 c 2.42874,-0.266237 4.14512,0.629754 4.14512,2.434028 0,2.405529 -3.04809,4.374326 -6.7732,4.374326 -3.72512,0 -6.7732,-0.797007 -6.7732,-1.772702 0,-0.976206 3.04808,-2.944832 6.7732,-4.374324 0.93132,-0.356691 1.81861,-0.573436 2.62808,-0.662183 z M 71.472237,90.814945 c -4.070884,0 -8.07811,2.036551 -8.907713,4.524511 -1.000783,3.002346 -6.722174,3.030505 -17.012448,0.08533 -20.003698,-5.736916 -22.442507,-2.761195 -9.251262,11.279644 7.819892,8.32386 9.311848,12.66593 5.617623,16.35947 -6.737018,6.73702 -29.690667,0.9728 -25.531551,-6.41155 2.15943,-3.83349 1.193975,-3.73877 -3.166185,0.31743 -5.3390968,4.96705 -5.2686119,6.46259 0.467453,10.0894 4.434911,2.80386 4.820274,4.28472 1.128951,4.33029 -3.446075,0.0341 -5.0740523,4.93274 -4.22448,12.69068 1.83414,16.75371 6.476069,23.57401 15.74235,23.14223 4.70098,-0.22016 5.468292,-1.22538 1.993202,-2.62808 -7.498869,-3.02573 -6.922191,-15.26414 1.22589,-26.035 7.454668,-9.85371 11.341916,-7.98868 12.390825,5.93557 0.395261,5.24745 2.54172,9.54258 4.76242,9.54258 2.220527,0 2.792257,-3.55598 1.278796,-7.90215 -2.620739,-7.52549 -2.455875,-7.52549 3.404263,0 3.384126,4.346 8.974955,8.05882 12.426494,8.25475 4.230628,0.24063 4.51598,1.07007 0.882,2.54871 -2.963947,1.20661 -4.327906,4.95254 -3.03392,8.32557 1.294155,3.37269 -1.793012,10.28617 -6.861265,15.35442 -9.365949,9.36595 -8.998506,10.44746 5.309234,15.54864 5.960831,2.12513 7.739508,0.84821 6.7732,-4.85048 -0.73335,-4.32551 1.677129,-7.90214 5.467779,-8.12247 12.696144,-0.73898 13.485473,2.9351 2.778092,12.85861 -10.627167,9.84876 -11.808855,12.02832 -11.808855,21.74789 0,3.30271 -2.668014,2.90933 -7.646496,-1.1281 -5.190959,-4.21083 -6.546043,-4.382 -4.24206,-0.54613 5.417605,9.01779 -1.344502,16.03709 -9.180779,9.53354 -5.376984,-4.46256 -7.495626,-4.30179 -10.644745,0.79359 -2.458436,3.97787 -1.906504,7.65008 1.472843,9.79807 3.72904,2.37055 3.829562,3.46229 0.317438,3.51008 -2.800279,0.0341 -7.880307,-3.37389 -11.288667,-7.57567 -5.289947,-6.52129 -5.260934,-7.07391 0.211625,-3.7746 4.897075,2.952 5.675992,1.96999 3.31603,-4.18028 -2.584558,-6.73565 -1.16428,-7.68848 8.651715,-5.81184 9.759334,1.86554 11.359494,0.81578 9.515964,-6.23543 -2.400581,-9.17992 5.669679,-11.48373 13.343651,-3.80993 3.210899,3.21089 4.665312,2.5069 4.665312,-2.25774 0,-3.80788 -2.067615,-6.92304 -4.594998,-6.92304 -4.537996,0 -43.567478,-17.86354 -43.567478,-19.94054 0,-0.5905 6.095828,-0.17579 13.546399,0.91647 10.275767,1.50868 13.5464,0.22699 13.5464,-5.30018 0,-4.00705 2.25142,-7.28485 5.000498,-7.28485 2.779459,0 3.733477,3.28684 2.151922,7.40807 -2.402118,6.26035 -1.754441,6.50406 4.180279,1.57865 7.393228,-6.13644 7.306018,-14.10634 -0.158718,-14.28742 -2.421403,-0.0512 -7.915635,-1.98125 -12.205825,-4.27739 -6.057428,-3.24196 -7.215223,-2.64804 -5.176965,2.66341 3.480379,9.06933 -10.04554,14.03415 -18.687868,6.86126 -5.595607,-4.64415 -6.7112462,-3.92036 -6.7112462,4.31271 0,11.0598 7.8599952,27.96523 15.2221622,32.74557 2.660674,1.72764 3.350845,4.63066 1.534453,6.44671 -1.816222,1.81622 -5.992406,-0.37546 -9.277887,-4.86806 -5.734186,-7.84241 -5.990697,-7.83251 -6.35865,0.32597 -0.07851,1.7512 -3.95e-4,3.57101 0.194046,5.41488 2.668353,11.95425 8.960446,22.48175 17.674112,30.43475 10.16876,3.00201 18.310697,-1.47455 14.251761,-8.04294 -1.73908,-2.81376 -0.94412,-3.60872 1.869639,-1.86964 2.69549,1.66569 6.24226,0.87039 7.875358,-1.7727 1.63327,-2.64293 7.164707,-4.20571 12.294229,-3.46605 6.915876,0.99669 12.054444,-3.53567 19.887647,-17.54952 11.602862,-20.75974 9.999119,-35.10416 -3.536531,-31.56456 -4.621961,1.20831 -9.545318,0.36352 -10.936073,-1.88739 -1.390752,-2.25022 -0.381095,-4.09221 2.248862,-4.09221 2.629951,0 4.7887,-2.15005 4.7887,-4.78 0,-2.63012 -1.746078,-3.70907 -3.880592,-2.39 -5.903489,3.64849 -2.092357,-20.32966 4.153827,-26.13057 4.204686,-3.90568 4.86226,-2.56647 2.830999,5.81183 -3.187008,13.14499 3.660092,27.48908 13.122808,27.48908 4.051257,0 5.556699,2.14287 3.660091,5.21212 -1.922887,3.1114 -1.249613,3.9951 1.675595,2.18725 2.695503,-1.6657 6.062923,-1.16224 7.478603,1.12809 1.41584,2.29085 6.75066,3.07386 11.86209,1.73738 6.80392,-1.77919 9.96106,0.11946 11.78274,7.0821 l 2.48694,9.51596 8.14911,-10.04502 c 4.47979,-5.52564 9.78681,-8.4092 11.79127,-6.41156 2.00447,1.99764 0.65468,5.52102 -2.99859,7.83166 -5.81269,3.67648 -5.79563,4.21783 0.13141,4.33917 5.605,0.11947 5.6963,0.81237 0.54682,4.07447 -3.42253,2.16779 -4.82847,6.19924 -3.12199,8.96044 1.90343,3.07983 -0.58862,5.02712 -6.45576,5.02712 -5.63298,0 -8.34366,1.9833 -6.58803,4.82437 1.63941,2.65231 5.67685,3.7857 8.96915,2.52226 6.97237,-2.67552 17.64681,8.39247 13.91675,14.42822 -1.39622,2.2591 -7.6424,3.12403 -13.88142,1.93142 -6.23901,-1.19295 -10.23156,-3.96507 -8.87187,-6.16443 6.17536,-9.99178 -4.04614,-12.59988 -16.00688,-4.08334 -7.03876,5.01176 -15.02336,9.11899 -17.744126,9.11899 -7.446815,0 -5.94513,-7.68711 2.107906,-10.777 3.88197,-1.48991 5.66919,-4.95664 3.96868,-7.70794 -2.05567,-3.32609 -6.258516,-1.84642 -12.532346,4.42724 -7.387255,7.38725 -8.241093,10.62357 -3.95978,14.90472 3.007809,3.00763 5.46778,8.19142 5.46778,11.51803 0,4.94588 -1.154553,4.99043 -6.305918,0.22869 -3.464511,-3.20219 -5.369817,-7.34492 -4.242061,-9.20739 1.127587,-1.86265 -1.183053,-3.38669 -5.132765,-3.38669 -3.94954,0 -8.551364,3.55599 -10.221666,7.90215 -2.56988,6.68701 -3.521512,6.1658 -6.182186,-3.38668 -2.984939,-10.71608 -3.162089,-10.77343 -3.589433,-1.1281 -0.247466,5.58792 -2.59992,10.15971 -5.229874,10.15971 -2.629957,0 -3.438399,-2.18384 -1.790281,-4.85048 1.648115,-2.66682 -1.195681,-2.23214 -6.323497,0.96938 -3.6676,2.2905 -5.588781,4.17259 -5.944107,5.79426 5.2524,2.80795 10.990686,4.81122 17.056307,5.91748 22.903303,1.24244 62.282687,-1.92767 63.871577,-6.70271 1.03253,-3.10424 -1.51414,-5.64425 -5.65346,-5.64425 -4.13915,0 -6.71535,-2.41304 -5.73231,-5.36214 2.639,-7.91699 12.50551,-9.96293 12.50551,-2.59291 0,4.50863 5.00937,6.06886 17.3123,5.39729 11.94966,-0.65194 17.31231,0.93524 17.31231,5.12406 0,3.33702 -2.20432,4.68698 -4.89469,3.00746 -7.23468,-4.51734 -25.21411,-4.77368 -25.21411,-0.36181 0,2.09987 4.57195,4.04375 10.15971,4.32142 5.58793,0.27818 17.06655,1.29364 25.50595,2.25773 8.43805,0.96426 18.09054,-0.52906 21.44924,-3.31603 4.51427,-3.74644 6.10317,-3.74713 6.10317,0 0,4.01064 11.18166,5.35855 22.43568,4.1185 7.47122,-1.14858 14.45622,-3.67494 20.70684,-7.34663 -1.17674,0.13653 -3.06106,0.46933 -5.88233,1.00522 -5.5852,1.05983 -11.21238,0.22698 -12.49698,-1.85207 -1.2846,-2.07853 -7.04234,-2.92196 -12.79683,-1.87851 -6.96145,1.26292 -10.45958,-0.27306 -10.45958,-4.58595 0,-4.88529 2.04116,-5.39456 8.28137,-2.05481 9.00244,4.81805 9.67127,3.99323 5.52956,-6.79982 -1.50748,-3.92821 -6.81842,-7.14354 -11.80885,-7.14354 -6.79539,0 -8.49129,2.22582 -6.75562,8.86333 1.27504,4.87574 -0.519,11.21545 -3.98624,14.09321 -5.23789,4.34702 -5.83949,2.89858 -3.5454,-8.57218 2.47687,-12.38416 1.78141,-13.5522 -6.7732,-11.31529 -5.50072,1.43871 -9.54259,0.36011 -9.54259,-2.54871 0,-4.64603 7.31779,-6.77764 21.44924,-6.25301 3.10423,0.11946 5.64424,-4.47434 5.64424,-10.20408 0,-15.34265 4.74792,-25.05198 10.63622,-21.75813 3.68125,2.05993 3.64251,1.24585 -0.12288,-2.831 -2.91019,-3.15031 -4.32979,-8.23358 -3.15731,-11.28866 1.17179,-3.05508 -3.05099,-8.94679 -9.38421,-13.09652 -10.0208,-6.56601 -11.51805,-6.65493 -11.51805,-0.67072 0,3.78246 1.84131,6.87884 4.09222,6.87884 2.25022,0 3.2505,4.57196 2.21353,10.15971 -1.03662,5.58793 -0.67891,7.60895 0.80264,4.48901 1.48138,-3.11942 4.48082,-4.57366 6.65851,-3.22779 6.55834,4.05313 -5.55499,24.70211 -14.49018,24.70211 -8.69045,0 -11.24531,-6.68838 -4.2156,-11.03318 2.25022,-1.39092 3.04655,-6.53341 1.76382,-11.43868 -1.7727,-6.77865 -4.1714,-7.94362 -9.98324,-4.8329 -4.34566,2.32566 -10.37254,2.41167 -13.96095,0.19456 -7.3666,-4.5525 -14.85131,-1.27999 -11.06834,4.84195 1.42881,2.31183 0.45158,4.20673 -2.17837,4.20673 -4.48099,0 -7.27342,-14.75061 -4.70064,-24.83523 2.50742,-9.82896 3.9492,-26.58454 1.63156,-18.95239 -2.06368,6.79436 -3.71265,7.20669 -9.99229,2.47823 -6.35012,-4.78187 -6.64179,-4.68032 -1.87851,0.66219 6.22365,6.97902 7.59324,18.07005 2.23128,18.07005 -1.87715,0 -6.20421,-6.30353 -9.61291,-14.00515 -4.24598,-9.59224 -7.29474,-12.22561 -9.68338,-8.36089 -3.4113,5.51966 -1.22454,9.54156 14.80761,27.20747 4.34634,4.78904 6.37811,8.67697 4.51547,8.64301 -12.22289,-0.22187 -23.321466,-6.78395 -27.692208,-16.37756 -2.796694,-6.13833 -6.819793,-10.09076 -8.933825,-8.78398 -2.114204,1.3073 -2.883393,-2.6506 -1.710923,-8.78398 1.237498,-6.47333 0.01625,-11.14786 -2.910357,-11.14786 -2.772972,0 -6.364456,-0.50858 -7.990045,-1.1281 -1.625931,-0.62122 -3.509052,2.61408 -4.180279,7.18775 -1.888244,12.86595 -4.888882,13.53427 -15.07215,3.35135 -11.817049,-11.81704 -11.930371,-15.64114 -0.379218,-12.62019 4.964317,1.29876 10.162443,0.52224 11.553198,-1.7285 1.390753,-2.25022 6.476923,-4.09221 11.297711,-4.09221 4.820275,0 8.766402,-2.15005 8.766402,-4.78 0,-2.62995 -2.540013,-3.32098 -5.644248,-1.53428 -3.279337,1.88705 -4.073442,1.52404 -1.887389,-0.86357 2.069491,-2.2608 5.117404,-4.28609 6.7732,-4.50659 1.655627,-0.22016 7.55792,-2.28879 13.114275,-4.59499 9.944026,-4.12721 9.961616,-4.28201 1.128952,-9.798102 -5.338244,-3.333777 -8.96915,-3.758393 -8.96915,-1.049592 0,2.504515 -2.122226,4.550622 -4.709687,4.550622 -2.587288,0 -9.129747,4.128932 -14.542915,9.171922 -11.623684,10.82906 -22.882825,9.93853 -25.179982,-1.98432 -1.233058,-6.40287 0.235689,-7.785612 5.953153,-5.59153 4.178914,1.60426 11.950677,-0.13653 17.26793,-3.853974 7.642913,-5.35309 8.117021,-6.773197 2.266609,-6.773197 z m 12.170493,0 c -1.24176,0 -2.257732,1.015462 -2.257732,2.257733 0,1.242446 1.015972,2.257732 2.257732,2.257732 1.241591,0 2.257732,-1.015458 2.257732,-2.257732 0,-1.242443 -1.015969,-2.257733 -2.257732,-2.257733 z m 36.12308,0 c 1.24177,0 2.25774,1.015462 2.25774,2.257733 0,1.242446 -1.01597,2.257732 -2.25774,2.257732 -1.24176,0 -2.25773,-1.015458 -2.25773,-2.257732 0,-1.242443 1.01597,-2.257733 2.25773,-2.257733 z m 72.23928,4.515465 c 1.24176,0 2.25773,1.015459 2.25773,2.257733 0,1.242445 -1.01597,2.257732 -2.25773,2.257732 -1.24176,0 -2.25773,-1.015458 -2.25773,-2.257732 0,-1.242443 1.01597,-2.257733 2.25773,-2.257733 z m 67.76784,12.29425 c -0.31931,-0.0853 -0.65894,0.32085 -1.00539,1.25268 -3.68552,9.90474 -17.96595,22.57733 -25.44451,22.57733 -8.53652,0 -12.57788,11.1284 -6.31445,17.39251 3.58004,3.58056 3.55257,7.98116 -0.0888,15.97171 -3.9992,8.77715 -3.70242,11.5334 1.42881,13.5022 3.62186,1.38921 5.97449,0.0683 5.37118,-3.00747 -0.59101,-3.01497 1.46414,-4.96875 4.56838,-4.34787 3.10423,0.62122 5.64424,-0.90282 5.64424,-3.38668 0,-2.48353 -2.15004,-4.51547 -4.77999,-4.51547 -2.62996,0 -3.5495,-1.99474 -2.04611,-4.42723 3.98743,-6.45166 19.98322,4.69432 17.18942,11.97627 -1.25405,3.26825 -3.8613,4.96602 -5.8033,3.76591 -1.94184,-1.19978 -6.04122,0.83455 -9.11047,4.53304 -3.0689,3.69781 -3.68876,6.72899 -1.37573,6.72899 2.31286,0 8.14364,3.19896 12.96443,7.10822 4.82061,3.90943 6.41787,5.93608 3.5454,4.50659 -3.40358,-1.693 -4.39736,0.54954 -2.85745,6.43818 1.41294,5.40275 0.13653,9.03997 -3.16618,9.03997 -3.03819,0 -4.47895,-2.72928 -3.20135,-6.05879 1.2776,-3.32951 0.29184,-8.91761 -2.19595,-12.41761 -3.521,-4.95305 -3.93452,-4.52178 -1.84319,1.92254 1.77441,5.46829 0.77534,7.60093 -2.95456,6.29687 -3.10594,-1.08543 -5.05101,-5.31281 -4.32142,-9.40127 0.77158,-4.32278 -1.65682,-7.4347 -5.80331,-7.4347 -5.64971,0 -6.16443,1.81008 -2.46065,8.73107 6.27247,11.71994 6.07381,12.42615 -4.34787,15.15168 -11.02858,2.88407 -16.67829,-4.66361 -8.88109,-11.8621 4.35913,-4.02446 4.93803,-3.92906 2.49581,0.39765 -1.75256,3.10423 -0.88063,5.64424 1.93142,5.64424 6.46208,0 3.93998,-14.47293 -2.91923,-16.75643 -2.80796,-0.93525 -6.42317,3.54745 -8.03442,9.96566 -1.61091,6.41821 -4.90066,10.45018 -7.31097,8.96044 -9.6129,-5.94103 -3.58977,10.23515 8.90772,23.91876 h 0.009 c 11.95205,13.08542 27.1597,20.69829 20.80412,10.41536 -1.40372,-2.27138 0.002,-5.32544 3.12199,-6.79077 3.11976,-1.46431 0.18756,-1.9432 -6.51772,-1.05813 -13.23613,1.7471 -19.58045,-6.36582 -11.38577,-14.56049 7.4591,-7.4591 15.95636,-6.20112 26.87298,3.96866 6.87662,6.40609 7.80948,9.05209 3.20134,9.10141 -5.53997,0.0512 -5.51659,0.67925 0.15872,4.26851 1.54913,0.97962 3.02232,1.46431 4.36562,1.57012 2.39512,-2.85966 4.51189,-5.95451 6.33203,-9.24272 -0.42103,-1.48479 -1.20199,-3.02897 -2.4429,-4.52451 -3.69781,-4.45539 -3.32218,-5.28892 1.54333,-3.42184 5.27595,2.0246 6.45764,-4.73938 6.51771,-37.36719 0.07,-38.33997 -0.31829,-39.87255 -10.31877,-40.70028 -5.71474,-0.47274 -10.3978,1.08885 -10.3978,3.46605 0,2.37771 -3.03579,3.15253 -6.74657,1.7285 -9.80439,-3.76232 -3.62426,-10.67137 9.54258,-10.67137 7.82945,0 10.24522,-1.72986 7.89311,-5.64424 -2.30415,-3.8352 -0.94019,-3.65514 4.25094,0.55637 6.93533,5.62581 7.60809,4.58458 7.28485,-11.28867 -0.14677,-7.21249 -0.91169,-11.73256 -1.86964,-11.96774 z m -228.060286,1.25268 c -2.483353,0 -4.515467,3.04809 -4.515467,6.7732 0,3.72511 2.032114,6.7732 4.515467,6.7732 2.483353,0 4.515466,-3.04809 4.515466,-6.7732 0,-3.72511 -2.032113,-6.7732 -4.515466,-6.7732 z m 24.835238,0 c -1.241763,0 -2.257735,1.01546 -2.257735,2.25774 0,1.24073 1.015972,2.25773 2.257735,2.25773 1.241763,0 2.257733,-1.01546 2.257733,-2.25773 0,-1.24245 -1.01597,-2.25774 -2.257733,-2.25774 z m 96.323618,4.51547 c -4.50949,0 -4.95851,6.33015 -0.74956,10.5391 4.1854,4.18539 4.51546,3.90738 4.51546,-3.76573 0,-3.72512 -1.69624,-6.7732 -3.76573,-6.7732 z m 11.62368,0.81066 c -1.07946,-0.17067 -1.84318,1.22026 -1.84318,3.70412 0,3.31125 1.36054,4.66309 3.01617,3.00747 1.65562,-1.65546 1.65562,-4.35914 0,-6.01459 -0.41387,-0.41301 -0.81322,-0.64341 -1.17299,-0.69632 z m 42.85239,10.47732 -4.3832,10.81233 c -2.40997,5.9482 -3.83144,11.02857 -3.15731,11.28866 0.6743,0.25941 5.28995,2.89773 10.25682,5.85604 4.96705,2.95832 10.55498,5.49765 12.41745,5.64425 6.01238,0.47104 3.59712,-8.97546 -2.93681,-11.48288 -3.48038,-1.33631 -7.64701,-6.8517 -9.26031,-12.2676 z m -182.151275,6.77319 c 1.095161,0 1.993202,2.03195 1.993202,4.51547 0,2.48352 -2.150043,4.51546 -4.779998,4.51546 -2.629955,0 -3.527996,-2.03194 -1.993202,-4.51546 1.534795,-2.48352 3.684838,-4.51547 4.779998,-4.51547 z m 49.404239,0 c 1.241591,0 2.257733,1.01546 2.257733,2.25774 0,1.24244 -1.015972,2.25773 -2.257733,2.25773 -1.241763,0 -2.257735,-1.01546 -2.257735,-2.25773 0,-1.24245 1.015972,-2.25774 2.257735,-2.25774 z m 69.488176,0 c -2.20841,0 -4.01268,5.97807 -4.01268,13.28187 0,7.30379 -2.3173,14.70231 -5.14181,16.44804 -3.16704,1.95719 -0.13824,5.28619 7.90215,8.68687 10.80329,4.56871 14.39307,4.34343 20.92871,-1.33119 5.98301,-5.19591 6.66397,-8.31925 2.83099,-12.9378 -2.77877,-3.34828 -3.27797,-6.15283 -1.1112,-6.23543 5.08532,-0.19456 -16.07873,-17.91133 -21.39633,-17.91133 z m 25.32846,4.51547 c -1.24176,0 -2.25773,1.01546 -2.25773,2.25773 0,1.24244 1.01597,2.25773 2.25773,2.25773 1.2416,0 2.25774,-1.01546 2.25774,-2.25773 0,-1.24244 -1.01597,-2.25773 -2.25774,-2.25773 z m -15.9364,5.51198 c 3.39471,-0.1536 5.1698,4.1487 8.78399,19.20839 0.58111,2.4214 -1.12094,5.1331 -3.79236,6.02363 -2.82503,0.94207 -3.6833,-1.44895 -2.04611,-5.71473 1.84506,-4.80798 0.67618,-6.88481 -3.38669,-6.02363 -7.38861,1.565 -8.44264,-10.72922 -1.12895,-13.16718 0.56081,-0.18773 1.08492,-0.30378 1.56978,-0.32597 z m 94.69374,3.51895 c 2.33692,0 5.50293,2.03194 7.03773,4.51546 1.53479,2.48352 -0.37922,4.51547 -4.25094,4.51547 -3.87171,0 -7.03773,-2.03195 -7.03773,-4.51547 0,-2.48352 1.91401,-4.51546 4.25094,-4.51546 z m -53.83301,6.94079 c -2.7245,0.0512 -4.96346,0.65023 -6.23543,1.92254 -3.23394,3.23394 -2.31098,4.85782 2.98971,5.24745 4.22193,0.31061 9.70472,1.07178 12.18808,1.693 2.48352,0.62122 6.67438,1.38239 9.30417,1.693 2.63012,0.31061 3.50017,2.62654 1.94029,5.15034 -1.55988,2.52397 -4.51,3.55206 -6.5614,2.28419 -2.05157,-1.26805 -4.8993,0.73386 -6.3235,4.44498 -1.7256,4.49686 0.21828,6.74657 5.82089,6.74657 8.92341,0 15.73689,-11.40966 11.2006,-18.7493 -3.64132,-5.89188 -16.15007,-10.59559 -24.32324,-10.43311 z m -92.14229,3.64234 c -1.61913,-0.27307 -2.760367,0.72703 -2.760367,2.69873 0,2.62995 2.032127,4.78 4.515497,4.78 2.48336,0 4.51547,-0.8977 4.51547,-1.9932 0,-1.09568 -2.03211,-3.24521 -4.51547,-4.78 -0.62089,-0.384 -1.21532,-0.6144 -1.75513,-0.70485 z m -14.472455,3.7746 c 0.359763,0.0512 0.75912,0.28331 1.172984,0.69632 1.655626,1.65545 1.655626,4.35913 0,6.01459 -1.655625,1.65545 -3.007465,0.30378 -3.007465,-3.00747 0,-2.48352 0.755024,-3.86642 1.834312,-3.70412 z m -35.699801,3.70413 c 1.241591,0 2.257732,1.01546 2.257732,2.25773 0,1.24244 -1.015969,2.25773 -2.257732,2.25773 -1.241761,0 -2.257733,-1.01546 -2.257733,-2.25773 0,-1.24245 1.015972,-2.25773 2.257733,-2.25773 z m 185.120856,9.03093 c -1.24176,0 -2.25773,1.01545 -2.25773,2.25773 0,1.24244 1.01597,2.25773 2.25773,2.25773 1.24176,0 2.25773,-1.01546 2.25773,-2.25773 0,-1.24245 -1.01597,-2.25773 -2.25773,-2.25773 z m -94.81661,4.51546 c 1.24176,0 2.25773,1.01546 2.25773,2.25773 0,1.24245 -1.01597,2.25773 -2.25773,2.25773 -1.24176,0 -2.25773,-1.01545 -2.25773,-2.25773 0,-1.24244 1.01597,-2.25773 2.25773,-2.25773 z m 108.36233,4.51546 c 1.24176,0 2.25773,1.01546 2.25773,2.25774 0,1.24244 -1.01597,2.25773 -2.25773,2.25773 -1.24159,0 -2.25774,-1.01546 -2.25774,-2.25773 0,-1.24245 1.01598,-2.25774 2.25774,-2.25774 z m -89.30241,2.13435 c 0.62344,-0.0341 1.23323,0.1024 1.79915,0.45909 2.26371,1.39945 2.95456,4.43491 1.52575,6.74657 -4.24615,6.8703 -11.0354,4.77556 -8.22846,-2.54001 1.06802,-2.78321 3.03307,-4.54977 4.90339,-4.66531 z m -91.30776,2.38112 c -1.241591,0 -2.257735,1.01546 -2.257735,2.25773 0,1.24245 1.015972,2.25773 2.257735,2.25773 1.241761,0 2.257733,-1.01546 2.257733,-2.25773 0,-1.24244 -1.015972,-2.25773 -2.257733,-2.25773 z m 16.024463,6.79077 c 2.142363,-0.11946 2.581486,1.44725 1.322827,4.72727 -1.381024,3.59865 -4.326199,6.54382 -6.543827,6.54382 -6.491429,0 -4.628445,-7.83337 2.513561,-10.57426 1.093285,-0.41984 1.993374,-0.65365 2.707439,-0.69631 z m 35.761267,0.39766 c -0.94514,-0.0341 -1.92305,0.11946 -2.87503,0.49322 -5.03514,1.9321 -5.37067,3.47577 -1.30525,5.98848 3.02044,1.86673 3.92104,5.88727 2.01079,8.97802 -2.61033,4.2238 -4.47212,3.79082 -7.57567,-1.75495 -2.2632,-4.04409 -6.35643,-7.34664 -9.10143,-7.34664 -2.74501,0 -1.37114,3.99409 3.05151,8.88109 6.19754,6.84812 9.97881,7.84736 16.50096,4.35674 9.44189,-5.05323 9.5146,-5.23976 5.82942,-14.84276 -1.10882,-2.88954 -3.69969,-4.66497 -6.5353,-4.75338 z m 38.01062,7.88439 c 1.61927,-0.31231 2.76051,0.5888 2.76051,2.45178 0,2.48336 -2.03211,5.77617 -4.51547,7.31097 -2.48335,1.53428 -4.50659,0.75434 -4.50659,-1.7285 0,-2.48335 2.02324,-5.76764 4.50659,-7.30243 0.62088,-0.384 1.21531,-0.62805 1.75513,-0.73216 z m -22.06534,2.98972 c -1.24176,0 -2.25773,1.01546 -2.25773,2.25773 0,1.24245 1.01597,2.25774 2.25773,2.25774 1.24159,0 2.25773,-1.01546 2.25773,-2.25774 0,-1.24244 -1.01597,-2.25773 -2.25773,-2.25773 z m 34.13138,4.51547 c 2.62996,0 3.51913,2.03211 1.98433,4.51546 -1.53479,2.48335 -3.68484,4.51546 -4.78,4.51546 -1.09516,0 -1.9932,-2.03211 -1.9932,-4.51546 0,-2.48335 2.15892,-4.51546 4.7887,-4.51546 z m 33.86686,0 c 1.09516,0 1.98432,2.03211 1.98432,4.51546 0,2.48335 -2.15004,4.51546 -4.77999,4.51546 -2.62996,0 -3.528,-2.03211 -1.99321,-4.51546 1.5348,-2.48335 3.69372,-4.51546 4.78871,-4.51546 z m -117.668747,4.51546 c -1.241763,0 -2.257735,1.01546 -2.257735,2.25773 0,1.24074 1.015972,2.25773 2.257735,2.25773 1.24176,0 2.257732,-1.01545 2.257732,-2.25773 0,-1.24244 -1.015972,-2.25773 -2.257732,-2.25773 z m -13.960949,0.81066 c 0.359762,0.0512 0.750245,0.27477 1.164109,0.68778 1.655627,1.65546 1.655627,4.36784 0,6.02364 -1.655624,1.65545 -3.007465,0.30378 -3.007465,-3.00747 0,-2.48352 0.763726,-3.86642 1.843186,-3.70412 z m -58.285668,3.70412 c 1.241762,0 2.257734,1.01546 2.257734,2.25773 0,1.24245 -1.015972,2.25774 -2.257734,2.25774 -1.241761,0 -2.257732,-1.01546 -2.257732,-2.25774 0,-1.24244 1.015971,-2.25773 2.257732,-2.25773 z m 205.720174,0 c -2.33692,0 -5.51164,2.03194 -7.04643,4.51547 -1.5348,2.48335 0.37922,4.51546 4.25093,4.51546 3.87172,0 7.03791,-2.03211 7.03791,-4.51546 0,-2.48353 -1.90514,-4.51547 -4.24206,-4.51547 z m -74.23947,4.51547 c -1.24176,0 -3.50991,2.03211 -5.0447,4.51546 -1.5348,2.48335 -1.7797,4.51547 -0.53794,4.51547 1.24176,0 3.51861,-2.03212 5.05323,-4.51547 1.5348,-2.48335 1.77083,-4.51546 0.52924,-4.51546 z m 14.98408,14.31353 c 0.34014,0.0341 0.71646,0.11947 1.12896,0.26453 2.9508,0.98303 6.16955,4.20332 7.15242,7.15242 2.70897,8.12691 -6.62234,6.41736 -9.77197,-1.79028 -1.47659,-3.84782 -0.89002,-5.9081 1.49042,-5.62667 z m 77.04351,4.01269 c -1.09123,0 -2.17957,0.40618 -3.00746,1.23391 -1.65563,1.65545 -0.30396,3.01617 3.00746,3.01617 0.4905,0 0.84241,-0.0853 1.24347,-0.13654 0.78165,-0.64853 1.51124,-1.35849 2.25774,-2.0461 -0.11094,-0.26795 -0.19269,-0.5376 -0.48504,-0.82944 -0.82789,-0.82772 -1.92493,-1.23562 -3.01617,-1.23562 z m -164.804836,4.25093 c 1.241591,0 2.257732,1.01546 2.257732,2.25773 0,1.24074 -1.015969,2.25773 -2.257732,2.25773 -1.241763,0 -2.257733,-1.01546 -2.257733,-2.25773 0,-1.24244 1.01597,-2.25773 2.257733,-2.25773 z"
       id="path36"
       inkscape:connector-curvature="0"
       style="opacity:0.02999998;stroke-width:4.51529551" />
  </g>
  <g
     inkscape:groupmode="layer"
     id="layer4"
     inkscape:label="Logo"
     style="display:inline">
    <path
       d="m 132.8839,44.091992 c -1.72116,-0.274771 -3.42064,0.865273 -5.23004,3.949538 -2.895,4.910214 -4.22858,18.658846 -1.84301,31.883703 0.80589,4.519561 2.52755,11.093081 4.85918,18.262874 -1.8454,6.716693 -3.9125,13.838913 -6.16392,20.908213 -8.89372,27.9311 -27.995991,57.1968 -38.070381,72.9458 -6.36906,9.91276 -21.68134,21.56186 -22.97839,19.29201 -1.27383,-2.26985 3.0404,-7.35806 8.41346,-15.51058 5.35002,-8.10643 19.05309,-16.51597 19.05309,-16.51597 0,0 -5.85194,-0.22869 -20.83654,12.97364 -14.98477,13.27077 -10.44848,19.8262 -6.8814,21.84176 3.54352,2.06112 13.49622,9.92948 47.311901,-48.78129 12.34731,-21.44752 19.5156,-40.95117 23.68666,-57.12512 4.27108,11.06474 9.78357,22.24452 15.90568,29.28618 3.5693,4.12789 8.25902,8.06036 13.46448,11.70526 -4.09887,0.74751 -8.80787,1.65545 -15.18769,2.82451 -23.36239,4.23694 -34.98983,13.42642 -35.24754,13.6319 0.18807,-0.0683 27.35427,-8.65291 56.2155,-12.65057 11.35165,6.90648 24.39151,12.2193 35.17415,14.37395 16.82318,3.40358 21.40828,-2.76359 21.951,-3.59046 -0.6557,0.54272 -2.84175,1.55988 -9.79023,0.96938 -5.58281,-0.4608 -20.84678,-4.77675 -36.31249,-13.06938 32.02367,-2.95917 43.09132,0.29525 45.94485,2.57312 2.84875,2.29289 2.84858,4.82317 2.84858,4.82317 0,0 3.66538,-3.54335 1.25661,-7.1333 -2.03809,-3.72887 -5.16912,-6.83105 -30.85461,-6.04394 -12.7354,0.37717 -19.5941,0.81578 -26.15107,1.68788 -7.78098,-4.84058 -15.27575,-10.61215 -21.183,-17.60585 -7.91956,-9.37431 -12.76117,-20.16411 -15.91813,-30.782923 4.73067,-22.780364 3.25902,-36.882448 3.24349,-37.030927 0,0 -2.40297,10.917122 -6.10385,25.313093 -2.12325,-10.88163 -2.85301,-20.913339 -3.4587,-28.042032 -1.29704,-16.35128 6.01903,-11.814823 7.06111,-9.730316 1.66757,1.343136 2.47755,5.816616 2.47755,5.816616 0,0 -0.57653,-6.678647 -3.49472,-9.550775 -1.08562,-1.068365 -2.127,-1.737544 -3.15953,-1.902919 z M 113.1362,165.66715 c -5.3e-4,1.7e-4 -0.0715,0.0171 -0.0715,0.0171 l -0.0239,0.0512 c 0,0 0.093,-0.0683 0.0951,-0.0683 z"
       id="path62"
       inkscape:connector-curvature="0"
       style="fill:#ef3939;fill-opacity:1;stroke:#ef3939;stroke-width:1.64038444;stroke-miterlimit:4;stroke-dasharray:none;stroke-opacity:1;" />
  </g>
</svg>
