<?xml version="1.0" encoding="UTF-8" standalone="no"?>
<svg
   xmlns:dc="http://purl.org/dc/elements/1.1/"
   xmlns:cc="http://creativecommons.org/ns#"
   xmlns:rdf="http://www.w3.org/1999/02/22-rdf-syntax-ns#"
   xmlns:svg="http://www.w3.org/2000/svg"
   xmlns="http://www.w3.org/2000/svg"
   xmlns:xlink="http://www.w3.org/1999/xlink"
   xmlns:sodipodi="http://sodipodi.sourceforge.net/DTD/sodipodi-0.dtd"
   xmlns:inkscape="http://www.inkscape.org/namespaces/inkscape"
   width="1024"
   height="1024"
   version="1.1"
   viewBox="0 0 270.928 270.928"
   id="svg234"
   sodipodi:docname="MediaOptical.svg"
   inkscape:version="1.0.1 (3bc2e813f5, 2020-09-07)"
   inkscape:export-filename="/home/bertrand/Gnustep-build/GNUstep-build-19/RikIcons/PNG1024/Devices/MediaOptical.png"
   inkscape:export-xdpi="90"
   inkscape:export-ydpi="90">
  <style
     id="style993"></style>
  <metadata
     id="metadata238">
    <rdf:RDF>
      <cc:Work
         rdf:about="">
        <dc:format>image/svg+xml</dc:format>
        <dc:type
           rdf:resource="http://purl.org/dc/dcmitype/StillImage" />
        <dc:title />
        <cc:license
           rdf:resource="http://creativecommons.org/licenses/by-sa/4.0/" />
      </cc:Work>
      <cc:License
         rdf:about="http://creativecommons.org/licenses/by-sa/4.0/">
        <cc:permits
           rdf:resource="http://creativecommons.org/ns#Reproduction" />
        <cc:permits
           rdf:resource="http://creativecommons.org/ns#Distribution" />
        <cc:requires
           rdf:resource="http://creativecommons.org/ns#Notice" />
        <cc:requires
           rdf:resource="http://creativecommons.org/ns#Attribution" />
        <cc:permits
           rdf:resource="http://creativecommons.org/ns#DerivativeWorks" />
        <cc:requires
           rdf:resource="http://creativecommons.org/ns#ShareAlike" />
      </cc:License>
    </rdf:RDF>
  </metadata>
  <sodipodi:namedview
     pagecolor="#ffffff"
     bordercolor="#666666"
     borderopacity="1"
     objecttolerance="10"
     gridtolerance="10"
     guidetolerance="10"
     inkscape:pageopacity="0"
     inkscape:pageshadow="2"
     inkscape:window-width="1280"
     inkscape:window-height="992"
     id="namedview236"
     showgrid="false"
     inkscape:zoom="0.56640625"
     inkscape:cx="512"
     inkscape:cy="512"
     inkscape:window-x="0"
     inkscape:window-y="0"
     inkscape:window-maximized="1"
     inkscape:current-layer="svg234"
     inkscape:document-rotation="0" />
  <defs
     id="defs122">
    <linearGradient
       id="SVGID_1_"
       x1="-1067.4"
       x2="-1063.9"
       y1="767.71997"
       y2="769.13"
       gradientTransform="matrix(2.732,0,0,-2.732,2963.2,2127.6)"
       gradientUnits="userSpaceOnUse">
      <stop
         stop-color="#E7DDAF"
         offset="0"
         id="stop2" />
      <stop
         stop-color="#E7DDAF"
         stop-opacity="0"
         offset="1"
         id="stop4" />
    </linearGradient>
    <linearGradient
       id="SVGID_2_"
       x1="-1062.2"
       x2="-1058.5"
       y1="772.46997"
       y2="773.39001"
       gradientTransform="matrix(2.731,0.077161,0.077161,-2.731,2897.1,2218.6)"
       gradientUnits="userSpaceOnUse">
      <stop
         stop-color="#EAC7AE"
         offset="0"
         id="stop7" />
      <stop
         stop-color="#EAC7AE"
         stop-opacity="0"
         offset="1"
         id="stop9" />
    </linearGradient>
    <linearGradient
       id="SVGID_3_"
       x1="-1070.5"
       x2="-1067.6"
       y1="765.57001"
       y2="767.88"
       gradientTransform="matrix(2.732,0,0,-2.732,2963.2,2127.6)"
       gradientUnits="userSpaceOnUse">
      <stop
         stop-color="#CAEFB9"
         offset="0"
         id="stop12" />
      <stop
         stop-color="#CAEFB9"
         stop-opacity="0"
         offset="1"
         id="stop14" />
    </linearGradient>
    <linearGradient
       id="SVGID_4_"
       x1="-1072.8"
       x2="-1070.6"
       y1="763.09998"
       y2="765.83002"
       gradientTransform="matrix(2.732,0,0,-2.732,2963.2,2127.6)"
       gradientUnits="userSpaceOnUse">
      <stop
         stop-color="#B1E3DA"
         offset="0"
         id="stop17" />
      <stop
         stop-color="#B1E3DA"
         stop-opacity="0"
         offset="1"
         id="stop19" />
    </linearGradient>
    <linearGradient
       id="SVGID_5_"
       x1="-1073.9"
       x2="-1074.7"
       y1="761.09003"
       y2="758.35999"
       gradientTransform="matrix(2.732,0,0,-2.732,2963.2,2127.6)"
       gradientUnits="userSpaceOnUse">
      <stop
         stop-color="#A5C5EE"
         offset="0"
         id="stop22" />
      <stop
         stop-color="#A5C5EE"
         stop-opacity="0"
         offset="1"
         id="stop24" />
    </linearGradient>
    <linearGradient
       id="SVGID_6_"
       x1="-1050.5"
       x2="-1047"
       y1="749.27002"
       y2="750.65997"
       gradientTransform="matrix(-2.732,0,0,2.732,-2788.9,-1949.3)"
       gradientUnits="userSpaceOnUse">
      <stop
         stop-color="#E7DDAF"
         offset="0"
         id="stop27" />
      <stop
         stop-color="#E7DDAF"
         stop-opacity="0"
         offset="1"
         id="stop29" />
    </linearGradient>
    <linearGradient
       id="SVGID_7_"
       x1="-1044.8"
       x2="-1041.1"
       y1="754.5"
       y2="755.40997"
       gradientTransform="matrix(-2.731,-0.077161,-0.077161,2.731,-2722.7,-2040.3)"
       gradientUnits="userSpaceOnUse">
      <stop
         stop-color="#EAC7AE"
         offset="0"
         id="stop32" />
      <stop
         stop-color="#EAC7AE"
         stop-opacity="0"
         offset="1"
         id="stop34" />
    </linearGradient>
    <linearGradient
       id="SVGID_8_"
       x1="-1053.6"
       x2="-1050.7"
       y1="747.10999"
       y2="749.41998"
       gradientTransform="matrix(-2.732,0,0,2.732,-2788.9,-1949.3)"
       gradientUnits="userSpaceOnUse">
      <stop
         stop-color="#CAEFB9"
         offset="0"
         id="stop37" />
      <stop
         stop-color="#CAEFB9"
         stop-opacity="0"
         offset="1"
         id="stop39" />
    </linearGradient>
    <linearGradient
       id="SVGID_9_"
       x1="-1055.9"
       x2="-1053.6"
       y1="744.65002"
       y2="747.38"
       gradientTransform="matrix(-2.732,0,0,2.732,-2788.9,-1949.3)"
       gradientUnits="userSpaceOnUse">
      <stop
         stop-color="#B1E3DA"
         offset="0"
         id="stop42" />
      <stop
         stop-color="#B1E3DA"
         stop-opacity="0"
         offset="1"
         id="stop44" />
    </linearGradient>
    <linearGradient
       id="SVGID_10_"
       x1="-1056.9"
       x2="-1057.8"
       y1="742.60999"
       y2="739.87"
       gradientTransform="matrix(-2.732,0,0,2.732,-2788.9,-1949.3)"
       gradientUnits="userSpaceOnUse">
      <stop
         stop-color="#A5C5EE"
         offset="0"
         id="stop47" />
      <stop
         stop-color="#A5C5EE"
         stop-opacity="0"
         offset="1"
         id="stop49" />
    </linearGradient>
    <filter
       id="w"
       x="-0.14734"
       y="-0.16574"
       width="1.2947"
       height="1.3315001"
       color-interpolation-filters="sRGB">
      <feGaussianBlur
         stdDeviation="3.3624534"
         id="feGaussianBlur52" />
    </filter>
    <linearGradient
       id="SVGID_11_"
       x1="1456.9"
       x2="1460.4"
       y1="-810.5"
       y2="-811.90002"
       gradientTransform="matrix(-2.732,0,0,2.732,4027.2,2244.5)"
       gradientUnits="userSpaceOnUse">
      <stop
         stop-color="#E7DDAF"
         offset="0"
         id="stop55" />
      <stop
         stop-color="#E7DDAF"
         stop-opacity="0"
         offset="1"
         id="stop57" />
    </linearGradient>
    <linearGradient
       id="SVGID_12_"
       x1="1456.3"
       x2="1460"
       y1="-807.81"
       y2="-808.71997"
       gradientTransform="matrix(-2.731,-0.077161,-0.077161,2.731,3970.8,2345.5)"
       gradientUnits="userSpaceOnUse">
      <stop
         stop-color="#EAC7AE"
         offset="0"
         id="stop60" />
      <stop
         stop-color="#EAC7AE"
         stop-opacity="0"
         offset="1"
         id="stop62" />
    </linearGradient>
    <linearGradient
       id="SVGID_13_"
       x1="1459.9"
       x2="1462.9"
       y1="-808.34003"
       y2="-810.65997"
       gradientTransform="matrix(-2.732,0,0,2.732,4027.2,2244.5)"
       gradientUnits="userSpaceOnUse">
      <stop
         stop-color="#CAEFB9"
         offset="0"
         id="stop65" />
      <stop
         stop-color="#CAEFB9"
         stop-opacity="0"
         offset="1"
         id="stop67" />
    </linearGradient>
    <linearGradient
       id="SVGID_14_"
       x1="1462.3"
       x2="1464.5"
       y1="-805.88"
       y2="-808.59998"
       gradientTransform="matrix(-2.732,0,0,2.732,4027.2,2244.5)"
       gradientUnits="userSpaceOnUse">
      <stop
         stop-color="#B1E3DA"
         offset="0"
         id="stop70" />
      <stop
         stop-color="#B1E3DA"
         stop-opacity="0"
         offset="1"
         id="stop72" />
    </linearGradient>
    <linearGradient
       id="SVGID_15_"
       x1="1463.3"
       x2="1462.4"
       y1="-803.87"
       y2="-801.14001"
       gradientTransform="matrix(-2.732,0,0,2.732,4027.2,2244.5)"
       gradientUnits="userSpaceOnUse">
      <stop
         stop-color="#A5C5EE"
         offset="0"
         id="stop75" />
      <stop
         stop-color="#A5C5EE"
         stop-opacity="0"
         offset="1"
         id="stop77" />
    </linearGradient>
    <filter
       id="u"
       x="-0.14734"
       y="-0.16574"
       width="1.2947"
       height="1.3315001"
       color-interpolation-filters="sRGB">
      <feGaussianBlur
         stdDeviation="3.3624534"
         id="feGaussianBlur80" />
    </filter>
    <filter
       id="t"
       x="-0.14734"
       y="-0.16574"
       width="1.2947"
       height="1.3315001"
       color-interpolation-filters="sRGB">
      <feGaussianBlur
         stdDeviation="3.3624534"
         id="feGaussianBlur83" />
    </filter>
    <filter
       id="v"
       x="-0.14734"
       y="-0.16574"
       width="1.2947"
       height="1.3315001"
       color-interpolation-filters="sRGB">
      <feGaussianBlur
         stdDeviation="3.3624534"
         id="feGaussianBlur86" />
    </filter>
    <linearGradient
       id="g"
       x1="1456.9"
       x2="1460.4"
       y1="-810.5"
       y2="-811.90002"
       gradientTransform="matrix(-2.732,0,0,2.732,4027.2,2244.5)"
       gradientUnits="userSpaceOnUse"
       xlink:href="#SVGID_11_" />
    <linearGradient
       id="f"
       x1="1456.3"
       x2="1460"
       y1="-807.81"
       y2="-808.71997"
       gradientTransform="matrix(-2.731,-0.077161,-0.077161,2.731,3970.8,2345.5)"
       gradientUnits="userSpaceOnUse"
       xlink:href="#SVGID_12_" />
    <linearGradient
       id="e"
       x1="1459.9"
       x2="1462.9"
       y1="-808.34003"
       y2="-810.65997"
       gradientTransform="matrix(-2.732,0,0,2.732,4027.2,2244.5)"
       gradientUnits="userSpaceOnUse"
       xlink:href="#SVGID_13_" />
    <linearGradient
       id="d"
       x1="1462.3"
       x2="1464.5"
       y1="-805.88"
       y2="-808.59998"
       gradientTransform="matrix(-2.732,0,0,2.732,4027.2,2244.5)"
       gradientUnits="userSpaceOnUse"
       xlink:href="#SVGID_14_" />
    <linearGradient
       id="c"
       x1="1463.3"
       x2="1462.4"
       y1="-803.87"
       y2="-801.14001"
       gradientTransform="matrix(-2.732,0,0,2.732,4027.2,2244.5)"
       gradientUnits="userSpaceOnUse"
       xlink:href="#SVGID_15_" />
    <linearGradient
       id="s"
       x1="-1129.7"
       x2="-1106.6"
       y1="944.53003"
       y2="962.73999"
       gradientTransform="matrix(0,0.88949,0.88843,0,-830.45,1274.5)"
       gradientUnits="userSpaceOnUse">
      <stop
         stop-color="#BFBFBF"
         offset="0"
         id="stop94" />
      <stop
         stop-color="#fff"
         offset=".5"
         id="stop96" />
      <stop
         stop-color="#BFBFBF"
         offset="1"
         id="stop98" />
    </linearGradient>
    <linearGradient
       id="q"
       x1="-1067.4"
       x2="-1063.9"
       y1="767.71997"
       y2="769.13"
       gradientTransform="matrix(2.732,0,0,-2.732,2963.2,2127.6)"
       gradientUnits="userSpaceOnUse"
       xlink:href="#SVGID_1_" />
    <filter
       id="a"
       x="-0.11334"
       y="-0.12749"
       width="1.2266999"
       height="1.255"
       color-interpolation-filters="sRGB">
      <feGaussianBlur
         stdDeviation="2.586503"
         id="feGaussianBlur102" />
    </filter>
    <linearGradient
       id="p"
       x1="-1062.2"
       x2="-1058.5"
       y1="772.46997"
       y2="773.39001"
       gradientTransform="matrix(2.731,0.077161,0.077161,-2.731,2897.1,2218.6)"
       gradientUnits="userSpaceOnUse"
       xlink:href="#SVGID_2_" />
    <linearGradient
       id="o"
       x1="-1070.5"
       x2="-1067.6"
       y1="765.57001"
       y2="767.88"
       gradientTransform="matrix(2.732,0,0,-2.732,2963.2,2127.6)"
       gradientUnits="userSpaceOnUse"
       xlink:href="#SVGID_3_" />
    <linearGradient
       id="r"
       x1="-1196.7"
       x2="-1197.3"
       y1="860.46002"
       y2="818.53998"
       gradientTransform="matrix(0.28013,0,0,0.28047,-0.98042,262.12)"
       gradientUnits="userSpaceOnUse">
      <stop
         stop-color="#323232"
         offset="0"
         id="stop107" />
      <stop
         offset="1"
         id="stop109" />
    </linearGradient>
    <linearGradient
       id="n"
       x1="-1072.8"
       x2="-1070.6"
       y1="763.09998"
       y2="765.83002"
       gradientTransform="matrix(2.732,0,0,-2.732,2963.2,2127.6)"
       gradientUnits="userSpaceOnUse"
       xlink:href="#SVGID_4_" />
    <linearGradient
       id="m"
       x1="-1073.9"
       x2="-1074.7"
       y1="761.09003"
       y2="758.35999"
       gradientTransform="matrix(2.732,0,0,-2.732,2963.2,2127.6)"
       gradientUnits="userSpaceOnUse"
       xlink:href="#SVGID_5_" />
    <linearGradient
       id="l"
       x1="-1050.5"
       x2="-1047"
       y1="749.27002"
       y2="750.65997"
       gradientTransform="matrix(-2.732,0,0,2.732,-2788.9,-1949.3)"
       gradientUnits="userSpaceOnUse"
       xlink:href="#SVGID_6_" />
    <filter
       id="b"
       x="-0.11415"
       y="-0.12648"
       width="1.2283"
       height="1.253"
       color-interpolation-filters="sRGB">
      <feGaussianBlur
         stdDeviation="2.580615"
         id="feGaussianBlur115" />
    </filter>
    <linearGradient
       id="k"
       x1="-1044.8"
       x2="-1041.1"
       y1="754.5"
       y2="755.40997"
       gradientTransform="matrix(-2.731,-0.077161,-0.077161,2.731,-2722.7,-2040.3)"
       gradientUnits="userSpaceOnUse"
       xlink:href="#SVGID_7_" />
    <linearGradient
       id="j"
       x1="-1053.6"
       x2="-1050.7"
       y1="747.10999"
       y2="749.41998"
       gradientTransform="matrix(-2.732,0,0,2.732,-2788.9,-1949.3)"
       gradientUnits="userSpaceOnUse"
       xlink:href="#SVGID_8_" />
    <linearGradient
       id="i"
       x1="-1055.9"
       x2="-1053.6"
       y1="744.65002"
       y2="747.38"
       gradientTransform="matrix(-2.732,0,0,2.732,-2788.9,-1949.3)"
       gradientUnits="userSpaceOnUse"
       xlink:href="#SVGID_9_" />
    <linearGradient
       id="h"
       x1="-1056.9"
       x2="-1057.8"
       y1="742.60999"
       y2="739.87"
       gradientTransform="matrix(-2.732,0,0,2.732,-2788.9,-1949.3)"
       gradientUnits="userSpaceOnUse"
       xlink:href="#SVGID_10_" />
    <linearGradient
       inkscape:collect="always"
       xlink:href="#SVGID_11_"
       id="linearGradient290"
       gradientUnits="userSpaceOnUse"
       gradientTransform="matrix(-2.732,0,0,2.732,4027.2,2244.5)"
       x1="1456.9"
       y1="-810.5"
       x2="1460.4"
       y2="-811.90002" />
    <linearGradient
       inkscape:collect="always"
       xlink:href="#SVGID_12_"
       id="linearGradient292"
       gradientUnits="userSpaceOnUse"
       gradientTransform="matrix(-2.731,-0.077161,-0.077161,2.731,3970.8,2345.5)"
       x1="1456.3"
       y1="-807.81"
       x2="1460"
       y2="-808.71997" />
    <linearGradient
       inkscape:collect="always"
       xlink:href="#SVGID_13_"
       id="linearGradient294"
       gradientUnits="userSpaceOnUse"
       gradientTransform="matrix(-2.732,0,0,2.732,4027.2,2244.5)"
       x1="1459.9"
       y1="-808.34003"
       x2="1462.9"
       y2="-810.65997" />
    <linearGradient
       inkscape:collect="always"
       xlink:href="#SVGID_14_"
       id="linearGradient296"
       gradientUnits="userSpaceOnUse"
       gradientTransform="matrix(-2.732,0,0,2.732,4027.2,2244.5)"
       x1="1462.3"
       y1="-805.88"
       x2="1464.5"
       y2="-808.59998" />
    <linearGradient
       inkscape:collect="always"
       xlink:href="#SVGID_15_"
       id="linearGradient298"
       gradientUnits="userSpaceOnUse"
       gradientTransform="matrix(-2.732,0,0,2.732,4027.2,2244.5)"
       x1="1463.3"
       y1="-803.87"
       x2="1462.4"
       y2="-801.14001" />
    <linearGradient
       inkscape:collect="always"
       xlink:href="#SVGID_11_"
       id="linearGradient300"
       gradientUnits="userSpaceOnUse"
       gradientTransform="matrix(-2.732,0,0,2.732,4027.2,2244.5)"
       x1="1456.9"
       y1="-810.5"
       x2="1460.4"
       y2="-811.90002" />
    <linearGradient
       inkscape:collect="always"
       xlink:href="#SVGID_12_"
       id="linearGradient302"
       gradientUnits="userSpaceOnUse"
       gradientTransform="matrix(-2.731,-0.077161,-0.077161,2.731,3970.8,2345.5)"
       x1="1456.3"
       y1="-807.81"
       x2="1460"
       y2="-808.71997" />
    <linearGradient
       inkscape:collect="always"
       xlink:href="#SVGID_13_"
       id="linearGradient304"
       gradientUnits="userSpaceOnUse"
       gradientTransform="matrix(-2.732,0,0,2.732,4027.2,2244.5)"
       x1="1459.9"
       y1="-808.34003"
       x2="1462.9"
       y2="-810.65997" />
    <linearGradient
       inkscape:collect="always"
       xlink:href="#SVGID_14_"
       id="linearGradient306"
       gradientUnits="userSpaceOnUse"
       gradientTransform="matrix(-2.732,0,0,2.732,4027.2,2244.5)"
       x1="1462.3"
       y1="-805.88"
       x2="1464.5"
       y2="-808.59998" />
    <linearGradient
       inkscape:collect="always"
       xlink:href="#SVGID_15_"
       id="linearGradient308"
       gradientUnits="userSpaceOnUse"
       gradientTransform="matrix(-2.732,0,0,2.732,4027.2,2244.5)"
       x1="1463.3"
       y1="-803.87"
       x2="1462.4"
       y2="-801.14001" />
    <linearGradient
       inkscape:collect="always"
       xlink:href="#SVGID_11_"
       id="linearGradient310"
       gradientUnits="userSpaceOnUse"
       gradientTransform="matrix(-2.732,0,0,2.732,4027.2,2244.5)"
       x1="1456.9"
       y1="-810.5"
       x2="1460.4"
       y2="-811.90002" />
    <linearGradient
       inkscape:collect="always"
       xlink:href="#SVGID_12_"
       id="linearGradient312"
       gradientUnits="userSpaceOnUse"
       gradientTransform="matrix(-2.731,-0.077161,-0.077161,2.731,3970.8,2345.5)"
       x1="1456.3"
       y1="-807.81"
       x2="1460"
       y2="-808.71997" />
    <linearGradient
       inkscape:collect="always"
       xlink:href="#SVGID_13_"
       id="linearGradient314"
       gradientUnits="userSpaceOnUse"
       gradientTransform="matrix(-2.732,0,0,2.732,4027.2,2244.5)"
       x1="1459.9"
       y1="-808.34003"
       x2="1462.9"
       y2="-810.65997" />
    <linearGradient
       inkscape:collect="always"
       xlink:href="#SVGID_14_"
       id="linearGradient316"
       gradientUnits="userSpaceOnUse"
       gradientTransform="matrix(-2.732,0,0,2.732,4027.2,2244.5)"
       x1="1462.3"
       y1="-805.88"
       x2="1464.5"
       y2="-808.59998" />
    <linearGradient
       inkscape:collect="always"
       xlink:href="#SVGID_15_"
       id="linearGradient318"
       gradientUnits="userSpaceOnUse"
       gradientTransform="matrix(-2.732,0,0,2.732,4027.2,2244.5)"
       x1="1463.3"
       y1="-803.87"
       x2="1462.4"
       y2="-801.14001" />
    <linearGradient
       inkscape:collect="always"
       xlink:href="#SVGID_1_"
       id="linearGradient320"
       gradientUnits="userSpaceOnUse"
       gradientTransform="matrix(2.732,0,0,-2.732,2963.2,2127.6)"
       x1="-1067.4"
       y1="767.71997"
       x2="-1063.9"
       y2="769.13" />
    <linearGradient
       inkscape:collect="always"
       xlink:href="#SVGID_2_"
       id="linearGradient322"
       gradientUnits="userSpaceOnUse"
       gradientTransform="matrix(2.731,0.077161,0.077161,-2.731,2897.1,2218.6)"
       x1="-1062.2"
       y1="772.46997"
       x2="-1058.5"
       y2="773.39001" />
    <linearGradient
       inkscape:collect="always"
       xlink:href="#SVGID_3_"
       id="linearGradient324"
       gradientUnits="userSpaceOnUse"
       gradientTransform="matrix(2.732,0,0,-2.732,2963.2,2127.6)"
       x1="-1070.5"
       y1="765.57001"
       x2="-1067.6"
       y2="767.88" />
    <linearGradient
       inkscape:collect="always"
       xlink:href="#SVGID_4_"
       id="linearGradient326"
       gradientUnits="userSpaceOnUse"
       gradientTransform="matrix(2.732,0,0,-2.732,2963.2,2127.6)"
       x1="-1072.8"
       y1="763.09998"
       x2="-1070.6"
       y2="765.83002" />
    <linearGradient
       inkscape:collect="always"
       xlink:href="#SVGID_5_"
       id="linearGradient328"
       gradientUnits="userSpaceOnUse"
       gradientTransform="matrix(2.732,0,0,-2.732,2963.2,2127.6)"
       x1="-1073.9"
       y1="761.09003"
       x2="-1074.7"
       y2="758.35999" />
    <linearGradient
       inkscape:collect="always"
       xlink:href="#SVGID_6_"
       id="linearGradient330"
       gradientUnits="userSpaceOnUse"
       gradientTransform="matrix(-2.732,0,0,2.732,-2788.9,-1949.3)"
       x1="-1050.5"
       y1="749.27002"
       x2="-1047"
       y2="750.65997" />
    <linearGradient
       inkscape:collect="always"
       xlink:href="#SVGID_7_"
       id="linearGradient332"
       gradientUnits="userSpaceOnUse"
       gradientTransform="matrix(-2.731,-0.077161,-0.077161,2.731,-2722.7,-2040.3)"
       x1="-1044.8"
       y1="754.5"
       x2="-1041.1"
       y2="755.40997" />
    <linearGradient
       inkscape:collect="always"
       xlink:href="#SVGID_8_"
       id="linearGradient334"
       gradientUnits="userSpaceOnUse"
       gradientTransform="matrix(-2.732,0,0,2.732,-2788.9,-1949.3)"
       x1="-1053.6"
       y1="747.10999"
       x2="-1050.7"
       y2="749.41998" />
    <linearGradient
       inkscape:collect="always"
       xlink:href="#SVGID_9_"
       id="linearGradient336"
       gradientUnits="userSpaceOnUse"
       gradientTransform="matrix(-2.732,0,0,2.732,-2788.9,-1949.3)"
       x1="-1055.9"
       y1="744.65002"
       x2="-1053.6"
       y2="747.38" />
    <linearGradient
       inkscape:collect="always"
       xlink:href="#SVGID_10_"
       id="linearGradient338"
       gradientUnits="userSpaceOnUse"
       gradientTransform="matrix(-2.732,0,0,2.732,-2788.9,-1949.3)"
       x1="-1056.9"
       y1="742.60999"
       x2="-1057.8"
       y2="739.87" />
    <filter
       style="color-interpolation-filters:sRGB;"
       inkscape:label="Drop Shadow"
       id="filter1286">
      <feFlood
         flood-opacity="1"
         flood-color="rgb(143,142,143)"
         result="flood"
         id="feFlood1276" />
      <feComposite
         in="flood"
         in2="SourceGraphic"
         operator="in"
         result="composite1"
         id="feComposite1278" />
      <feGaussianBlur
         in="composite1"
         stdDeviation="0.5"
         result="blur"
         id="feGaussianBlur1280" />
      <feOffset
         dx="0.2"
         dy="0.1"
         result="offset"
         id="feOffset1282" />
      <feComposite
         in="SourceGraphic"
         in2="offset"
         operator="over"
         result="composite2"
         id="feComposite1284" />
    </filter>
  </defs>
  <g
     transform="matrix(-15.319439,0,0,-15.368472,-435.97334,-200.59605)"
     display="none"
     filter="url(#w)"
     id="g136">
    <path
       d="m 32.027,20.525 18.936,25.572 c 2.4941,-1.8301 5.3711,-3.1885 8.5859,-3.8936 0.08496,-0.01953 0.16406,-0.03711 0.25,-0.05469 l -6.6377,-31.131 c -7.8936,1.5332 -14.533,5.0693 -21.134,9.5068 z"
       display="inline"
       enable-background="new    "
       fill="url(#g)"
       opacity="0.8"
       id="path124"
       style="fill:url(#linearGradient290)" />
    <g
       display="inline"
       id="g134">
      <path
         d="m 43.664,13.968 12.203,29.351 c 2.8633,-1.1729 5.9824,-1.7959 9.272,-1.7021 0.0874,0.002 0.16894,0.0039 0.25635,0.0068 L 66.3309,9.8907 c -8.0303,-0.41992 -15.188,1.3672 -22.667,4.0781 z"
         enable-background="new    "
         fill="url(#f)"
         opacity="0.8"
         id="path126"
         style="fill:url(#linearGradient292)" />
      <path
         d="m 21.456,30.745 25.173,19.549 c 1.9355,-2.4121 4.3623,-4.4688 7.2852,-5.9824 0.07813,-0.04102 0.14941,-0.07813 0.22754,-0.11719 l -14.617,-28.191 c -7.2275,3.5234 -12.841,8.7471 -18.068,14.742 z"
         enable-background="new    "
         fill="url(#e)"
         opacity="0.8"
         id="path128"
         style="fill:url(#linearGradient294)" />
      <path
         d="m 14.299,42.841 c 19.602,6.125 21.447,19.21 34.906,4.792 L 27.596,23.875 c -6.0684,5.2744 -9.7988,11.822 -13.297,18.966 z"
         enable-background="new    "
         fill="url(#d)"
         opacity="0.8"
         id="path130"
         style="fill:url(#linearGradient296)" />
      <path
         d="m 18.459,34.97 c -3.2324,4.7871 -5.2119,9.9355 -6.8984,15.42 l 30.977,8.1289 c 0.58984,-2.085 1.416,-4.1387 2.6465,-6.0625 0.04785,-0.07324 0.12305,-0.18262 0.17188,-0.25586 z"
         enable-background="new    "
         fill="url(#c)"
         opacity="0.8"
         id="path132"
         style="fill:url(#linearGradient298)" />
    </g>
  </g>
  <g
     transform="matrix(-15.319439,0,0,-15.368472,-435.97334,-200.59605)"
     display="none"
     filter="url(#u)"
     id="g150">
    <path
       d="m 32.027,20.525 18.936,25.572 c 2.4941,-1.8301 5.3711,-3.1885 8.5859,-3.8936 0.08496,-0.01953 0.16406,-0.03711 0.25,-0.05469 l -6.6377,-31.131 c -7.8936,1.5332 -14.533,5.0693 -21.134,9.5068 z"
       display="inline"
       enable-background="new    "
       fill="url(#g)"
       opacity="0.8"
       id="path138"
       style="fill:url(#linearGradient300)" />
    <g
       display="inline"
       id="g148">
      <path
         d="m 43.664,13.968 12.203,29.351 c 2.8633,-1.1729 5.9824,-1.7959 9.272,-1.7021 0.0874,0.002 0.16894,0.0039 0.25635,0.0068 L 66.3309,9.8907 c -8.0303,-0.41992 -15.188,1.3672 -22.667,4.0781 z"
         enable-background="new    "
         fill="url(#f)"
         opacity="0.8"
         id="path140"
         style="fill:url(#linearGradient302)" />
      <path
         d="m 21.456,30.745 25.173,19.549 c 1.9355,-2.4121 4.3623,-4.4688 7.2852,-5.9824 0.07813,-0.04102 0.14941,-0.07813 0.22754,-0.11719 l -14.617,-28.191 c -7.2275,3.5234 -12.841,8.7471 -18.068,14.742 z"
         enable-background="new    "
         fill="url(#e)"
         opacity="0.8"
         id="path142"
         style="fill:url(#linearGradient304)" />
      <path
         d="m 14.299,42.841 c 19.602,6.125 21.447,19.21 34.906,4.792 L 27.596,23.875 c -6.0684,5.2744 -9.7988,11.822 -13.297,18.966 z"
         enable-background="new    "
         fill="url(#d)"
         opacity="0.8"
         id="path144"
         style="fill:url(#linearGradient306)" />
      <path
         d="m 18.459,34.97 c -3.2324,4.7871 -5.2119,9.9355 -6.8984,15.42 l 30.977,8.1289 c 0.58984,-2.085 1.416,-4.1387 2.6465,-6.0625 0.04785,-0.07324 0.12305,-0.18262 0.17188,-0.25586 z"
         enable-background="new    "
         fill="url(#c)"
         opacity="0.8"
         id="path146"
         style="fill:url(#linearGradient308)" />
    </g>
  </g>
  <g
     transform="matrix(-15.319439,0,0,-15.368472,-2355.7555,-1112.6247)"
     display="none"
     filter="url(#t)"
     id="g164">
    <path
       d="m 32.027,20.525 18.936,25.572 c 2.4941,-1.8301 5.3711,-3.1885 8.5859,-3.8936 0.08496,-0.01953 0.16406,-0.03711 0.25,-0.05469 l -6.6377,-31.131 c -7.8936,1.5332 -14.533,5.0693 -21.134,9.5068 z"
       display="inline"
       enable-background="new    "
       fill="url(#g)"
       opacity="0.8"
       id="path152"
       style="fill:url(#linearGradient310)" />
    <g
       display="inline"
       id="g162">
      <path
         d="m 43.664,13.968 12.203,29.351 c 2.8633,-1.1729 5.9824,-1.7959 9.272,-1.7021 0.0874,0.002 0.16894,0.0039 0.25635,0.0068 L 66.3309,9.8907 c -8.0303,-0.41992 -15.188,1.3672 -22.667,4.0781 z"
         enable-background="new    "
         fill="url(#f)"
         opacity="0.8"
         id="path154"
         style="fill:url(#linearGradient312)" />
      <path
         d="m 21.456,30.745 25.173,19.549 c 1.9355,-2.4121 4.3623,-4.4688 7.2852,-5.9824 0.07813,-0.04102 0.14941,-0.07813 0.22754,-0.11719 l -14.617,-28.191 c -7.2275,3.5234 -12.841,8.7471 -18.068,14.742 z"
         enable-background="new    "
         fill="url(#e)"
         opacity="0.8"
         id="path156"
         style="fill:url(#linearGradient314)" />
      <path
         d="m 14.299,42.841 c 19.602,6.125 21.447,19.21 34.906,4.792 L 27.596,23.875 c -6.0684,5.2744 -9.7988,11.822 -13.297,18.966 z"
         enable-background="new    "
         fill="url(#d)"
         opacity="0.8"
         id="path158"
         style="fill:url(#linearGradient316)" />
      <path
         d="m 18.459,34.97 c -3.2324,4.7871 -5.2119,9.9355 -6.8984,15.42 l 30.977,8.1289 c 0.58984,-2.085 1.416,-4.1387 2.6465,-6.0625 0.04785,-0.07324 0.12305,-0.18262 0.17188,-0.25586 z"
         enable-background="new    "
         fill="url(#c)"
         opacity="0.8"
         id="path160"
         style="fill:url(#linearGradient318)" />
    </g>
  </g>
  <g
     transform="matrix(-15.319439,0,0,-15.368472,-5017.9953,-1290.7701)"
     display="none"
     fill="#ffffff"
     filter="url(#v)"
     stroke-width="4.0483px"
     id="g178">
    <path
       d="m 32.027,20.525 18.936,25.572 c 2.4941,-1.8301 5.3711,-3.1885 8.5859,-3.8936 0.08496,-0.01953 0.16406,-0.03711 0.25,-0.05469 l -6.6377,-31.131 c -7.8936,1.5332 -14.533,5.0693 -21.134,9.5068 z"
       display="inline"
       enable-background="new    "
       fill="url(#g)"
       opacity="0.8"
       id="path166"
       style="fill:url(#g)" />
    <g
       display="inline"
       id="g176">
      <path
         d="m 43.664,13.968 12.203,29.351 c 2.8633,-1.1729 5.9824,-1.7959 9.272,-1.7021 0.0874,0.002 0.16894,0.0039 0.25635,0.0068 L 66.3309,9.8907 c -8.0303,-0.41992 -15.188,1.3672 -22.667,4.0781 z"
         enable-background="new    "
         fill="url(#f)"
         opacity="0.8"
         id="path168"
         style="fill:url(#f)" />
      <path
         d="m 21.456,30.745 25.173,19.549 c 1.9355,-2.4121 4.3623,-4.4688 7.2852,-5.9824 0.07813,-0.04102 0.14941,-0.07813 0.22754,-0.11719 l -14.617,-28.191 c -7.2275,3.5234 -12.841,8.7471 -18.068,14.742 z"
         enable-background="new    "
         fill="url(#e)"
         opacity="0.8"
         id="path170"
         style="fill:url(#e)" />
      <path
         d="m 14.299,42.841 c 19.602,6.125 21.447,19.21 34.906,4.792 L 27.596,23.875 c -6.0684,5.2744 -9.7988,11.822 -13.297,18.966 z"
         enable-background="new    "
         fill="url(#d)"
         opacity="0.8"
         id="path172"
         style="fill:url(#d)" />
      <path
         d="m 18.459,34.97 c -3.2324,4.7871 -5.2119,9.9355 -6.8984,15.42 l 30.977,8.1289 c 0.58984,-2.085 1.416,-4.1387 2.6465,-6.0625 0.04785,-0.07324 0.12305,-0.18262 0.17188,-0.25586 z"
         enable-background="new    "
         fill="url(#c)"
         opacity="0.8"
         id="path174"
         style="fill:url(#c)" />
    </g>
  </g>
  <g
     transform="matrix(7.8937627,0,0,7.6274316,1.8620637,-2000.8271)"
     stroke-width="2.0303"
     id="g230"
     style="stroke-width:0.68195032;stroke-miterlimit:4;stroke-dasharray:none;filter:url(#filter1286)">
    <g
       id="g190"
       style="stroke-width:0.68195032;stroke-miterlimit:4;stroke-dasharray:none">
      <path
         d="m 32.472,280.08 c 0,-8.6281 -6.9294,-15.566 -15.547,-15.566 -8.6178,0 -15.547,6.9379 -15.547,15.566 0,8.6282 6.9296,15.566 15.547,15.566 8.6179,0 15.547,-6.9377 15.547,-15.566 z m -9.8593,0 c 0,3.1344 -2.4944,5.6948 -5.688,5.6948 -3.2561,0 -5.688,-2.6236 -5.688,-5.6948 0,-3.1339 2.3066,-5.6948 5.688,-5.6948 3.3813,0 5.688,2.623 5.688,5.6948 z"
         fill="url(#s)"
         stroke="#999999"
         stroke-width="0.53718"
         id="path180"
         style="fill:url(#s);stroke-width:0.68195032;stroke-miterlimit:4;stroke-dasharray:none" />
      <path
         d="m 16.948,274.18 c -3.2472,0 -5.8828,2.6387 -5.8828,5.8898 0,3.2511 2.6355,5.8898 5.8828,5.8898 3.2472,0 5.8828,-2.6387 5.8828,-5.8898 0,-3.2511 -2.6355,-5.8898 -5.8828,-5.8898 z m 0,2.9449 c 1.6236,0 2.9414,1.3194 2.9414,2.9449 0,1.6256 -1.3178,2.9449 -2.9414,2.9449 -1.6236,0 -2.9414,-1.3194 -2.9414,-2.9449 0,-1.6256 1.3178,-2.9449 2.9414,-2.9449 z"
         enable-background="new    "
         fill="#323232"
         opacity="0.2"
         id="path182"
         style="stroke-width:0.68195032;stroke-miterlimit:4;stroke-dasharray:none" />
      <path
         transform="matrix(0.28013,0,0,0.28047,-0.98042,262.12)"
         d="m 32.026,20.525 18.936,25.572 c 2.4946,-1.8301 5.3711,-3.1885 8.5859,-3.8936 0.08545,-0.01904 0.16455,-0.03711 0.25,-0.05517 l -6.6372,-31.13 c -7.8931,1.5337 -14.533,5.0693 -21.134,9.5068 z"
         enable-background="new    "
         fill="url(#q)"
         filter="url(#a)"
         opacity="0.8"
         id="path184"
         style="fill:url(#linearGradient320);stroke-width:2.43293058;stroke-miterlimit:4;stroke-dasharray:none" />
      <path
         transform="matrix(0.28013,0,0,0.28047,-0.98042,262.12)"
         d="m 43.664,13.967 12.202,29.352 c 2.8633,-1.1724 5.9829,-1.7954 9.2725,-1.7021 0.08789,0.002 0.16894,0.0034 0.25586,0.0068 l 0.93555,-31.733 c -8.0293,-0.42041 -15.188,1.3672 -22.666,4.0767 z"
         enable-background="new    "
         fill="url(#p)"
         filter="url(#a)"
         opacity="0.8"
         id="path186"
         style="fill:url(#linearGradient322);stroke-width:2.43293058;stroke-miterlimit:4;stroke-dasharray:none" />
      <path
         transform="matrix(0.28013,0,0,0.28047,-0.98042,262.12)"
         d="m 21.456,30.745 25.172,19.55 c 1.936,-2.4131 4.3628,-4.4697 7.2856,-5.9829 0.07764,-0.04004 0.14941,-0.07861 0.22754,-0.11768 l -14.617,-28.191 c -7.2271,3.5239 -12.84,8.7471 -18.068,14.742 z"
         enable-background="new    "
         fill="url(#o)"
         filter="url(#a)"
         opacity="0.8"
         id="path188"
         style="fill:url(#linearGradient324);stroke-width:2.43293058;stroke-miterlimit:4;stroke-dasharray:none" />
    </g>
    <path
       d="m 16.961,285.94 c -3.2584,0 -5.8787,-2.6234 -5.8787,-5.8857 0,-3.2623 2.6202,-5.8857 5.8787,-5.8857 3.2585,0 5.8787,2.6234 5.8787,5.8857 0,3.2624 -2.6202,5.8857 -5.8787,5.8857 z"
       enable-background="new    "
       fill="none"
       opacity="0.1"
       stroke="url(#r)"
       stroke-width="6.4462"
       id="path192"
       style="stroke:url(#r);stroke-width:0.68195032;stroke-miterlimit:4;stroke-dasharray:none" />
    <g
       id="g228"
       style="stroke-width:0.68195032;stroke-miterlimit:4;stroke-dasharray:none">
      <path
         transform="matrix(0.28013,0,0,0.28047,-0.98042,262.12)"
         d="m 14.299,42.841 c 19.602,6.1255 21.447,19.21 34.907,4.792 L 27.596,23.875 c -6.0684,5.2744 -9.7988,11.822 -13.297,18.966 z"
         enable-background="new    "
         fill="url(#n)"
         filter="url(#a)"
         opacity="0.8"
         id="path194"
         style="fill:url(#linearGradient326);stroke-width:2.43293058;stroke-miterlimit:4;stroke-dasharray:none" />
      <path
         transform="matrix(0.28013,0,0,0.28047,-0.98042,262.12)"
         d="m 18.458,34.97 c -3.2324,4.7866 -5.2119,9.9346 -6.8989,15.419 l 30.978,8.1289 c 0.58887,-2.085 1.4155,-4.1387 2.6465,-6.062 0.04736,-0.07373 0.12305,-0.18311 0.1709,-0.25586 z"
         enable-background="new    "
         fill="url(#m)"
         filter="url(#a)"
         opacity="0.8"
         id="path196"
         style="fill:url(#linearGradient328);stroke-width:2.43293058;stroke-miterlimit:4;stroke-dasharray:none" />
      <path
         transform="matrix(0.28013,0,0,0.28047,-0.98042,262.12)"
         d="M 96.074,107.42 77.316,81.702 c -2.4717,1.8408 -5.3213,3.2061 -8.5059,3.915 -0.08398,0.01953 -0.16309,0.03711 -0.24805,0.05566 l 6.5762,31.308 c 7.8184,-1.542 14.397,-5.0976 20.936,-9.5605 z"
         enable-background="new    "
         fill="url(#l)"
         filter="url(#b)"
         opacity="0.8"
         id="path198"
         style="fill:url(#linearGradient330);stroke-width:2.43293058;stroke-miterlimit:4;stroke-dasharray:none" />
      <path
         transform="matrix(0.28013,0,0,0.28047,-0.98042,262.12)"
         d="M 84.546,114.02 72.458,84.502 c -2.8359,1.1777 -5.9287,1.8047 -9.186,1.71 -0.0874,-0.002 -0.16748,-0.0029 -0.25342,-0.0059 l -0.92676,31.913 c 7.9541,0.42285 15.045,-1.375 22.454,-4.0996 z"
         enable-background="new    "
         fill="url(#k)"
         filter="url(#b)"
         opacity="0.8"
         id="path200"
         style="fill:url(#linearGradient332);stroke-width:2.43293058;stroke-miterlimit:4;stroke-dasharray:none" />
      <path
         transform="matrix(0.28013,0,0,0.28047,-0.98042,262.12)"
         d="M 106.55,97.145 81.613,77.484 c -1.9189,2.4268 -4.3223,4.4951 -7.2178,6.0166 -0.07715,0.04102 -0.14746,0.0791 -0.22363,0.11816 l 14.479,28.352 c 7.1582,-3.544 12.72,-8.7959 17.898,-14.825 z"
         enable-background="new    "
         fill="url(#j)"
         filter="url(#b)"
         opacity="0.8"
         id="path202"
         style="fill:url(#linearGradient334);stroke-width:2.43293058;stroke-miterlimit:4;stroke-dasharray:none" />
      <path
         transform="matrix(0.28013,0,0,0.28047,-0.98042,262.12)"
         d="M 113.64,84.979 C 94.222,78.8198 92.393,65.661 79.06,80.1606 l 21.407,23.894 c 6.0127,-5.3057 9.708,-11.89 13.173,-19.075 z"
         enable-background="new    "
         fill="url(#i)"
         filter="url(#b)"
         opacity="0.8"
         id="path204"
         style="fill:url(#linearGradient336);stroke-width:2.43293058;stroke-miterlimit:4;stroke-dasharray:none" />
      <path
         transform="matrix(0.28013,0,0,0.28047,-0.98042,262.12)"
         d="m 109.51,92.895 c 3.2041,-4.8145 5.1641,-9.9912 6.835,-15.508 L 85.657,69.2122 c -0.58398,2.0977 -1.4033,4.1621 -2.6211,6.0967 -0.04687,0.07519 -0.12305,0.18457 -0.16992,0.25781 z"
         enable-background="new    "
         fill="url(#h)"
         filter="url(#b)"
         opacity="0.8"
         id="path206"
         style="fill:url(#linearGradient338);stroke-width:2.43293058;stroke-miterlimit:4;stroke-dasharray:none" />
      <path
         transform="matrix(0.28013,0,0,0.28047,-0.98042,262.12)"
         d="m 32.026,20.525 18.936,25.572 c 2.4946,-1.8301 5.3711,-3.1885 8.5859,-3.8936 0.08545,-0.01904 0.16455,-0.03711 0.25,-0.05517 l -6.6372,-31.13 c -7.8931,1.5337 -14.533,5.0693 -21.134,9.5068 z"
         enable-background="new    "
         fill="url(#q)"
         filter="url(#a)"
         opacity="0.8"
         id="path208"
         style="fill:url(#q);stroke-width:2.43293058;stroke-miterlimit:4;stroke-dasharray:none" />
      <path
         transform="matrix(0.28013,0,0,0.28047,-0.98042,262.12)"
         d="m 43.664,13.967 12.202,29.352 c 2.8633,-1.1724 5.9829,-1.7954 9.2725,-1.7021 0.08789,0.002 0.16894,0.0034 0.25586,0.0068 l 0.93555,-31.733 c -8.0293,-0.42041 -15.188,1.3672 -22.666,4.0767 z"
         enable-background="new    "
         fill="url(#p)"
         filter="url(#a)"
         opacity="0.8"
         id="path210"
         style="fill:url(#p);stroke-width:2.43293058;stroke-miterlimit:4;stroke-dasharray:none" />
      <path
         transform="matrix(0.28013,0,0,0.28047,-0.98042,262.12)"
         d="m 21.456,30.745 25.172,19.55 c 1.936,-2.4131 4.3628,-4.4697 7.2856,-5.9829 0.07764,-0.04004 0.14941,-0.07861 0.22754,-0.11768 l -14.617,-28.191 c -7.2271,3.5239 -12.84,8.7471 -18.068,14.742 z"
         enable-background="new    "
         fill="url(#o)"
         filter="url(#a)"
         opacity="0.8"
         id="path212"
         style="fill:url(#o);stroke-width:2.43293058;stroke-miterlimit:4;stroke-dasharray:none" />
      <path
         transform="matrix(0.28013,0,0,0.28047,-0.98042,262.12)"
         d="m 14.299,42.841 c 19.602,6.1255 21.447,19.21 34.907,4.792 L 27.596,23.875 c -6.0684,5.2744 -9.7988,11.822 -13.297,18.966 z"
         enable-background="new    "
         fill="url(#n)"
         filter="url(#a)"
         opacity="0.8"
         id="path214"
         style="fill:url(#n);stroke-width:2.43293058;stroke-miterlimit:4;stroke-dasharray:none" />
      <path
         transform="matrix(0.28013,0,0,0.28047,-0.98042,262.12)"
         d="m 18.458,34.97 c -3.2324,4.7866 -5.2119,9.9346 -6.8989,15.419 l 30.978,8.1289 c 0.58887,-2.085 1.4155,-4.1387 2.6465,-6.062 0.04736,-0.07373 0.12305,-0.18311 0.1709,-0.25586 z"
         enable-background="new    "
         fill="url(#m)"
         filter="url(#a)"
         opacity="0.8"
         id="path216"
         style="fill:url(#m);stroke-width:2.43293058;stroke-miterlimit:4;stroke-dasharray:none" />
      <path
         transform="matrix(0.28013,0,0,0.28047,-0.98042,262.12)"
         d="M 96.074,107.42 77.316,81.702 c -2.4717,1.8408 -5.3213,3.2061 -8.5059,3.915 -0.08398,0.01953 -0.16309,0.03711 -0.24805,0.05566 l 6.5762,31.308 c 7.8184,-1.542 14.397,-5.0976 20.936,-9.5605 z"
         enable-background="new    "
         fill="url(#l)"
         filter="url(#b)"
         opacity="0.8"
         id="path218"
         style="fill:url(#l);stroke-width:2.43293058;stroke-miterlimit:4;stroke-dasharray:none" />
      <path
         transform="matrix(0.28013,0,0,0.28047,-0.98042,262.12)"
         d="M 84.546,114.02 72.458,84.502 c -2.8359,1.1777 -5.9287,1.8047 -9.186,1.71 -0.0874,-0.002 -0.16748,-0.0029 -0.25342,-0.0059 l -0.92676,31.913 c 7.9541,0.42285 15.045,-1.375 22.454,-4.0996 z"
         enable-background="new    "
         fill="url(#k)"
         filter="url(#b)"
         opacity="0.8"
         id="path220"
         style="fill:url(#k);stroke-width:2.43293058;stroke-miterlimit:4;stroke-dasharray:none" />
      <path
         transform="matrix(0.28013,0,0,0.28047,-0.98042,262.12)"
         d="M 106.55,97.145 81.613,77.484 c -1.9189,2.4268 -4.3223,4.4951 -7.2178,6.0166 -0.07715,0.04102 -0.14746,0.0791 -0.22363,0.11816 l 14.479,28.352 c 7.1582,-3.544 12.72,-8.7959 17.898,-14.825 z"
         enable-background="new    "
         fill="url(#j)"
         filter="url(#b)"
         opacity="0.8"
         id="path222"
         style="fill:url(#j);stroke-width:2.43293058;stroke-miterlimit:4;stroke-dasharray:none" />
      <path
         transform="matrix(0.28013,0,0,0.28047,-0.98042,262.12)"
         d="M 113.64,84.979 C 94.222,78.8198 92.393,65.661 79.06,80.1606 l 21.407,23.894 c 6.0127,-5.3057 9.708,-11.89 13.173,-19.075 z"
         enable-background="new    "
         fill="url(#i)"
         filter="url(#b)"
         opacity="0.8"
         id="path224"
         style="fill:url(#i);stroke-width:2.43293058;stroke-miterlimit:4;stroke-dasharray:none" />
      <path
         transform="matrix(0.28013,0,0,0.28047,-0.98042,262.12)"
         d="m 109.51,92.895 c 3.2041,-4.8145 5.1641,-9.9912 6.835,-15.508 L 85.657,69.2122 c -0.58398,2.0977 -1.4033,4.1621 -2.6211,6.0967 -0.04687,0.07519 -0.12305,0.18457 -0.16992,0.25781 z"
         enable-background="new    "
         fill="url(#h)"
         filter="url(#b)"
         opacity="0.8"
         id="path226"
         style="fill:url(#h);stroke-width:2.43293058;stroke-miterlimit:4;stroke-dasharray:none" />
    </g>
  </g>
</svg>
